<mxfile host="65bd71144e">
    <diagram id="6wetP8sVqWxz2x0Oko3I" name="Page-1">
        <mxGraphModel dx="1658" dy="1743" grid="1" gridSize="10" guides="1" tooltips="1" connect="1" arrows="1" fold="1" page="1" pageScale="1" pageWidth="850" pageHeight="1100" background="#ffffff" math="0" shadow="0">
            <root>
                <mxCell id="0"/>
                <mxCell id="1" parent="0"/>
                <mxCell id="146" style="edgeStyle=none;html=1;exitX=0;exitY=0.26;exitDx=0;exitDy=0;exitPerimeter=0;entryX=0.39;entryY=1;entryDx=0;entryDy=0;entryPerimeter=0;strokeWidth=3;endArrow=none;endFill=0;strokeColor=#000000;" edge="1" parent="1" target="132">
                    <mxGeometry relative="1" as="geometry">
                        <mxPoint x="330" y="722.72" as="sourcePoint"/>
                        <mxPoint x="144.64999999999998" y="465" as="targetPoint"/>
                        <Array as="points">
                            <mxPoint x="93" y="723"/>
                        </Array>
                    </mxGeometry>
                </mxCell>
                <mxCell id="156" style="edgeStyle=none;html=1;exitX=1;exitY=0.26;exitDx=0;exitDy=0;exitPerimeter=0;entryX=1;entryY=0.45;entryDx=0;entryDy=0;entryPerimeter=0;strokeColor=#A50040;strokeWidth=3;fontColor=#000000;endArrow=none;endFill=0;fillColor=#d80073;" edge="1" parent="1" source="130" target="148">
                    <mxGeometry relative="1" as="geometry">
                        <Array as="points">
                            <mxPoint x="610" y="720"/>
                            <mxPoint x="610" y="281"/>
                        </Array>
                    </mxGeometry>
                </mxCell>
                <mxCell id="158" style="edgeStyle=none;html=1;exitX=1;exitY=0.14;exitDx=0;exitDy=0;exitPerimeter=0;entryX=1;entryY=0.35;entryDx=0;entryDy=0;entryPerimeter=0;strokeColor=#000000;strokeWidth=3;fontColor=#000000;endArrow=none;endFill=0;" edge="1" parent="1" source="130" target="148">
                    <mxGeometry relative="1" as="geometry">
                        <Array as="points">
                            <mxPoint x="630" y="666"/>
                            <mxPoint x="630" y="252"/>
                        </Array>
                    </mxGeometry>
                </mxCell>
                <mxCell id="159" style="edgeStyle=none;html=1;exitX=1;exitY=0.14;exitDx=0;exitDy=0;exitPerimeter=0;entryX=0;entryY=0.23;entryDx=0;entryDy=0;entryPerimeter=0;strokeColor=#000000;strokeWidth=3;fontColor=#000000;endArrow=none;endFill=0;" edge="1" parent="1" source="130" target="135">
                    <mxGeometry relative="1" as="geometry">
                        <Array as="points">
                            <mxPoint x="630" y="666"/>
                            <mxPoint x="630" y="-68"/>
                        </Array>
                    </mxGeometry>
                </mxCell>
                <mxCell id="161" style="edgeStyle=none;html=1;exitX=1;exitY=0.14;exitDx=0;exitDy=0;exitPerimeter=0;entryX=0.04;entryY=0.5;entryDx=0;entryDy=0;entryPerimeter=0;strokeColor=#000000;strokeWidth=3;fontColor=#000000;endArrow=none;endFill=0;" edge="1" parent="1" source="130" target="149">
                    <mxGeometry relative="1" as="geometry">
                        <Array as="points">
                            <mxPoint x="630" y="666"/>
                            <mxPoint x="630" y="492"/>
                        </Array>
                    </mxGeometry>
                </mxCell>
                <mxCell id="130" value="" style="shape=image;verticalLabelPosition=bottom;labelBackgroundColor=default;verticalAlign=top;aspect=fixed;imageAspect=0;image=data:image/png,iVBORw0KGgoAAAANSUhEUgAAALwAAAHYCAIAAAB4ORUEAAAgAElEQVR4Aey9/09T67YvfP+DpiEv776YvCHmmmzWD66TkKy1PPFk6ZusjTs32+x47yVne7iJ0ezjIQeWkra7gCK0sQukFjpLa5CvRTwt2iMo30IVBNlAs04h7AaufBH7usouiFjQRgISSd/i8Iz9+MzZ2dkvlII1M/h0ds4xn/mMT8fzbXzG+C8iCbPrR7Jcn1p0M1mu3/WaJCoQtAUOFBj+S9CLdvqCwvZB78b7jc1Nz9r6eZM16OP+7vf/+Pe/+a3A4+9+/49BBQoUBZd9lXmOX6D4X38KSeB/+9+5/ALj7du4AI1nbT1NWS+SMMe1LdNLHv42+rvf/+OxEP/9/W9+yyPz73/z2xDlHePBjfhffwpV2rFjx/YWbuICNBubm6lFN0USJr2sybXi5VFwGIgBFQayN2EghkdgeIgBgXsIN8FBkyTTpZc1ZegtmXUPMvQW0C6PXsP4amNzM72s6VBJbYbesvj23aGS2kMltQcKDJSosBEDWmHbm7ARAwIpexMJYnYdN2nK+gx1Y2bdg5PVrWD1qcYnP/KB5kCB4U+NLT09Pf0f/83Pzy8sLLjdbvPo1HFtCyklwrLz9ZvFt++o4974DCk2QsSAVkh7EyFiKIGRI2ZXcJMk02XWPTA8sIKKZ2ZmFj7++9kxeeZWV5JMR6oAy9ygEUuZI+rbCBcSNIAbt9t9zToSSChKj1YhKogBrYC9iQpiQOBXmeeihZgY4+bXJdUIFwo0AJ12x7NDJbVsJXKDJkPd2NfXB4LwL1gaEAd/zQM2sTQW03VoTc6/6f+cznlwXgwnf3U2n+fbUKUdO7Y9Lo6iQHY3mln3YGDWZXO64RAywWRrmjqTWnSzvaMDlcsJmoWFhZ8dk+wBCQdoDpXUUjamv7+/p6dnYmLC7XaToHG73bl3e6nahPHxzK0u8+gU3pihtwzMusimCaQSVHCaKg0PPBnoLh7QwL0oCgpBBfKAJgyBbNBIW/s3Njc3Njc/bG35fD5F9zC2VdgFysb09/f39fXZbDa2abg3PkOZBg7Q/GTpJgFoNBozMzO/+/jvt7/9rcFg+Otf/4rQefHiBRuJob7J4tt3R9S3RRJGLGUK2wc9a+vXrCMT7mWUw6l+Tn2gvuFbzhsDgSZsgYFAE55ANmiwHU5Wt0YFNBnqRlLF7R0dP/7449GjR7/77rujR49eunx5enoaVbywsJBZ9wDrIJIwNGgOFBjIjunmzZsgC0ADfy9dvkxKJE0CKVp4GabcBwoM98ZnJtzL6WVNR9S3yQUbtu5RHyfN/yC99Qfq+KeO3/xTx28C4YYTNEEFnjT/QyCBnKBBgf/U8RuqetJbf/injt+AQParxQA0pJnp6en57W9/S+r3m2++yczMnJ2dBS273W5qUkKDhsRgX18fJQ5F9/X1IW4oicKxgldubG5m6C3TSx7z6BTsJBxR3+a3NOn/nA5G5XdXjlyo//0lcyZ5XLFknX30v9JUaen/nM7WSiDQoEDprT+Q0i6ZM0GgcNAgYtJUab+7coQtUNl29uyj/8UpcKdBkyzXk3ZBKpWiWsnCTz/9hCr+61//Sq6A0KD5U2MLGq5/+7d/I6WQZYVCgRKnpv42HEEchFSwTr3wbryXtvZD3ymWMtNLHrLnphSPKkn/5/TfXTkCuMFf8xVLVlX/v5R2ZgNo2Lhhg4YtEKVJb/0BBPKgkG1p+AUq285W9f9LIIE7ChqxlDmsakAV9/f3//DDD6Rmsfy73/0OVbywsJBe1oQ65QPNzZs3UQRVkEqlKNHpdKK48Api6XY3Sd5L7VwGBc0fDf/9Qv3v4YgKaNgClW1nA6GQEzQ4iEZYYw0BNFcsWZwCdxQ0Isn2YgoJGvbwA3R97NgxVPHCwgK5MkeD5nRjJ0psa2ujsIIfKyoqUOLPjklS3ztRjgFoKB3HP2gy9JYMvSWM1k5T1qOK+/v7f/e736FayUJmZiaqeGFh4bCqAZ9Fg4Yc0/T392dlZZGCoHz06NHx8XGUaB6wobjwCoruYWqd8ECBQdraj9JiABoYJGF/F/+gmV7ykHMFbKughSSZjlxS+emnn9gq/u6774xGI6r4xYsXpIJo0FAS29ra2GPhlpYWFMeejwWtNPsC3LDEr/hnT+wRA6lj6a0/kCOG8MY0pMCojGmwb7pQ//uojGmcr9/wb+5iY7IL5KpKX1/fH//4Rwo3UqmUXFjRPxkjhdCgEUmYM7e6SPPV09Nz6fLlzI//Ll2+PDw8TCLmZ8ckiUFStPCyd+M9tVx9XNsifPb0P0v/xx8N/508pLf+EGhucuzYMfZA+NixY+R0jC0w1NkTJZCsG5Qjnz1FAhpqLNzX11dRUZGVlZWZmfnjjz9aLBZyFdftdpOjYI51GrGUSZFVkPN4BBB7rdDtdpPjI+Eooa68Nz7jXyCHHlosZTLrHkwveTR9dryM6p5AJaDmk+Z/YKvkpPkfIlmnCVUgeyAsvIbsV2MPhMVSJk1Zn6asP3Ory+fzafrsacp614o3bEsjkjDkNBlVjBuWpF0gp7GgEQ5LI5Yyvy6pZm9MUKBxu91nbnWhXiMpJMv1uXd7XSveMddL6KrP3Ooil67ZLUtqBcaw1F/owjhv5LQ0kQjkBA2/QKgeu+s8duwYGzTXrCM+rn/O12/CbvYkmY7spAA3bNCYB2zsnoQDNFCP1KKblFASNDMzMyerW8OuMeeNSTJdht5yXNtCwgWu5NQ9agV7FpwB8SAmUPcEj0BdkhDEk4GqEQg04dWQDZrj2hbz6BT7iPxH+6fGFnKhjwTN/Px8YfsgGzEc3ROpTrGUyVA3/mTphsH2/Md/7Y5n501WalmFvGsnyoG0RWk6qHbh+kCWBp+CcrCAX3EWeEBD4galcRoYlMwGzU40Kco8VFL7p8YW6FgAND87JhXdwzyuWAEtDQqFwoECQ2rRTU7cUVeG8fFkdStlXZLletKSYYNGpRAUNKE+hR80oUqLMWhQX8IJIUJBg6J3ohDqlDtUNVDXJ0AToRLjBTSK7uHC9kE8NH12cuWK0nqEHxOg2SegMdomaoYceNwbn0mAJkLV7tzt8WJpKE8u/hXhhKXhAcRhVUNm3QP2Qe0B80gI+lVcgCb3bi81xD5QYCB9uyJECXX7/u6ecu/29j114jEw69rY3PT5fOSOY1BY8F8QF6Dhr6JIwlBaj/Dj/gYNNmZq0U1F9/Di23c2p/t0Yyf1s8TLwigkQBMhArdvj7cp9xH1baNtwrvxPuoMNUDYZ6DZ3uPIL+c8vi1UfVuo+rqwjPPbFFkFJ2APqxo0fXZNn/2adSSSPjUKiiVE7G9Lo+mz+3y+6SWPtLX/zK0uODLrHlArYZS+YM8xLb88RVbBfyW9Ivx1YVkNkxPGce7qZaoS8DFNWa/oHlZ0D3vW1oFvwHlZ0JOExqNQ3N+gKWwfbHc8o4574zOBfrRp+eXnrl7WVl5AvWsrL5y7ejktvzyQXj6zNDygQUdrFE0WSNCcudWlfzJGHQnQCAd7zFaExVIm62oR6pGt4qyrRZxWJwhoLpkz1dY8o8NwZ85kcVrM03WGIcUVSxY+CQokaMyjU12Tz8HA4N8YgAZ2doToRqClES5Q4JhGoMAIQZMk07E1zR4Fp8gq8stloL7Szmyjw3B/vq17qatjocM8XVf5OB++8l/DHnvwgcbvSn1nzmTwGqijZ7nHMKQgcUOBhk27nF7y7FD3RO4CkmUe9PCDhhRClnkE8oOGFEKWAwmMEDRG28Tpxk6qZ5le8pBubmIpA4i5ZM6stasfrTykVNy72mtxWpRtZ2uYnPxyGYXCgKBRtp3tWOgweA1Vq1VVq1U9yz1wwMdHKw9r7WrEDQma49oWsn5Q+5PVrYH61DO3umqGHNTiHvXOgdoXdEC6MZDeEYHu4gENp0DUdCCBPKAJQ2CEoLk3PiNt7YdwLfh38e07cp3mlKK4hsm5ZM40OrYtAqeKDV5D91IX4OaUopjUCDdoLpkzwcaQcEHc9Cz3VK1WPVp5qLbmAW5I0JDS+cuHSmrvjc+AdxHbPYy8l1NblD44P3LeGAg0nBIQkfAtp8BAoAlPYOSggUB0nrV1PMjFvRRZxQ1tbg2TYxhSAGJIzWIZkHRnzlTD5PivJzspbtCorXko7v58G3V0L3WhxEvmzBomJ7u0AHV8WNVAWRqxdDsuGtWtnrnV5VlbR3800rkTRWGBrSrUR8xouTz+o5ygwRoCARRIlvgXabls35rIQUMupkMbula8aGlOFCvBzNyfbwOj0L3UZXFayOP+fBtlGk4UK1Ed3KAxOv5msixOS/PTZvLoWOhAidjtocTzJqtnbb2wfRD6o/SypoFZ1/SSB/22SAMTCWjABnDScsFtO2xaLpvnyy+QDRpEDNByOQUGQmGEoLlmHSFdkUAvXZPPcQBwsUxew+SUdmZjr9Sx0EHqt/lps8VpARVXrVYZHYYaJudimRxV/Blovi9SAQbvzJmwY+IBTdVqFfRQxWoJSgQOHwDFaJsgAQRfkQYmPNCgSpCmdKH+90ikjQrDki0wEIuWc0WYs4bIYoEa/lPHbzhhHSFoSEVwllWa7UFF5eN8gaAxT9fVMDnqioso7TPQoOEKFTQqTR5KhIghuXd7oWe1OT8jQOTe7UWgkIWQuie2Stg0pQi53GyBUaTlAmj8A8dQablkI4ddVldcjCZovi38ZGmge4IxEY+l6V7qKu3MrmFySEtzRH17zPVyzPXyuLYlWa6H5WBNnx2mbclyvXl0ioQLlHcdNDjtAup11EHDFrhDoFF0DztfvwEOEMVXApwVqyXQPWk9WuhPhHRPpIo/szS4ImwYUqDEO3OmpkkjeeCYxuK0wECY7PD8I9zcu73kzD5NWa9/MoZjGpFkm9m0+PYdCZ1dBw1Fy8Wu5EL978Ew7BVLc6DAkF7WdFzbon8y5llbh5hi5HrHuauXYRBicVoANPfn2xoc9eRhmjHBmKZ7qQsW+sgJMjdorliyLE6LbkXXs9zTsdDBOXvSerS4xEdKFGg2U4tukiYnPNDAMPN3V46Qv+Oo03IpgeypHM9AGEddZA0vmTOr+v8lBmOaZLm+sH3ww9bW4tt3iBswDZfMmYYhheaVpmq1ChaCOxY6yKNqtUq3ojPNmGAD4OvCMtQsN2igzytfKNet6HBETM7gNa80TZNG3E8gQXOgwEBNufFh7AKaHH4KD1tPOKz53ZUjbBbtJXNmJLRcNsOSXyAbNMBcwfkdW+AVS9YOzZ6gkZNkutONnRD4x2ibIImwuBx8xZLVNGkE3KByoVC1WqX1aC1OC0x0qEXhgKABJFqcFs0rDXRVAD2tR1u+UN40aYTJNntxzzw65Vlbx1UBNlCoMwcKDEF3GHhAEzNabqBoZ5yzJ6Q7panS2DU8af4HOMlepOFkWFItxv8RHK+8G+/HXC9z7/aSowK88aD8OqzvKdvONjjqyxfKQcu6FZ1uRQcqvjNngo7phjb3oPw63hvcNQJ3K0vnS0vnS+/MmUwzJvaeJWlpzKNTQLUC+jH8FW57yMphmQ0aUiu4aEsWwBRx3ihwRZiU9k32NzwCOS0Nfw1B2k6AJlmuT1PW8ze4WMp8W6gC3IB1aH7aDCoGLdfa1WAUbmhzvy1UoSKgENDS4L7SJXOmsu2s2ppX+Ti/tDMbuyS8oIbJoUDj3XhPhR93vn6Di0tUDYR85NQ9amVv0XJ54AKvudPrNNjg3xaq0I0GtFzamU2qWFt5gY2Y4JaGRAZPmQKNonuYnD1hLcMuBAINnEc1YIH/+kCWBu9COVjAr9iFv//NbwNZGrwY5WABv2IXYgYa8NbLLi0Ak0Pq94Y2N7u0gNxvInX3maU5KL+eXVpAHRfL5MVqiUqTp664qNLk5ZfLqAuySwvIjQn9kzHn6zfCxzRkbQKV/9v/zmU3bnhnIAtGFOPm/+psvljKRDFuvvhffwrUDjt0PkVWcaJYee7q5ezSgnNXL/vXeAPBBSrwGWh2qE5RERsV3JB5U6KCm1+dzce3iwpuYo8YrL/wwp4BjUjCRIgbEjHQQBHihkQMCIwQN3sCMfSYRjjWduvKsHHDRkyEuGEjJkLc7BXE7D3QhGdvAiEmbNwEQkzYuIk6YtKU9desI+D6Gd1JyZ4EDeDm737/jwIPIWn+vso8J1Da3/3+H/kRA7gJSWB0EZMs19cMObwb72uGHNLW/gn38oR7me1hA/UM7+9eGtOE94ZRvyvqP9zoCtT02a1TL3BxTyzdDtfq3XiPe0+RN0gCNLFIcha5noRLgEw21qkX5LGxuRnFRRBBoEmRVXxdWPZtoSotvzzozyK9rMk8OnVvfIY8or7cJ7wRv7Qr743P6J+MUaFGFt++44mhJ5IwSTIdqPjrwjLKm5vdgHygEUuZE8VK8NnB5ULgbFI7WKRco23CaJs4b7KSx+Lbd5wOQeSNiXJUWuCwqoG9SXlEfTvQr/3bQtXFMjm5KHxDm3uxTM65gQA1DAiatPxycCYFhx2Ks3lDm3tKUcxZD/8ud9TJcoFa88ytLqqrztBbMAZbYfsgSXxPU9bDV9LWfspWHyqpJYeKh1UNmKviUEktKbCwfRC/OqK+Xdg+iFv0acp6UgjMMs6brHhBoLfYrfMpsgpwMgeLQKkYnMk5l4a5QUNtgZqn64CzaXFajA4DOkWQW0745jEDTXpZk8/noxxxFN3DG5ubMGWYcC9/2NrCxBwnq1udr9/4fL7Ft+8o543C9kEyqr6ie9jmdMMbZegtIM3n87lWvBPuZfQXk7b2+3y+dsczuJISIpYyA7Mu78b7jc3NWOImQ29BNjRZoMxPiqwCjAIwr83Tdd1LXb2rvY9WHlqcllq7Gnam/dewccMBmrT8cjBWpZ3Z9+fbKMKmwWsAeiU4emZdLUK4QEHTZ59wL3dNPicPzH5wqKR2wr08MOuKvLcqbB/0+XxkxlSRhFF0D4+5XmKVaoYc1qkX+PG4tsXn8x0oMIy5XpI3UvomQYP3bmxuUnRXAM2HrS2wW5SQzLoHH7a20sua+p46uyafo5ydLmTWPSCjL9wbn4FIWOSYRixlYNRxxZJlnq7rXe0FLQM/AVTcsdCBDuBUl0KDRixlAIClndndS11ImUPPLpQLdJgaJod0BBRJmGS5PrPuAUZGgQL+1M6brOAavLG5GSggtsBmHZh1AYOQHLgpuoenlzwnq1vhGHO9JLMlAmighqBReBalb+GgARduSFJCChFLGcQlPJT0nRP4ghFedlzbcm98BhZsqJ8oBIu4ZM7cjugQmJbbs9wDuKFMAw0aZLGA1zHb1xPdAR+tPATPrvxymfDXQ9AAdCiCi3A5BwoMH7a2gBCDgwywNOiv/mFrC9KoolgEDSgVOxpS3yAEuye8l9PSOF+/yb3b6914f6DAQAo5or7t8/lQVQOzLqNtAkXtaCFJpjtzq8vmdC++fafoHma7MYVEy70/3xaEliuSfAomUPk4H23M/fk2krBpcVqQlotsBDIAznFtC9oVaB14DRixUqDx+XxgcigDGLRZTzd2bmxuJsv1Y66XqHvsntKU9RubmziaAWnADvb5fFCTmiEH9hqkvkMFjT8biGdtXdraTwoB0jG+xTXrCBuF+G10C+CuDxSWa9YROBTdwzhjQPZ/x0IHUljuzJnIg6TlgmkgYwB8ZmlSZBUwkDZP1yH9jof39GjlIQyKSX+a042dnrV1DARxsrp1esljc7oDgQYMQ2H7YEhtZ7RNDMy6DpXU6p+MUWNYGNMA34r6naGlSZLpnK/fYNQBUt+hgkYkYTR9dpCGNTmsavD5fNAlgVWj8myF9LIhXXzmVhdiBQskaCDISKi0XLI/+Qw0/pBrodJyAYZUn3eopNa/VONP0W6deuFa8ZJ5eNiWJgzQiKUMRZvCVXMcCCfL9c7Xb2qGHNjipKUBAijeFSFo0pT1H7a2bE43gkYkYbomn8MYHEbE1CQfaxX7QpQZlmGDhpp7J8v116wj3o33MFklxxxs0JDJlQW2IBiMDL0F0r77h8O4MoSgEUmY042dH7a2yL4SbkxT1jtfvyF/+tLWfmQGiaUMmDGqMoHGNHAZxEwhQQPPOlndOuZ6GbMBjUjCHCqpxZ4Ilo6okB1RBg10TxDrBofAPN0T0nLJDi9Db3GteNsdzw6rGvwmwb8uvPj2HQYKpEAzMOsK4ydIGQajbQLnz+TEB1ZK8Kszt7o+bG2BYaMc3dOU9WC6PmxtwYHLP2An8MYPW1soMPduL8biB4iQoBFJtsHn8/k8a+vkdJfCYtQ/3hufwcrDj2HM9dLmdOOoMVRaLkSvCkjLFUk+zbcrH+cjLdc0YyIJmw2OeqTl3pkzwWoNOeuGuS7ZFpD6lhrThGFgUOaBAgMJtdSim6gV6qsDBQbyK9iRydBb8LeIMlOLbp6sboULSOGQRIjcysFvk+V6nB+JJMzJ6lbSpsKGznFtCzWuwifuUOHe+AzGp5G29kMHTe49wXzbnxUcwzzw0HI7FjqAL0eOQD4b04gkDAytr1iyTDMmoFeSVE0oA8t3O7jax8h76oqLiOKgDYGLe9j0QW9JXBBSC+Te7XW+fgOdMrJdyaBGOAhBWm7Pck/3Uhf1F7iR5uk6sAvkBJkGTYqsArgwamuexWlBe4OLe4AYzStNg6MexJFTJ3i9QyW15E9QJGGgqwrp5RMXh90CuXd7ISwQGEiY/5PbCLDlBOMQzSsNkPYpFWs92jtzJljcIwM8cHvuQWgjoHPfmTOVL5RrPVokbGpeaWAHCvYmKHFgpRffvsOR5qGSWiDqkpUOuzkSNwpsgSPq2zVDDkir0TX5nNoAQdNwxZJldBhK50uBlqv1aLUereaVpnyh3DRjgo7Jb0So7Sfa0kCdoJOCKCa1drVpZnvlBwibTZNGw5ACbIx/SEWJg9EfRJcEsHvW1vVPxmLcrwts2S/5sq8Ly5CWW/k4H0JFg4qbnzYj8/qGNpccsEKLcYNGJNn2pEEfiyuWLCBsKtvOAlx49s1hlzu16KbP5+t76iRnvLFXkqJ72LvxnpxNkMvHsFPGjnFc2D7oZxbjcDL3bi+53iOSMDBuqBlykNtesX+7CJ+Yll8O029YnLtiyVK2nb1iyUIVqysukkMZfFxA0IgkzEH5ddLfAv2wVJq874tUgQa/5tEp/ZMxWObHjcMMvSXQ9ViVnShAdglcwtc/GcOtA3hcZt0Dn893zTpCPl3RPezz+Sbcy1BnTZ99YNaFFxxWNXzY2tI/GdvY3ERg4bd7q5Ak02VdLUJGN6pYW3kh62pRoJ8EH2jg/VNkFd8XqU4pirOuFp0oVgb1+ISVEpvTTR7+Hbtd6aE0fXZYgIEVfTZoaoYcPp+P9KaAbQS4C6bQFGiMtgnAExCQA7XsHkIPBJEAFZ9SFH9bGNAiwEsFB80eenl2VUHfA7MucJCgQCOWMq4Vb9fkc5/Ph1sKuOsJ/kCwtYSWBnYMYFx5qKR2HxgbdqMFPfNFgAb2EyD0H9k9oQMDOYJB0JysboVA36SlgQVu7GrBhT5oK++zC74I0MCetqbPTlka8NgSSRggTqBqYQNLLGWmlzz6J2MkaGDNA7ukdsezWO4rYQ13t/BFgEYkYQrbBz1r60bbBGlpbE739JKnZshhc7q9G+8RCrjrCQ5WNUMO7J5Si2764yPD/iiMiDPrHuyuCmP/9C8FNAcKDN6N9561dQRNatHND1tbA7MuSMLm8/lw5whBAw5WEFgVdQPeM0kyndE2MeZ6iV0VXrC7BXAKJodoUa/PlwIakYTRPxnz+XwIGiCronUhPQARNCIJc8064vP50NL4Vy9Ti256N963O5592NqKQzNDblhGHS4gMPqgSZLp2HvIO1T7oGIz6x6ge95hVcOY6yW60Zxu7CSXZ86brOg9eLK6Fb86VFI75npJLe6drG4dmHXh9UGrEcsLMBsS+kr7fD7wYo5WNYKDRixlvi4s+75IdaJY6Y+Dz943oKpiHp2KLnOYkp/4yN8CYVgasXR7IRdU/H2R6qD8On+fyweaFFkF53LhxTI5ez8C38Q8OiVt7T9QYCCP+LE9WM/9WghpTAPMa6TS4oqwSpN3olgZCDoBQUPFC2VzNgOlUjWPTn3Y2trY3CQP78b7XVkR3q/IiMp7HZRfR6L+JXMm7D2R24vFagknaZ8bNOgdccWSVWtXW5yWRysPe1d7u5e6zNN1sGMOe5ZsMIKlicpbJYTsXAsclF+H3UoMTQ8qBi0j+VpdcZGNGw7Q4Ka52poHJEsk4QF5s3e11+gwgD8NmYgQ3rBmyEExpXfuzQVKTi9rwuEwJCrDMWx6WVO74xkyiO+Nz+DEm0e4WLo9qwr1Lh6BUfwqvazp3vgMTrkPFBhqhhzU3j4SucHpk+TkVq1Wwcee5R6gmrDp3DRoxFIGAFjamb2dSvkjZ5Py6QK56AjIE5Miim0RiShY+0cJ0tZ+dAhPU9bXDDnwsDnd1OYl3kUWMvSWD1tbeNfArItyKScvjnEZIAI9wBH1bb8LPeT3QxiJJAxk74FcO2wVYyJCzG1LsU1o0AAt94olC7JiIieBxA0I3U7m/NFHuFgtYXdSMW4pnschIwKvIUGDJ6Egbe13vn5DnWR/PN3Y6d14j+cpUOL5XSng7AmSicLiNekjfFB+HQa8tXY1J2JA18CW7FjogIvJTooGDYyMyOS79+fbSMLmnTkT0nLvz7eBww45mTqsauiafI4cgNSimxDmaBeBhVuPoMV74zNkKAlStfsDNOA15lrxYtQBEjTIHQA9Qkov08x2qhQ8MPHpdm/z0TSQLKXPQIO8J6DlAuJ4eE8YVYCUCDt8lHl0rXgpV3NSVTtdFksZ5+s3sF4Hm0foy4cZNyFy0ZjrZSA8kZWMZ0tT2D7oj4hjnXqB09Vr1hF0KEO6vtqah8xrnnSEuhUdJD6NPi2X7PMwqBGYR/BtY7tUkjqIQVnRPexa8SbJdNLWfs/aOgCcdqcAACAASURBVLlulCzXD8y6IO/mxuYmtfjLWbd4Bo1IwqQp60m7nlp0E3dLRJJPY1bh2XIhn3vAbLnIiEEaVc9yD4+lwRTLFGikrf1G2wSyb0SS7R/67joLHyqpha2iCfcy7iSwAVHYPohjZPj2dGOn8/UbkqEIhN+4HdOwX4o6s/u0XIgaQXZP0tb+jc1NMnv4NevImOslCXbqNWLzsWvy+fSSx+fz8cCXPaYBf2Gfz0fWP54tTbJcL23tV3QP43QptehmYfsgGleMGoGkNp7uqWq1Cmi5AbsnkeRTVC2Sltv8tDkQLdc0w0HLhX1gEgcHCgyktSS/imX5dGOn3/8Bnczh0Uky3XFtCx7g9kvWCsI7Ug7k4DaPd12zjrhWvORdu1hWdA9DDCXr1IskmQ6Ic0bbBIIew2CZZkwwO46UlouRsJqfNpNZT0naJky578+34eJPPGAiqJ6SZLoJ9zI5BBZJmAy9hdwN/rC1RS4DBpJ5oMAAMR/h3g9bW7grHuiWmJ2HKXeash6idticbpxDQR1wyl35OJ8z6ylOubUebYOjPsiUWyxlcHFPbc27M2dCC4brNEDx1bzSGB0GmG9/X/RZjkNI66vpsyNbO7Xo5jXrSDwwLDnBnSzX494q2vCgOhZLmTDuCio28gsQNOD0zvnKmJq71q6GnMioX0SM5pXGNGOC4Qc5ZuWm5WJKd7U1zzSzTculOJtkyNDs0gKqWv7QutapF5o+u83pxtnKXueVRa7LmEm4Nz4zMOsCBxVYITPaJmqGHOTvIUVWgRtPtXZ16XwpqWWg5TZNGoHI7b+S8of5bJ0GXww6qRomBzYsm582w/qeacZkdBjU1jywMVS6ZrgdGZYQz9fmdPMMPPGJiUK0WuBkdau0tR+O3Lu9/iUG/7Am924vjmngQUivvGTOLO3MrrWrUctGh6HycT7sLXKSLLlBI5Jsp+BF4h3um4ODBHRy565epmwM1AZB82FriwycFq1GSciJVgtQrhHo/YK03NBcI6BagZyw8stl5L4B9Q7m0akx10twoTWPTuERD2MaqqqJj1F2wsIGBXfPE8VKge6eGXqLfwMPj9y7vVCmzCPKTxR2vQXEUiYtvxzdPYMyrwN2T7v+JokKxG0LJECz35KExQBqCdAkQBNyCyRAE3KTxeCnHOePSIAmAZqQWyABmpCbLM7NQAyqt4OgSZLpcHc+Bm+SeETMWiA4aDB82ilFsZDwaeAaoemzQ5SGMdfL042dnGvHMXvJxIP4WwDCp50oVp5SFEcaPu2g/Hp2aQFsGpB/+QM1Hte2QCQYCDh95lbX9JKn76kzgRt+ze3Kt0ky3SlFMe4XoZa1lRdOKYoDrccGtDRkSFjceyLjhfoDf1Kbn/DasKd6RH0bD4DRLjqW74o+4v+hVEJkZdtZtTWvtDMbtiprmByVJi+EkLAYfFrZdtboMEAeVUilemfOVPk4H/a0OINPm0enFt++m17ykAeVQif+G3Tf1xB5tODIgCoGLZun68AvQmjwaSRyVz7OB5Il0nKBW/lo5aF5ug7D3FP9TmH7IJWeGsKYJwbFsQGionsY0wwEckrBMPfKtrOYEBkYLfAXEuYC4yl4mHsUp7bmPVp5iNQY0rMLoIN5eyjPvdg0TeIpgVogWa4/rGo4or4NMZTHXC9z7/ZSLgYQUxx4tJwkS9A75ralMmDQYxqk30FWTH5aLviph5S6B9xyna/f4AHRMZNkOuvUC3i39LImTMQVqGmo8+C0CzLHXC/R1BltE/BrS5brUT51r8CPGXoL1nlg1kWKBQnJcj0mdrdOvYCLp5c8VP5VgY8LdJmiexjfLtA1eD5JpitsH/SnFSapXkhUMjoMiJjupS7qANx0L3VBl0IObmjQQHwbw5ACbYzFaUG2JhQwSVjHQgcMbkj3GkhH4N14Tx1oKjP0lq7J59LWfn8a4PMmK4ZUbXc8A/fsrsnnQry7sWlgkr+xuZle1pRe1nS6sRPp+IXtgwOzLrF0O8m7deoF1ZOSEoKWIbEgPELRPQywPlBg2NjchHtTi2561tahPL3kOd3YidkSkewY9ClBL/APGSlqBOctyXL9mVtdA7MuyMtN+pZjkrCQaLkBk4RFhZbrD3vp52/D4c+rZrRNUDQoeMnTjZ0UATZNWQ+5ip2v35AOrZyNQp0Esu3pxs7TjZ2F7YPIU0mS6aaXPBAPNsLpmz9xHIrNrHsAlUfQHFHfpkBT2D54urGTnWuJqnmoH4OC5pp1xLO2vrG5Cb9JdksCXV8gLbdqtQpouQHTEaLhEs6wBBYL5a0ulm5TQwKln4dmYoMGQ2mGETIT4ruOuV5ubG6aR6fQqkH+KZ/PRwVoCVVVIMfmdAMDQdraD3HzATQQb5YCjc3p9hPzrFMvwngdnuoFBU2yXA+/2EBCQmJY6lZ0saDlghl3rXgL2wd5zDInaArbB30+n/A+G9sFLA2kVaaUBMymyHlJEHoCYsJNL3nA4ANoIEgsBZoj6ttdk88jfy6+IxSCgoa6nv0xJNCgpQnI5cbuqdauJsc0zU+byYMc07CTuUMGeirsHjvmHhs0h0pqPWvr16wj00ueQGuR7CaAMwAaYFlPL3nQJgNBDiw28rACCeE/T3ZPeCU/aA6rGrwb7yN8Lj4LCkFBc95kxUG6/skYhNYmx4hAy1W2nUVSW3RouWprHkrkzJYLkGp+2gwDYXJoDXGEk+V66qBeng0aSBQFeZExvBl1V6CPCBrq9ty7vRBUXNNnx6lNICH85zlBkyzXf9jaOlndurG5ebK6dfHtOxCCUTKuWUcifC5VKwhpiKNG9tAegxpl6C3TS54zt7pgXIURg2CCfMmcCSRaiE/TNGkkD9OMCXm0sMpH0vXp2RPScpsmjYgbcpEGGXhIyyWHSNQb8nzM0FvIoB5JMt2Y6yVMucGw89zL/ipZrsdRqn/7AofY98ZnsB9B+ezbhZzxD3Vxokder38y5t14D9kVcHaNYZ2S5foIn0s+C5ZJyWkpOS2CKxE0ECEbTpJBjVJkFZAzUG3NK18o51lV0Xq0RoehhsnxX09uGdGgEUs/peYu7cw2zZjYXF+g5ZYvlMMiTQ2TQ863RZLt7O34Jpl1D/qeOrtYiTephkh8jGIL3BufmXAvW6dejLleQnR+fwA5Mi+3SMJgDACk5ZLQQeZ189NmGH6Q821uWm5afjkgsbQzu/lpM5lKFQibd+ZMtXY1dEyUOJGEwaBGkOtxYNZ1urHTv+8Ng+Ikme6H6waBBzkJ4mlWsZQRKPCH6waBMgM9Tixlfl1SLfBxYYzoyeeG9CwMSnpc2wJLD6cbO+HkcW0LBHRC4WLpp/AgEA8WciJrXmngKF8oh4TIgBh2TEXa0oDcbwtVgJsrlqzKx/kNjnpImNv8tHmb+tuZDXvobCK3SMJAzEvoazP0FrDY2MenlzU5RrQCjz81tuB78hR+XVItUKBjRCtQJs/j/v3xHYGPm/qLmUeOkK+G/+PfBT5r+D/+PZBA2FigvsWosJfMmcq2s4YhRYOjvvlpc9OksdauRuY1Ox4st6UB6dS+OXI2AS43tLnkyIisUJqyfnrJYx6dwikMGQkrARqyrYKWowKaQE9JkVWQiW0pFfMkROa2NPAYTs7mDW3uuauXyQCh7DodKDD4h2OLb99B7tMx10sMFJhe1jT1F/PUX8xCfkACrcKvS6qjLpP9Unjm3x/fEfi4qFgagW3FY2mw5uwC+OzBJBw9sGqYnPxyGU/6Uz7Q4DMOyq9/W6j6tlAVlLCJt0C4QEixnKG34LrLdrCdj/88y/O/zD2hjudPO6f+Yn7+tPP5085f5p4IXBnbXlsTLDPypeFtT9aP/+Z/+QtV/1/mnuAr/DL3ZP6Xv5ANEkZ5e1X94z/2g6hnTUxMhCEfb0mRVXxdWPZtocofaIacKOEFZEEQaMgbIixvr3cF/vdq+RW0zqJ7Zm1tTeBA8lBJbWCRXkomJLqN5C2MtgmexyGSVldX/7/FpUgeJJIwfU+dQp61trZGpjGL8KFBb48paMRS5rCqYXV1NVBDrK6uAmg8y/Nra2sCLc2hkloemV6vlwRi5JaGHzSL7hl4nNfr/atnNagC+C8QCBqv14sb+/wCo/JtTEEjkgQBDSoYQEPFxwv0wgJBAzKF+BUEehCcFw6anbY0AND5X/7i9XpxbZO/8lH5NqagEWJpFt0znuV5r9e7trYWLdCQMncaNKurq/O//AUs306DBp4FZnvfgkaIpYHfTXRBQ8rcadC8Wn6Fj9tp0CwsLCy6P42U9y1ogloaz/I8tkK0LA2pxbW1tZ0GDZoZr9e706BBdO7n7imopSFbIVqgIbW406AhQb/ToFl0z+APLO5Ak5ZffqJYee7q5XNXL2ddLeJZ8wk6yOK0NK+WX0GvPP/LX2A0Ax8jAQ2PzB2yNGtra6RJg1eIuqXB9/Isz5M/sAhBkyKrOFGszLpalF1akHW1yO/pwL9UwzcQ/rqwjL1WWMPkAGeT7ckRFDSclmZ1dRV+oCRiIhzTrH78h+NfUCHIjDpoYMzL1uJOWBqeZ4U3pkmRVUAganI5GMr+84Ggww0asZRBkiVwcks7s9XWPCqVaiChgdDDaWkQMRubm6jdCEHDIzPqoHm1/AoQs/bxH/kKUbc0CwsL8KyNzc21tTXyWWGAhoz6e8WSpbbmGYYUlY/zYXMbrANnrkkO0Iiln3Ic1jA5pZ3Z5um67cyD3m2OTO9qb8dCR61djZGJ2bhJkulOVrdm1j04Wd2KHK30siawTOzFvV/mnniW58H3lmwF7J4gDD0FRDKHEXudhkdm1EEDiyVQf0qRUQfN/C9/mf/lL5zPChU03xaqwKIA8xpVDFq2OC2YE5mNGw7QoPOeYUgBssC5E/4CeixOSyBnC3DyhbRb4LIvkjDoGkGBZnV1lRzNcYKmsH2QvYzb7niGDuQUaPhl7gRoqI4V3yLqoFl0zwRa+0bQ3BufgTQfi2/fBWLtHJRfR5cpSIhMqhgYtL2rveBnd0ObS+1P06BBX0BADMii3D1B6P35NrA3J4qVpBlAJ6zj2hZ8E07QvFp+FQgxZPek6B5mg4b0BiRBE1RmdEHDHjYhYqI+pll0z+BAmHwKlLGp0d0T8ruCScYNY0i/iL7lmI6UreKq1SrMbUvlM6BBw6bfUWxNyOEDuOGk5QoEDTU7ZbcCdk/nTVab003GD0gvayKzeiJo+BETrYFwzZADasuPmOiChlw4YLcVOXtC0IgkjP7J2IetrQ9bW96N9zhUgIQpl8yZRocBjEL3UlfHQgd5kGAC00A69X4GGszbQ1FYAtFyu5e6wOmT7PZI0AA79XRj5+Lbd+BnmV7WNL445/V6g7YCgiZZrt/W08Z7/ZOxzLoHkGW6sH0Qp2+/LqkWLjNyS3PNOgKzM2rSy9Zl5N2TecDm9XqD/sACgYbsAbCMSbmBbxA0Wy6YBpIP+RlokPckPFsuDJdILz50LE+S6fRPxromn8MB9J/0sqa2uWFY0gjUPUPrI2jgbdOU9fonY31PnYruYYqD9+uSauEyIwRN8uXKa9aRYff/odbW2IiJ3NIkX67UPxkbX5wLatJI0OifjPGHT4hTWi6Cml04rGpomxsGpxOeAQ05pmELoc4AaATKjBA0wB1umxsG/wd+3EduaZqfNuOzOHGJJ3FMQzUO+2OoDEuhtFyBlgaz5bI5CVBXcvwFQ7CQQCNQwYdKahGI/F3G2tpa7t1edjsKPwOWBhXJMzKN3NLAoASfhfjgLIQKGrU1D9NN8jAsMS93QFqunxwJMzFqTENycpufNvPTckUSBjISOl+/gaziyK6AFWFsBX4Fe71e8NzLvdvLJlwabRMoFiwN/PSDyozcc++adQRfIdBkG/QauWOU/skYPovfqvU9dbKhL5YyR9S3IcwKDoTBmVzZdlbzSgN0J37QQDwsMq7RZ2MaMj08SjTNmEjCZtOkEeId6VZ0TZNGGAiT8/gj6tuLb991TT4/or4N6X4X374zj07BuDVNWT/s/j/gmI3uwOAUzP4LCbSDTrlTi24Kl2kesLEbV/iZ5MuViu5hu90Or8CuM3kmQh/h5MuVRtvE8H/8u5BnTU1N4VscKDCcbuw02iYW3777sLXV99R5sroV5w24Dtc0adSt6GAgTNmFO3M0LZdcWKFBAwH3YD7GQ8vVrejuz7fBKJjEIPCe9E/GDpXU4nFY1eBZW8eBsBAeAlwDbARpa3+74xm+M1iyCfcyehAneE+OES2yEQrbB2HJWNNnP6K+XTPkoOw0LsUBLRdwQ63TwMRK80qD63vk0j8NGjQ2yrazQMvFng9Z3LoVncVpAat1Q5tLsv+BYbmxuelZWycPjO4ZBu/pUEktkGD8vx5/OI/cu72uFe+98RnkVSVAQ4LmUEmttLXfOvUCGOYT7uVr1hHyJyeSfNpYBHpl+UI5ZR2Qed00aYRFGnJ2zE2WOyi/DtGIlW1nGxz1mEoVOZt35kyAmBomhxIHkwtc4EeD2e54BlELQgINunuKpYyfZAok+67J5ziaAfkJ0JCgwTZPlusz6x7UDDlcK17n6zc4piEXhS+ZMysf50NOZEiYSzKvATHUcjA3aLYpS/nlgJtL5ky1Na/Wrm6aNDY/bd4O7TekwF3QrKtFFISxxpwFyGVd+cAs8GCDj1OsvzkECqx8YEYgcooKejJFVuHvFgU+zvDAGlQg/wX+DjryZ21nG1TWUw9KkVWg3wuQr2vtaqPDACpG5rX/GrJjAiEc3RN8cVB+HYXWMDkUZ1NbeSG8SLChgiyk66l22aGPkPJeiHDhVwqRFvVrxNJP4SNgu5tScQ2TE8goBAQNVPH7ItXFMjnMw0G0SpPnd7Vhoy/qr5QQuNMtAD/ItPzyc1cvk+kRtJUXzl29TA1VycoEAQ1cKpYyB+XX/WEc4wErR9S3qTEN+T6JctgtAComV08CiRIEmkA378r5MddLn8+HU6ddqcMX/tC9BxpNn71r8jm1QfGFazHGr7/3QBPjBko8jt0CCdAkcliG3AIJ0ITcZOxf3pd2Zs+AJkmmO93Yec06Qu69fWnaipP33QOgEUsZSIRpc7o1ffbpJQ+ZnCdO2vGLqkYQ0EBMtqyrRRfL5PnlsuzSgqCczag33+nGTufrN2hgkmS6M7e60Ok46o/7AgWm5ZefUhSDii+WyU8pinlW9gLuPcGe1vdFKnANhLVg/HtDm+snLcRsoQ/Cx+fe7YW1mQMFBkX3MPpafIE6juIrp+WXk5tFqGKI1RgIOtyWhiRZQpzZysf5hiGF2poHO588qVSj+EooKkNvGZh1gUeEZ2393vhMhDGkUfKXXPi+6FO0aAwlXGtXk0GEb2hzOXcYOUAjljLgEQj75hanpXe1F4iVBq+hZ7nH6DAAdLSVF9hgBMKKZ219wr18b3wGvGpsTnfka7jHtS3nTdZArMEvWf2B3t2f2Cb3bm/u3d7zJiu19Qv+e8C8vjNnIlUM5Gv0fiF99uBBHKDBLB21djXIYnM2OxY6YPdcpcmjamMenYJMT+dN1uklz6GS2tSim87XbxK2IZBqd+48kCzNo1Mbm5tkBiHIBlfD5KiteZAQma3iRysPIZtGDZNDmQYaNMjyNQwpMCsm5QsI9MqOhQ5Oty4ky2XoLegij7TcMBroUEkt5J+h/rJ9RMIQvr9vkbb2Q6obMguLSPIpMYKy7Sy4dZLZNNA/E2i54O5JJdqhQQO0XBTXs9zDw9kEJGorL5DGBkFzXNuCKXQiAU2G3gKZruBv1+Rz78Z7n88XOa9gfyNGJGE4QQPxIi6ZM4GoVLVaxVYxmSsZfO5IEi0NGvCroCgsIdFya4Yc6B2HYBpzvSTNY3jaOlBgKGwfdL5+M+Z6ed5kjXyQFF414vwuTZ9d02eXtvaDQ77N6Za29pOTTaTlYnQHHgpL1WpVEFruQfl1cNITSJbrWe4BQgJJlkOgkI3LeZK8gL98WNWgfzLmWVtvdzzL0FsilMbzrEMltYdVDYdVDWnKevIpqUU34TwiFVKbwMnDqgYyPgGP/Bh8dbqxExLhkH/1T8aw5kDLrXycLxA0McqWG92mOW+yftjaWnz77pp15LzJigfpKR2tJ7Y7nnnW1hffvlt8+27M9RIaOkNvwZOLb99BCrST1a2QJB2oF7GMMh/hy+4yLVe3omNbGnilw6oGTZ8dwl5E6PuSWffAPDrFPiLv79it3+54hn3rwKwLqFWZdQ+mlzyA0cy6B+DufljVoOgehpR/6WVNFLeILXkXz4ilDGkI/SmcYN6E5CT+7glGripNHr7CZ2MasZRBWi5KtDgtFP2OpOXCBIqcypORQSC0jPP1G4G8AqzWbhXaHc8GZl01Qw4IaALhKcTS7XR5FGEPakjmidytOgd6LlJYnK/fuFa8aJijT8sFiaWd2ffn22AmdmfOxAYN8KmMDgPQcskthWvWEevUC4S2WMpk1j3Y2Nyk4oMEelX2eUi/S51PluvJMQf1bdgf2x3P/DmMgUdMWrJkuX7Cvcw2J3EIGiDLwRzT5nSzyXJIyzU6DEjLpeY6FqcFs+XC7Im0C59ZGpGEwfmY0WFAOjd7nQZIlrC+R9FyzaNT00uegVkXefgjAYS9uFfYPshOx3JvfGYnrBd0T2dudU24l6leFcjFlE97HIJG0T0MSdE1ffb0siY2LTdJpoM5cmlntsVp4aHl3p9vg6mTtvIC2Ro0aHAP4Yolq2nSWL5Qjv0ULgRpPVqL01L5OB+S71L+60bbhP7JGKQHw7+uFW/YoPFHMTLaJtLLmsgD8qmGbVEC3QigEUsZmKnCZRheNLPuweLbd2hERRImDkEDu9BnbnWByWQHABBJGDQ2lY/zIbEtahmmVFqPtnyhHPeLSDPDvcudIquAAfYVS1atXU2mUi1fKC+dLzXNmAAxNUwObGhB1wN/D5XU4uwOdXNY1RB2b6LoHvZuvHeteMljY3NzJxb3cCB8XNuCGX7P3OoamHXBevSY6yUm345b0GCzi6XMcW3LNevIwKwLxzTgwpBdWgDLK2prHuRELl8oxwOY1zD2YKe3pS0NPO+g/Drg5pI5s7Qz2zCkAMJmrV1d+TgfN7oRgIXtg4ru4a7J52EjA9+TXQgaaoR9S9hnyA1RaWs/DGuS5fpr1pF74zP3xmdqhhykpUlT1kcYJSnsqkZ4I3YpCB3Y4gYVI/P6YpmcrVNu0PgjhqTIKgCM4GMBnE30t1Bp8jDc46GS2q7J5x+2tibcyzvx6z9zq4utmGvWEUwZH2Hzfcm3n1IUk/RZMC2gZZ6EyAFBA00JnE10xbqhzc0vl50oVlLo88daOqK+bbRNUOe/ZH3slXdPkVWcUhQXqyWAnhva3GK1hJ95HQQ0+OZi6bbtSWACG2T/FYSrWChodrGNwKsLlvbxb8Kq7aJG9gBokmS6NGU9dYy5XlJLJrvYiF/ao/cAaDhVQuZG4LyA8+SvS6qDHuTUlFMIdVIsZYLK/HVJNXsZgpKzhz7uSdCIpQzuJobU1qOjo+PB/pkHbD9ZuoUfhgfWYCK3v9+J9euQ3j2KF+8B0Jxu7PRuvKeO8DzVbTbbqLB/QnAAEBQmbxRjkUZRebslag+ARixlUotukkeoPQg2rnDQCISCwMvsdnsCNHuVNL9boBkdHf2CuifIo3qxTK7S5Kk0efnlsqyrRRShAX/HO1oAB2HwWg97UCnQMLAvGx4e7unp6evrs9vt7G+DnrHb7T9Zune0fcIWDszrc1cvF6slKk1esVpy7upl/pzIAbsnsXR7L5SM34d7CDVMjt/thvShCbvGQm4USxng4fq3bc+brNapF4tv37E3FoSICqpd6oKenp7MzMyjR48e+89/R48e/eGHH3Q6HXVl0I/xCZqvC8vAkY9ULpTJnSKqbblBkyKrAG8sajcLggjDDoW28gJuP1FCo/sRvFtIYqWfaom+uiE9K6hqyQukUunRo0e/+eabdNa/Y8eO/fDDD/39/eT1POU4tDRUQmSIFo1xhHFP+pSimL0NwAEasZQBUjiEQYfEmEjLfbTy0DxdB7ugN7S5nLgBX7tkuT69rOlkdWuyXB92hyKSbJsZ14q376mTPDxr62FsjvLolfoqKyvr6NGjLLT87cQ333xz9OjRvr4+6sZAH2NmaU5WtwKNUCxlcu/2AqMFHZ/xN4YptNXWvPvzbahfKPQs94D7FWdQeg7QAF8OyFQggs3Z7F7qApdy/14mu58yj05B6kRI2wo5FMN291R0D4OfHjh1w1+b071zoLl0+fJ33333N4AEKAFufv7550BAwfOxtDSYw/K4tsX5+s0168g164hnbZ306MD8ypWP89kJkUHdvau9QF6pYXJIphyHExayfGvtah5aLtDywN6QpCcEMhRy7/byp8ajruf8mFp0k3xhuOawqiEM64Va5Cn8+c9/DgASjtPffffdpcuXeaThVzGzNAga0quQpOWKpQyMY0o7sx+tPET2E+nUCyeRzk0x9mlLAz40JC2XTKIKZUylCuQG/5Y6aWySZDpcU5G29kcOGk4khXcSVchT+PHHHznHMRyQ+c9TPNLgqxhbGuvUC+APIRuLBA1mZ7ozZwJwdC913Z9vIw82LZeMOfIZaMRShpOWy2YjgL9wz3IPjJhIiYruYcg3BH+NtonwFIx3+T12M/QWaWs/2hsIqIYf8cqghaDaHR0dDRUx6enp7R0dQSXHzNKcbuxUdA/DAUOZ9LImz9o6Gma0C9iT8POeYHCTXVqAzfsZaJCWCxgEe8XDewqawxIfE0khQ29xvn5TM+SYXvKA0+uY6+WY6+UOgearr776Twsi9P+Kigp+0MTS0rCbOrXoJukRAH1TqLTcgGQ5GNBcMmcKBw14mJNJm9mVjvAM+ggDlxsWadjzQCFP4VctfBsGaIQMa2JmaYK2A/hhCgdNkGy5aGkEBgDgoeUmy/XnTdaoePKSoKkZcoS98SSSYCFfjwAAIABJREFUMDsEmuvXr/NL3l1LkyzXH9e24M9sp2i5hiEFEmF4uqf7823sMY1Yuh0WBXKfavrsi2/fDcy6InECV3QPQzDYjc1N/ZMxWHjQ9NnjpHv66quv2tra+EEzOjoae0sDsdOQaok/NhjTXLFkIRmSZ0yjW9FBHLWAYxqRhAGJJC3X4rRQnE3Mlss5eypsHxxzvUSUQMJc78Z7rHRQ+0ldkKG3wGID9XeHQPPHP/5R6FgmPf2bb75JTU0NulQTS0uTXtak6bNPuJe9G+/vjc/YnG6KTYyzJ6PDoPVoIVsupWKk5VqcFlhYIec6nw2ERRLm68Iy2DqotasRieQMHuZNQMsFcdSAxjw6ZXO6jbYJ8vBuvA+bYUlhKJKPQe3B6OhoX19famqqcNz88Y9/FCI2ZpbGH5nRs7a+sblZM+Q4Wd1qtE1QoBFLGRjWKNvO3pkzAW4oFfcs90BCZDAz6oqL2LtxLO6hsbliyTI6DEjLhQk98P41rzR35j6RLP1TdHKRBrLl3hufgUhM+Nezth5F0ECOcpxDCoeREO3a7fYff/xR4HA4NTV1eHg4qNhYWhogUAKxEnJjQeAwUutgbCDgyJ05k+aVBkYjqGVgXuNOAmlmuEGTJNNBsCSSlouEzdL50qZJI1D/b2hzqQVmkWQ75Ty74zhZ3UoyyIWrmbySzFEeXrjQoNqFC2w22w8//BAUN6mpqRaLRaDMmFkassVEku3INOdNVvPoFPUbg80iCAlrdBggJzJoGZnXsDPNXvGnuyfAaYqsAnBTw+Qo284ahhTA2STjT3MihqpxVD6mFt2UtvYPzLo2NjcHZl3WqRf3xmfI343wpwhU8OjoqM1my8zMDNRPffXxn5DxLzwxxpZGYIMgbpB8vR3S9fMQ42zEcFsaeCSkUiU5m6TLRX65LGauWBCrwefzmUenMuseRLI1IRw0o6OjP//8s9FoPHr0aOrHfwCU1NTUr776SiqV/vnPfw5J2m5ZGn4ABcpksN1zVVykeiUUxWFp8DuRZDvf6SlFcX65TFt5QVt5QaXJC+rWRd4erTIMYmDu/WFry/n6DaZKCOkRIakZLv7555/7+vpaWloMBoPRaOzp6REyiKEeFJ+WBnoV8La7WCZXV1y8oc1VV1y8WCZnM6/Jdg4CGvLSOCmnFt2ETpp0yxJYt6BzY0rZ1Ef7x3/USYEf2R4tAusch5ftPdBE0oi75VieYCPsVSqCSMLsFmhGRxO8J8lexQ0wCvp4/7W0tPypMbSDV972l/39/RnqxkhsZFzd+2V1T78uqT6sauD/+7ftjh/V2xP7YH9TZBVBZf66pJqKTBhXIAi1Ml8QaMRSBlZ3INBOoL9wDV4MBfIkWYYJCAArkMAUWUWSTAd3haqe+Lz+CwLNzilgPwFCSCslQLNXx2dCtLtD1wQBzUH59ayrRRCQDVZ+sksL2PtNO1S5hNgYtECSTHeiWAnrtzVMjrbyAoRV5NkrDAga/m2EYrUkZtsIMWi4L/MRYinzfZEqEPNaW3nh+yIVZ8/LDRpyw/KKJYuMI6y25sHmZ6BUqse1LbjLfbqxs7B9sLB9cD8F2tgfCCMTIqOK78yZzNN1tXY1eDHUMDnnrl5m44YDNCmyCnAjBdcIYOCRtE2L04JC2V0VpiM8or69+PYdpKryrK0nUk7GHm2cuUigGpBfDhIiU8xrg9cANDnw5aWc7Lh3udGHdDvWudeAjjlYAKHAQ+B0woKQDtFKfBr7tt7rT5S29oPb5MCsa8K9bLRN1Aw5SH8a9PistasD0XIfrTy0OC1sH3AO0KC7p9FhQDIV5QsI6OlZ7gF7Q7ocg+deu+NZYftgzZAjKtly97oKY1//k9Wt4DMJPsL+HJa5d3txYIvunmprHtByKf3CR8iWC3TuIO6e6FiO4joWOkjC5v35NkzHggRx0uPzzK0u/ZMxOCD3xKGS2kgcy2Pf6PvmiZgtl3wjNDMWpwVSenHSckHLj1YegmkgfWs+G9NgZjmj41Ov1LPcw0Nh4aTlkvWD8qGS2jAiPLDlJM4IaQFI2gPZG8dcLyEvN3kjZpbDnoSHwoLZcsmsXp+BBslywhmWgXJYkrVMlGPZAv75B+aGPW+yIpcI6xDXtNwDBYb0sib2hA1rnyjsSguESsvFYQ3WltvSCKTldi91QYdHuR8fVjUYbROQ2cv5+s15kxVHYfjgRCGWLUBGlIo+LRfWByOh5UIWa/2TsUMltWLpdsI+fx4Dm9OdMDmxRIlIwiTJdCerW/VPxqaXPItv36HLBy6plC+Uw0CYPaa5M2dCViSsrZBz5M8sjUjCwJqPsu0sZssNRMvVerRApqKCGsGqgH+Rhjw8a+thuPTGuJX3x+PAh7rd8cy78X7CvTy95NH02clfLM6eau1qrUcLQc0sTgt5gPaBRwtLNeQqLg0aDJ9mGFLw0HK1Hq1pxsQZPs08OuV8/cbmdJNHJNly94cuY/YWmC33mnUkTVnPzpaL4dOUbWdNM9u0XLA35GoNUGkxvW2Q8GkiCYOBGoGWC0JxOVi3ogNaLoxm2IEac+/2kiF0oLE0fXayW41ZC36ZDwJjc298BkjdXZPPKY3AEi7QK00zpvKFclLLoGKL0wJE7homh4rhSlsacEUjQ8KaZkwkZ/POnMnoMICNuaHNhb3u3Lu9qUU3Fd3DpBn8MhUWV2+dJNNl6C2aPrvN6cYxDdQQQ8Iq285CTmTQcul8KTCvYTFFaEhYGENh8Okrliy1NQ8Im9tpnDuzqeDT/rCMRtvE4tt3icRdcYWYoJVB3FwyZyrbzqqteZWP80kVcyKGY++JfBJPmHv/CBy3DpJkOgj1OzDrSvRBZAPGf/nrwjIk7ZO06xomp1gtoXolfB2O7gm/A5PzfZEqu7QAsi1cLJOfUhSzHeshOhcZo4sUkijHeQt8W6g6d/VyfrkMcqYA85qnzkFA88nbfs8SnXjePPFV2C0QHDRhi07cuF9bIAGaBBsh5BZIgCbkJtuv9kP4eyVAIww0P6p/dTZfeLPu7ysToBEAmh/V//fX3/zX/yc1gRv4MSRAEww0HxGT8vFfAjchgEYsZVJkFUBw39+Gl347AjH7HjegZSEbQUEszdeFZdmlBUjCu6HNBc6mENG0AvbcYg8LMfsSN8C8Bs8sTHmadbWIvYSLCg0IGjL3KcQwhy0nkKuuuEg6WKC4/VMIgJj9hBvIfUoGcCVVfEOby5n1NODe00H5dfAkhQiztXa1eboO9rcNQwoUfaJYGRQlSTIdHEGvjKMLeBGzP3AjljK4J40b3ffn2yxOi9FhwC3ui2Vydq/CYWlSZBWAmCuWLPN0Xe9qL8nJNXgN3Utd4AJYw+Tw4+Z0YyfmPj2saogjWPD0lQIQE8+4ydBbrFMvBmZd5tEpRffwwKxrYNalfzJG6R4Qc8mciSRLUsu9q7135j452ZHkFdAgDRoE4BVLFmTeRT4lcuSAlgseOje0uTydHyY+nV7yRDE3wg6CTzBi4hY398ZnNH128A52rXgz6x6crG6luPQnipUw5EAeLem8Bxo3eA0dCx3gOEWZBho0kHwX8yuTstAdEIQi946NRFTqHgNNiIiJT9wEzZabIquAmQ3kV+ZUMdIrgb9CMfZp0IDVIlm+FCf3/nwbZsu9M2eC8Q1pbE5Wt6aXNUECdwhJnyzXh5f/AsEXi0JYiIlD3AQFDZoZ5A50L3WRXuUWpwXJ149WHsL4hjQ2n4EmVFruo5WHbPOl6bOT2XKh7N14H9ehRiJATLzh5t74DERHT5LpsM2dr99gGexCaWe2QFoupIIj+5PPQBNG4tP9QMuNGDFxhZtDJbVkVBEw0odVDTgQjmtabiz6FJ5JkMCvooSYuMINf8vvFC0XokbAyJcnagTSck8piqmKHlHfNtomBmZdhe2DlB88deVufowqYuITN5DJvLB9EM0POAWrrXmY25bNsMQcllWrVdA9FaslqKnPuicMd0PScu/MmZqfNpNHx0IHjK4xWy65OpxadBMYN4ru4cy6B12Tzz1r6+dNVnxkvBR2ADHxg5vUopsQc8Sztu5a8Wr67AgaINFesWSRtNwGRz15IC1X69GyU69/BhpkyinbzmLEG1glJEfXMHtCWq628gL2lyIJo+mz3xufIa3LcW2Ld+M9Rm+MC9DsGGJ2HTeZdQ9sTvfG5mbfU6e0tR+ikpFtjqsqJC2XmiNjQmTTjCk4Lfeg/DpsRhiGFJD1FJdnsFC1WqX1aJufNoM4qm8yj04tvn034V4mj/ii5e4wYnYXNyerWyEX95jr5TXrSNfkc3a2XMxR2vy0mZN8jbRcmOgUqyWkXaAtjUjCAIcKFpgtTguVSlXr0ZYvlDc/bQZaLsXyFUkYo21C0T18RH2bPJyv38RLAICYIGZ3cSOSMMlyPSwK+7PwedbWjbYJ7J5EEiYtvxxMg7LtbNOkEWi5mDBX69GSCZGRR4vmigM0mGUZ4oU2TRrvzH1i5pbOl96ZM9Xa1WBjtJUXYFnvdGNnslx/5laXWMocKDBANBpMRSGWMqlFN0mo4uNjXYghYnYdN9i26WVNZKBGOI9ZliGIMJCvgZMLO9NgFGqYHDLaHtzLDRoyMjFsdANhU23NA7jUMDkqTR4g5kCBQdNnhyA08WJOOOfbMUdM/OAGAUQWvi9Sgb25ZM4ELauteWprnrLtLCz0B4ovzg0aEP1toYr0zUHa5g1tbtbVIgxuRYImfncldwkxcY6bg/Lr6CCB+oXCxTI5uTtEoo0PNECv/LqwLOtq0cUy+cUy+bmrl/07F8jiRkFk94Qn46iwq4iJc9xgTuTs0oKLZfLs0gJO5jWpzSCgIS/dq+U4QEz84yYk5e530MQNYlJSUn71q1/tDz7DvgZNPCEGjE1KSso+wM3+BU1cImZ/2Jt9Cpp4Rcz+sDf7ETRxj5i9bm/2HWj2AmL2ur0RBJptx8H8cr9fX7wzc/cUYuLK3oilzEH59bT88oPy60E3fPhAA4kx88tlJAlPXXHRH2iYvb4X0kR/Ry7ea4iJE3uTll+eXVpAqviGNje7tIAnsW1A0ByUXyfjPsL2BHIrb2hzTxQrg0JyR8ART/tKqPhICru1fkPuMCLzGlUcKOtpQFru14VlQI25ZM5UW/OMDgPQGsgt7homJ+tqUVzgZs/aGBJqMV6/IRMil3ZmGx0GICd1L3Vt5y4dUsAOlN9wsHsVDktzUH4dEKNsOwu5T0nCpsFr6FnuQaGUB5ZIwuifjDlfv4H0CLHw1tsXiIni+Caz7sH0ksf5+o0/+Qp62d4bnyFDPIulDAalNzq2c+NSKn608vD+fBt4R+SXyyjTQINGLGWgV1K2ne1Y6MBsuaTbHqTEhBQsNUwO1fmZR6euWUfSy5r0T8bGXC9J35/o91b7BTFociK3N/fGZxTdw+kffWgGZl3Q5q4VL8mlRz8783RdIBUDaR94bZRpoEGDeV0gIyE/ZxN8AfPLZSQaMC+3WMqAh7lrxet8/YZEOnl9+OV9h5io2JugDMsUWQUMe7dTF3xMoY0WgSxUrVYZvNvDkhomx3892UnRoAGrtZ0M4T/FBXIsr1qtsjgtbFouggY8Kw6rGtLLmpDeFz5EqPHvfkRMVOxNUNCwabkdCx0kcYCi5QIbISAt158wHjAoMFsuJy3XaJtodzyLGjgorMDHfY2YCO2NeXQKaLlpyno/eWjx7bvFt+8+bG1h9wR2obQzG+OBCOE9RZOWCzAkc1gmy/UkfyX66NnviInQ3iTL9ThuPVBgSFPWw4GellFmWIbN5T539XL0wfFF2hhETIT2hkcdUQaNP4QnxrrBIXB4tNzUopuF7YM1Q47MugcIfJ43EfTVF2NjSOhEOJ86UGA4c6urZsiB01iYHZd2Zguk5cI0OTgtt/JxPqY2NM2YSMJmg6Meabk4ECZpuUky3TXrCHBtCtsHp5c8Y66XJ6tbBcGC07p8GeMYEihkOYz1YrGUOaK+Xdg+aHO6P2xtTbiXpa392D1hukmSREup2DTzKVsuhsojRyD07AkkXrFk3Zkz6VZ0Pcs9HQsdFGcTaLmaVxpY4lNXXCRtiaJ72OZ047BLLGXOm6zejfcRDXS+SBtDQke4vTlvsrpWvBubm0bbRGbdA/PoFMWwhASWl8yZZG7bjoUO8gAV61Z0SMslE4bRoMFJfOXjfIvTghaMmsFrXmmaJo3AgSInYyIJYx6dGnO9bHc8Iw/vxvvw2S1fPGJCGt8cUd+GRfnFt+/Mo1M2p5sCjUjyKa7nFUtWg6M+EC1X69FanBZYiiOnTtx7TzCPr2FyDEOKO3MmzSsNplLVreiAlts0aYS1QvYas3l0ymibOHOrizwW374LEzQJxBAGR7i9EUmY9LKmwvbBgVnXxubmwKyLtPTI2Fe2nW1w1JcvlIOWdSs6VLFpxgSIYcfipC0NrMhBJwUpeI0OA9BygZNrmtnezQIb46fSkQuFMGo5rGqgFn+hi8U+NYTBTQIxBGJCsjdkIx8oMJysbiWHECIJ823h3+iVlY/zmyaNwMktnS81zWwzr8Eo3NDmkgNWEMsBGsANO5Wq2ppX2pmNtFz/GhEbMWRdIy0nEPM5YvBTSPaGRwvoywBTZmXb2dLObOTk1jA52soL5FAGRXGDBr5Oyy+H1UOKsKmuuLjjzjQJxCBGWIUw5lOob6qQIqs4d/Uy6YEFur6hzfXHPgpkFPhAAw84KL9+oliZdbXo3NXLpxTF3xaqKENH1SMKHxOIYQGFfSJa9kYk2U6x832RClScdbXIv2kdCC6g3OCgiQIIeFZf2F8lEMMGSIAz/9f/+/tYa+ejvuIONMlHMwI0UeL0Zy2wW4jhnnLvCnjxoeJ//em/ph3+rHkSH1gtsIuIiUfQbM/dErhhoYQ8sbuIiVPQJHBDQoQq7zpi4hc0CdxQWIGP8YCYuAZNAjcUbuIEMYJAA4TNbwtV3xepvi4s2/FFms8n4YnxTWxsTIqsAlTsD03Nv0gTBDRJMt0pRTE4euGicFDOJs6DolVI4GbnbIxYur0JxV73zy+X8aziBlyn+bqwDOGCnFzkbPKkUo0WVkg5XzJudg4xZEJkUPEVSxYUwEb4A39yWh1u0OAWKEQmvjNn6l7q6l7quj/fZnQYMCxxdmkBT28lljK5d3s1fXZNnx3840kchFr+MnETIWIOFBgy9JYMveW4toXS1EH5dYj3CyHGIYNG72ovcCsxvjhGiyb1xQGarwvLYAertDMbcp+yOZu1djVYHdILEORm6C3XrCPXrCM1Qw7XihfKnrV19OUjHx9S+UvDTYSIEUkYP2JsTjfk1yCpZ0kyHSCGTIgMjBbgyD1aedi91AX+NCpNHuXWQoNGLGVAXGlndvdSF1Lm0HMPU6lCGqAaJofytzCPTnVNPr9mHQG3MYBFtLLlfjm4CRsxR9S3T1a3Usfi23fkjxbdhIGrjwQo0DKip2e5B3oVyjTQoKHod8hJQNCg3EcrD4H0RKXoMI9OWadeQAIfm9MdXdB8IfPwsBEjkmxToaeXPGBg8O/G5iaC5qD8OgxZau1qtlFARQN07s+3wcVk9HIaNMBvqHycj+J4aLn359ugkyJjAGToLYruYUX3sKbPvvj2HYxpqLzQIfVK7Iv3t72JBDEAGgwWgU1HBgBA9j8kdQLuwJ05E3lgZjk0DWQMgM9Ag7wn83Qdmiwe3hOaL1IiVlQsZc7c6ipsHyxsH8yse4Dno1LYr7iJEDEiyfbk47i2hWpk/ZMx9BGGCbbamocqFkLLJcM8fAaaMBiW7Fx1VHV37uP+w03kiBHS2lFmWIYBGhhgc9Jy05T1GXoLEvuEvE+o1+wn3OwoYsj5dpRBg91ThNlyj6hvtzueedbWx1wvF9++29GEufsDNzuEmMOqBmlrv3XqhWdtHbsnpOUiiZa/ewJabsDuSST5NN8WSMu9M2eCgTDps55Z98Czto5AOa5t6Zp8Pr3koeb6oRoVnuv3Om6ii5gkmQ4SEU4veSBVrtE2QZKKyPk2zI7vz7dRtNzmp82QELljoQM6E3LW/dmYBhNYXrFkmWa2ablVq1XdS10kYROJ3Pfn22BAo9LkkRo12iYgRApJlvOsrYdJlvt8/5J8EFneu7iJLmIgW7HP59vY3LxmHTlQYKgZclAMSxyEkLRcnGljAdLbNk0a2RNkGjQpsgqI0qi25nHScmHIrXmlMToMII7KcWgenZpwL3dNPiePGGTL3Yu4iTpittexPrL/gVHv3XjvWVs3j06Ry8GYo/SKJcvoMHDmRAbEbJMkO7NrmJzs0gLyJ0qDBrh3sJ5T+Tj/zpwJU6kCYVPzSmNxWowOA7DmLpbJyUGWSLI9zWZP+RTdw6SFJGsQxfLews1OIIZqTEzp7lrx4pgGOCswHAbclM6XAi1X69FCqlwyIbL/SmrbkgM02EnVMDnKtrO1drVp5m8rP02TxsrH+WBjitWSnRupUO8v8ONewU0MEMPfYmn55VSoaNRy06QRmdfaygvkyi3I5AaNSMJgKlWSswlb52CHsksL4g0x8Erxj5tdRww0VFp+OewzYrjyK5YsUsUqTR4bMUGcsA7Kr1NR8wEuxWoJj4cOP8Bj82084yZOEPPpByZl2H52NUyOuuLiKUUxNfBA3QW0NHgFOAKeUhSfUhSfKFaSG1d4TRwW4hM3cYUY1JpYynxdWHaiWAkqDurUGxw0KHrPFeINN/GJmDDUup9BE1d+FPsGMUHGNGFgMA5viQd7s58Q80WAZtftzT5DzJcCml3Ezf5DzBcEml3Bzb5EzJcFmhjjZr8iRhBocBJ/olgZNLBWHA6EqSrFZly85xCTll9+olgJB+cqMNmMfFPuFFlF1tUidhQ/4GySUvZWeadxs4cQI5YyJ4qVsHkJy/3wlz8WZ0DQfF+kgg0tcmOC5Gyeu3o50DJz/GNo53CzhxBDJkS+ZM68YsmiQsIWqyWcGwDcoMGg5VcsWbV29f35tkcrD3tXe3uWe8zTdWprHuxys8OVQ6Ds8yYrdZy51RVvu5s7gZs4QUxq0c1DJbXkwfbUJne5DUOK+/Ntvau9cPQs9xgdBgg+LXSX2x9s4pONsuYByRI4UEDYNHgNvau95uk6wA2bzg25Ebomn3/Y2ro3PgOHZ209vawp3ixQdHETJ4gpbB8E3yvP2joeztdvSNykyCqgS1K2nbU4LUC7Bvc6+As5kcEzM7g/TZJMB+LU1rxHKw+RGkN6AQJ6EDdsz73cu72pRTe9G+8RJQcKDPHZl0ULN3GCGCFkOdJzD7j6bB4t6P3RykNwEA7iuQf0uyuWrPvzbWzEkNDZTub8MeU35SMMiU8p0CB64rAQOW7iBzFCQIM+wiQtF6KC4F/wKq9arepY6IAuhZxS0WMa8MoxDCkQMRanhSRsQtgREIq0XJKNYB6dghxDpKWJQ6yQVYoEN3GFGABNYfvgYVUDeZABADClFyR1AlquacZEHkjL7VnuAdMQkI2AvCeg5YJdCZWWe7qx08+ZMNomrllHSMXEeTk83MQbYkQS5nRjp/P1G9eKlzy6Jp/j8OCLpuVGHYWh4iYOESOkTWDMWvk4HzsTfrLcnTkT+PKh8M+6J+zt7syZcHDEY2mqVqt4aLlJMl0MGAj4JlEpCMfNHkWMSMKEChrzdB0faLB7EpjMvXupC2bzVNSI1KKbmj47zPfGXC9PN3aibYyKandUiBDc7BXEJMv1J6tba4YcE+5lpLBA91TamR01Wi7Gp0GJzU+bKc4mxDWpWq0yzXyi5ZJD6+PaFkiVe1jVANFGppc8fU+d+wY38Y+YNGV97t3ersnn3o333o337Y5nJL0V49OYZj71Jx0LHZSKMVsu0nJJu/BZ9ySSbO9EwL5B89NmzqynMDquWq1CWi4VCctom6gZchxR38YDYBSHi3s8FiuQvYl/xFyzjiAt91BJLZuWi5GwKh/nly+U4zgE11NQxVqPFoPkkfsJNGjImHsWpwXtDUqsWq3SrejKF8oxViM75t7i23fTSx7y+LC1RYKdR1vx8xUbN/GPGPBbOHOry79a5llbn17yOF+/0T8Zo/Zw/FnjwDTU2tVAy6WgU7VapXmlMc2YYPhBhZKhQSOSbLMZcBvBNLNNy6U4mxanBUOGUuJEEqawfZCdut1omzhUUhs/gBBYExI3ewIx5HuJpcxxbcs168iY6yUZagRouRjds9auLp0vRS1rXmk0rzSl86WYENl/pSBaLtIrIY5w06QR1/eMDgPMmGqYHCRyF7YPHlHfNtom9tDAhWxfnjLgZs8hhnojHAXj+YPy6zCNumTOLO3MrrWrQcumGZPRYUDmtbriItkxwe0clga+oCKWU4TNGiYn62oRQORQSS1sT064l6MeWw9fcjcLP6p38+nCgq2EUcMUWQUGuCeD0sO+QQ2T4/+WsjHwlICgASPGydm8WCYnp0vQJSm6h8llxzDeIXHLrrTA90UqmDKTTljFagm1D03WjQ80cJ1YyqTll39ftJ2FJVCKDhiv7MVRC9kWX3L5oPw6ZmFh90dUywQHDXVD4uM+bgGBQ9IEaJh9DIIderUEaBKgCbkFEqAJucl26Oe7h8QmQJMATcgtkABNyE22h0zCDlU1AZoEaEJugeCgOSi/fqJYmXW1KOtq0SlFMekOzAnkAwWG8yZr7t1e8sjQWzgv5jmZobeQKWiuWUcwGO55kxWDFEOIZVJOZt0D8kbyq9iUk+V6yJQGlTSPTuEO/3Fty73xGaw8ZmmEKNF4HrcYk2Q6UlTX5POgr3bmVleoe8NJMt23hapTimJQ8beFKmqDk2o3PtCk5Zf7U1+SC4VQVmnyThQrKUH4Uf9kzOZ0g3s5/vWsrYe69AdLzCh28e072Ac9UGD4sLWlfzIGWaUm3MuaPjteJpIwfU+dztdvBC45kDdGqyyWMtLWfqgeBIE22iZA+MCsq2vyOXxVM+RA3/vcu73O12/wFs/aOmwuSC+4AAAeoElEQVTIpBbd9Pl8mj47fDUw62p3POOv573xmfMma7Jcr+ge5r8SFv05mdc3tLl+/3POPQS+AAAnipXA4oZdCWXb2dLObDJeaKCNCaCwUNUNIx1hINCIpcyY62W74xnAIr2sifxhHSgwbGxu+nw+/HFTNYn9R02f3Tw6Bc+1Od3S1n4oH1Hf/rC1BWVpaz9m4RNJmOklDxghAA16zV6zjggETZqyfvHtO/6XpbYXSzuzKx/nq615EFYcXDw5OxZuSwPOXRB82jxdt81j8BqAW7lNrxpSwJ4We9NcJGF2GjQiCXNY1QA5O9iNcrqxE7K/UAkB2FfG7EzkoMGsgq4Vb7RAg+ltgXndvdTVu9oLKn608hAD3N/Q5rJxwwEafzwR6IYqH+cDXMBtHf4avAYQCngkM7qAGmqGHPfGZ6St/eQRRrbcQJYGnpJZ9+DD1hZ7qATpPBTdwwOzrpjBgv0g6JVA2ZCTEa4J1dKIpcx5kxVb0jr1QghoxlwvB2ZdG5ubOEi6Nz5D0nIPyq9DdAdl21lMiMzWMjCetJUXqN0oGjSYUKPycT4nLRdocgavweK0AG6o8c1hVYP+yRhQn/Av2mR2+wY6ww8akYS5Zh1ZfPuOHCr5m3jx7TsYCX7Y2mI7kQR6VnTPHyqp9fl80tZ+mAqcudWFCgsVNFTFhHRPx7Utpxs7qSOz7gE5yIOh6hVLVsdCByYrRedMpFdiAsuLZXKyJjRokJaL9DtSFpaBzg3po9QVF8kKkdIjKQcFjT/diHXqhc3pxqH+EfVtn883veSZcC/7fL7TjZ2RVCDse9OU9T6fDwcipJwYgIZ8HGcZiUok5wQJuVgAw9O91AWmgXSG+Qw06CBM0XJJwqZpxoQpn5Doy+72oLpJMh24l6eXNYUKrML2QexikmQ6z9o6zp6sUy/gt5tadNO14kUzpuj+/9u7vp+mzv//+Q8IMfFCb8wSL7xxF00YJiTDC8PMohde9GLhYtnSLCzKRigffg9LRBgFpLVdLCiUqcDWCAPUtJ+PXWXCGtOSpgEHuK5fQm2dKKBEozNb/MLe2/vz5nnOOT2n51CL60nTPOc5z3nO6fN+9f38er/e78mpxV8hzpRndgHnLIJtt3WZrxc0BzsHqfaFn6k/P4J/rUyk5VJhFNlcYF7++x9/KJ3OHDBfevHy5eLKWvTR4/tPnmLwmR0VVsiJPnocffR43a3GiW9vwENv3l3E8a/+/Mjiyhp9mbSlATTw5vCS+FZO//Tys+eQCeb38FZHzw29ePkS8qOPHgva4cMPvxKal/4hMOVmytAQy2ByJT9aLpDlGszlWOcmTYOKSz7Dko+Wu6/xApJXMLG4skYnxvh46cS+xgvQN+vPj1Btv6feoT8/ApcOdg6iDjtgvoTjmB0VVj7slPTjtLq6s9LGDClwWXJnpQ3ffJ30Tn8UHYuItdXRc0MYk13sbRE0e+odaOFPQaOIYWldscql5cp0AIC0XOpSYCA4+2ZQWMSkkuH5CJqj54awf08ZNGdXzyah5e6osMJkuztghnGQ+6Fbgss9lhgDXgydQGm1TpPhssnY1wPXY+uh/Jz+aVxlXnvxG6ooMCZvHP4ISW0SDgCsK9bk0XKhRrOnrH2pHQhU/fP9DGcTaLnWFatgVMz1xU1++aRrIsyPzjK23bf1i33S72n3BvgPdoVIy+2bcVpXrOCfpm/GST/fRPrRBRGEsZSi5cLKXu2Avm/GiUjEmTYmgJYLBCh+fW9bN/ob//K7Kjpgg8jsKROMegpShtinQMtdL0/3oTYNhDd8ehstMLpuHP6of74f9A3lbFJaLvRlYvPtN771M/YH7j3ZzcxVwRkDvjCG5rZPmCCwLS/i9qX2vhknLNLQMavwhuW+qlZAYvPVkr4ZJ4RSBWZu+1J7a6L1m0g/bj9RrYXvBM4i/NH44sqa0z+NvSk4jLWPeFL7/Lt3EB/x5iV2VtpSaxa4Cxtk3TLk/pOn0UePYfN/X+OFK6H5xZU1XJWmqqF2QG+fMEFMZCDkoojRKyzj4EEYNEDnBtx84So+832VM2yH9b2+GecG9ffPWM1dluNI5DYO+fae7P7S82OucWM3cTr+cGrxV/35kf1NPe3ewNqL39B6ocjcG0z1GLjpx6aRn7Db7e9/aoQP9VXwdk0L5r//qZGueNJb3v/USDUzcwlf463KtmOmBqwwBe27u9qeasMEA4H/GYfARGR/U8/9J09N1yeXnz1v9wZwJQJfeFdFB3QptQP6xuGP7BMmZ9jeN+PsCV/oDpjRVfR6Gfrz4Xa2e8JK91W1QqXosZy6K/+q88R7DY2wQLL3ZDesWU0t/nr03JBtfMo2PoVrJznllr0nu5efPYe1CjWgsY948PXkJ2rr6gx/H+9/asQb361vKi0t/fuKgeLp41P/u8VgMNBWE6ttX1Wr0WjE2uiD8InSCa1AA1NuWGC8NvMLVfPMC+yq6ChproYxBpUy5qxfpb8dbxcFDSix9xoaETpQV+eZz4pP1dNtzx0V1prRHwaCs57Zhd3V9oHg7KtXr37/4w/6efXqFSxYqQFNappGTMzqQWMwGLAdGdBQCGIZ6YSGoGn3Bj78+hpsvBw9N3T03FCRzUX/xvRN3q5p+bylEjoWEPFXnSc+b6mUUJZSoMGqd1V0vF3T8nZNC8UKXs0ptxwwX1rfPoRv2/gU7OvurLThxx+NA+RTBk0oFMpYTQPM5QzRNF96fkT7G0zcvLtIxzRUdpCGn/B2Tcu+qlYxeOFdskCDpeUkBB+JmSmDJhgMbiNN8xq7JzkyUllGe9BIv5Aa0GSspskp3/CRQDXNa+yepNtfk6vbCTRZTSM2vaKzJ01gIV3JtgFNJo9peE2T7Z4Uk6kkcKqme9pGmibbPWUKaLbRmCaraV4zaBKJxOrmI5FIhEIhv98/OTl569atcRlHaWmpnjuKi4u5PLUZDocj6evcunVrcnLS7/ffvn17dnY2Eoncu3eP/sS7d++KDV8E85kxzc5K2+5qO9h30rRED6DoUpIxDYTKPWZqKGmuLmmuLj5V/259Es4mffzBzkFYKrh5dxFMI1LonlZXV9c2H6urqwmFR3FxsU72kZeXJ7ssW/Dy5csKX22j+NLDJfoTo9GoIDjEMilojEO+Fy9fvnj58v6Tp/5oHNJzD5Yl1mmAef3xqbrPWyo/PlX3XkOj2IIcCFcKNO/UCLjw67Ic7zzz2TFTAy69UJQw6Z2VtiKbq8jmQnPP1wWatrY2Y1oOr9f7ekGDlnsffn1tavFXEBO13KMyequyje4k4AZCl+V4SXO1GHSEQZNrtMDuOWxJfOEqNnvKznxf1Xy1BP2FioVSBW/HU4u/0s+Lly9T20YIBAKaaJoUBJnmW7TSNAgaMXNPBM07NU24ewA70/YJk33ChBvSX3WeEBzRC4Am12gBN+gbbF5P2TeR/o3Ig3/Scu1r9usPrqG7ckHPxAPB2XZv4GDnIP1oq2mWHi6lWaJpeJzmoDnYOYgkHl7TII+2cfijgbnzVMQ3Vm9g4Isuy3HeN6wAaDCmRnfADHUxhE37mv272DBYB/PGFk7/NLrDwC5s7sEymAUp7Z4ENU0WNMzgho5p2r0BJCGgUllngaG5J6wqockUBESmIgYm5I3VG2Ad/FXnCWo3ImBPg7aAG5pqzY7m5WjoibTc72LDYNbF2GHtqXfwY669J7sBQEpBEwwG+e4pCxoJ0CBQxBK5RgvalgOPlprtoa3n2dWzGNuWCcDOahqefoc8TUwgbgCJnWc+Q40i9qKYrxQ0/xxNQ/8bamZP2NRiCQiYUjugB6LS2dWz1x9cG0uM0Q+CCWm51FJiE2hyjX/FqmMoLGK0XKxRcLgExp1gk2UbnwLjMaWg+edoGq1AUzP6A7DZqe8wCiAYsH7hKoY/f9JouaAa0EqT7Z4gfBRiEDSVBO/J/dANhASmh8JX3Nd4oWb0h5rRH5afPddw9vTmdU/xeFwr0OypdxwwXyqyuZz+6bUXv3lmF6jbipzyv4gD8gOfpoOW+0m/p2sizHzW3z410AhqmjTMZdL/CLq+p1X3tLvabro++fsff9x/8hQHmopouckZlsjllknLta5YQdNQisNAcPZKaB4UDH5rq2nSL9E0PFFb0OQaLfrzI6Phn9de/HYlNE/nUxAezOwpw3CTEgxLBE1Texl2IOyYBmZizJjm4k8X6Ye6GlFKy9VkTJMGEab/EVqBxnR9Mvro8fKz59Pxh8YhH51pg9TBo1Hj8EdIopUAjXXFCv6wqF8jFjRQo9lT9l1sGGm5lLDZN+NEWm5P+AIsENP15gPmSzwD9+i5IVCPSkEjOHsSk2hbW1te5h0FBQW3bt0Se2eaj+t7arqn3dV2XUvfvsYLYlNaXIfrCV9AWi5VChd/uuiKuhhaLqXrbwJNTrllPaITbB04w3YxWi6QLF1RF/RNFIOowcQSSkGjaExTWlrK7h9mxrnMXUxNQCPW8piPS3FJabntS+24vke5LCxo6MrPxZ8uti+1Y88H0AOKryvqAq3FLxfiy+la+o6eG2JoWp/0e+h/S06aTiugWQXvisfjbwxoUpgeYrMfMF/qmgg7/dNfen788Otr4PYQnYVBMVQ2GztNsWZGOyDzuid8QdCtIguanHILdf3oDNsFOZvgy6jLchy0FnQ9OD4/2Dno/SkKW/PLz55/6fmR71nxRyZN/N/9B/gXlABNIpF4Y0DzpefHpM0iVmAgOLvOXTzx7Q1wFAT+Ihnn37lGC4xDagf0Z76v6p/vx4C5rYlWYF7jDiOGt8UnCoAG9iYwlKrZU9YdMPeEL/TNOJ1hu33CBIPfLstxXJ5Zp39CyPlco+WD3qv3nzw1DvkAQ7qWviuh+eijx+jzDZ8tM8GARsKYpq2tLTO6o01vkZ+fPz4+LqgdmUzUqWpAI3OXe0eFFTYTuizHYYu7O2B2hu2MiKtaK3jBCYMGHKADGMHGgnJywaQGNz/3nuweDf/86tWr6fjDD3qvwpT7k34PftY9o+KUWyZQaDH5oGFksO1O0wkaYNBSH/cYMBd5lhgQmYqDXRGm13KNG25H3qlpYjibDebyY6YGBn2m65NHzw1dCc3nGjc8lk8t/opRESCBi3v0ETLTWdDIbCgohppmd7UdvQ7yphFY51uVbcWn6qFjAbiYOz5nmNdYGBKimoaWyzVadlV0vFXZxmCFlsH0B71XYfEXc3LKNwJMMCNielU6nQWNdPswVw+YL/EjSAkuN94OIqazJLzEJGSBhrknzaf/HNDg+p6aMU0apJMFTQaNfLKg0Yz4ktU0aVAeih6x/TRNCgtfGaRMkr0KLERluye1KofRNFnQKNIKW1E4q2mS/ffTez2radTqGPiXZDXNVmgLNXUm0TS5Rsu79U0fn6qraq1oMJd/3lJ5zNRADSH4Z+vPj2DcFIyPciU0z9tL8PcK5mRBI9gsYpkf9F6F9ofws4sra/efPL0284uYpQQwr4tP1YOIq1orik/Vv13TIlY+yYrwew2NdKGQcjbXjZPFVoEGgrOm65P7m3o+6L2KwTxTCHyKjZIFDTaFnASYTe5v6gELc11LH7iHFXTzua+qFXegqHy7LMerWisYuhM+XVjT5BotSPGtHdA3Xy0BwuaZ76tgrxxCqQpWigE1gP0PT9IQNOkdY6T7aerHNLiNkJSWSwMig4i7A+bugPnM91VgWweOfxErmBAADbNvjoExgZn735X/DMydh43uzjOf8bjJgkYN0DQETZHN5ZldAEnze09gUtNlOd58teSbSD+EysWYyBu0ywkT6B5qswe1CYAGHec7wxuBcZFnicxNYHQDTbypvYzZkOqaCAMtd0+9Y/nZc/gIhkpD5EonmO5JjUgy/17Y6FazTjMQnMXgnWjhNPdgmY4pgS/XZTkuGBAZaLmgHQA3lCknMKZ5q7INbcsF46ii/R4y5SgVIafcsqPCimOonZW2vSe74cNgSxoo9GoWNLQ1kqZp+2NhRA8NjNB8tQSlSWnXmPnflf+AuSfD2Gc1DdDvGoc/gjvdD90SnE2M65IyIPBXSSSyoJFonBQuoRk40nKBZElpucAdADo3DEUoiZYFDcT4ZigsSWm5aJDF/IYD5kuj4Z9Hwz9fCc3z+/VMYbHTLGjEWiZp/sHOQWx/NE2BKc4XrmL07iBBYTm7ehaUTUlzNT5uE2hSpuUyPRTWvqfeAQGP7z95yhvZYDHpxJaC5s6dO37lRzAY3KLhkfoxDW1MbP/lZ89xyg1kOaW0XFGyHDIs1UTLNQ75rs38wnzQExb9STLTFDQSBsIpSDESiRQUFGwy6JV94nQ6U3ii9C3I6FYzEK4Z/YFp/Gszv7x4+RJBo5SWq3G0XDFartM/DQoGv7XSNNqCJhAIyAYJW/D06dPSCEjtqnpNcyU03zURxpaHBK9p5NNyYeQqqmlyjRacOiHdScJrxFhijOfF4DoNVSRaLe5pCxqfz8diQfZ5bV1darCQuEsTTYOLe7T9o48eY2xwjWm5OeV/0WGar5YgLfebSD/D2URaLs6e6JbC/qYeHHPhe0NUHzxVlNi67sntdssGCVuwtLRUQvwpX1KvaZK2PzLlnGE70nKZuQ6l5fJ0/U0DYQhECLTc7oAZCeL8JN66YnVFXbC+R8fVitAgs/DWgcblcrFYkH1uMBhSRobEjWDxqWZMk7RVd1RYYY7cfLXEFXUBbhgRw4LLd7FhmDp1nvmMrqqwoEFl84WruCd8AULw4twMEp3Lna6oC0iWX3WeENz0zjVajp4bOvHtDdSKSX+MWIGtA43T6ZQNErZgcXGxhOxTvqQVaHZUWCXaHwNpn/m+6pvIRkxkHI1QETvDdtiEYpZUBECzq6IDZmVfuIq7A2ag5bYmWiGOanOs+eJPF4H6L+gvNKd8g2Q592AZ2E/Lz54PBGdx6C6GDIn8rQON3W5nsSD7XK/Xp4wMiRvVgwZCFdP2d/qnmb8ubkjXDujNnjKIiQyE3NZEa3OsmQZELmmuxiV+EJMAaIDODbiBDS0IpeoM22ELFDe6GQBCjZ/0e6KPHuvPj8CT9tQ7bONT1BOTBD4EL1HQaGvrqYbGe/jwYQnZp3xJPWiMQ765B8tHzw1B++892W0bn1pcWaP9C2wmUEMGs6fMPmHCXW4UMY8Ygb0nFNuuig50Qc1YWnRZjje1lzGbWHjjQHD22swvpuuT9KMVLVdb0JhMJtmahS1YUFCQMjIkblQPmiuheb791178xiv7XKPlvYZGGN+AiNEdPTCvMSAyChcSwpoGC+2rai0+Vd/UXgZT8c4zn33eUvlufROjr7B8TvkGLdczu9DuDdBPZoKmtq4OsGAwGIxGY21dHYRPkEgYjUZYD8zLy4vH4xLiT+2SJqDh218QNCC1XRUdx0wNVa0VIOKvOk9UtVYcMzXQGTGVr5SmYcqBQuMz+Zwim4sBNfSysNG6u9peZO4tMvceattIwDcmBE/FuqdwOOz6+wiFQoyQgsEgXHS73cwlPAXXJEo7mtOnTwPUIpEIVoWJubm5wT8Pl8sVi8UwHxJutxveanRs7N69e8xVDMcycNNPW0m6feAqCuLouSFmBJNTbvmk30M3urEwTQB7X0IdYOEkmgbLaZUoMvd6FR7w5wPrJNo9GQwG7DP4ucyRI0fwqpj3MqhB6ZDW4XBAzdPT07zUjUYjPtfhcNACt27dwks6nW54eJhehTT82Lm5OYWN5NVKQHLqeQ2gCW4+AoEAzeBPYb2LBw0N4cQL/tChQyghsXA6UIPSFRecqPv9fl7q1LGS3W6nBbxeL76STqfjfarF43EADfW5xzcIbS5I09gIcqSusszrBw3fBEwOBQ2VgXrQgDZSuraLS4KCWFQDGvh1a2trFDRMawieZkGzqVkY757agga0kdFopNUmTePmw+jYGF84Cxpt2G5UGar07kmFpF7T5Ofn63Q6k8lEq02aHh8fh15mcHCQL6wSNHz3tOk/JHKS1TSbGmbrNE0sFgPZt7W18bKXyAkGg3CjoEmNStAkEols98TqqszRNHfv3gXZM8NVCbjApTt37kjcmAXNXyIHJ9gHzJck/GDTPkgirRQ0W6dpQqGQhMKQgM7CwgLcKKiitilodlba9jf1HDBf0rX0JV3RkZo97aiw6s+P2Ec8vj8PWKqKRCJigYQksIKXlIKG8VhOZalyTDM5OQmyd7lctFo5aYjBLDgY2nagKTL3nnZd93q9Pp9vfn4+kUjEYrGBm3508oiyw4QwaHKNlv1NPQgXChpo01gshoEqsS45CaWg2TpNIz0JkoZOYWGhTqcTnHZtI9DsrLSddl0H4cI3gAZ/u218SlDrCING19LndrtpdT6fj18UN12flAMUWkYpaKimYWw9VWqa4eFh0DQ+nw+bSWZCYoFnu4BmZ6WNUQqoaWgjjIZ/5u0wBUCzu9o+OjbGIIYHDWzX6c+PUEwkTSsFDdU02oLm8uXLAJrbt2/TZpKT1uv1Op1OcCl5u4CG0TGCmiaRSMTj8YGbfkasAqD5d+8gRYzL5TIYDIcOHSosLCwuLmZ2TCKRCI9E5hn0VClotk7TSG8hSUMHlBy/d8HEZ2DmZUm3EeChaZhyF5l7qYjdbndtXd3hw4cLCgqOHDnS0dGxsLBAW4AZ37Cg2VlpgzERVDo4OFhYWJi/+bBarbTGD7++RmEhnVYKmq3TNFarFTRNNBqlP0dOGtTJkSNH+MLqNc3q6upWbyNQNeN2u/V6/WYJ5xsMBoobRtmwoKEY9Hq9fHVQ++TkJLYXU6O2oNk6TQMWDnl5efhD5CdgK/vQoUP8LZkPGkYv1NbVMYiBU6oaYrEYHRGzoPnw62uouAYHBwWry8/Pp1Sx2dlZaaDQq5mjacACq7CwkBd80hy4Nz8/ny+Z+aDZ39SDIvb5fIcPH+alnJeXx3S+upY+lCMLGjqgcTgcfHWQQ2eb0WgUq0uaUAoaqmmoMU0ikVA5ewJtodQCC1CCdlj8jDLzQXPAfImCpqCgQFDKzN+JDmtY0GSyptEWNKlZYAFokMYwNzfHKJvMB432miaTxzTaggYUFW/yx4BA8BTtsHj3EZkPGpljGjr1SzKmYWoUnD3R6hKJRNpmT9qCRmKtRRAoNHNwcBBmXrwhaeaDJqfcImf2RHteZq7Ddk855RY6rPH5fMPDw6WlpbBOYzAY+HUaOq7eRmOaw4cPi20FUHwIpkfHxgA0vNX6tgAN7U98Pp/X662tqzty5EhhYaFer7darRQxiUSiyOaikhUAjcwVYWjNdK4Ia6tpYP8oNecPuEzH/IXUL+6B44itXqdhlA2Oi5m9JwUrwjnllszce2L+9CpnT7BTTdcOmPolTnGHnDcOV69plh4upQE0Gu89AcUpA3e5GSmqAU0kEoH+paOjg6lWzina4jAkFfWaJpFIpGFFGESs8S43VppR9jSMONWAZnp6GkDDS515iuApWv3xmNsumgbHKNL2NILcOYExDVS3UbrUDKw7rSz3co2WIptrWuGBFBZGfhQ0/MxZmvd0+/ZtAA3fvzBPETy9d+8e3M73bhKgQYt0uFfM+Gvp4VIsFlPYSNMIgtQSaLm3v6kn6cxGFDT8swVBxxeTzjlgvvSl50dFH2RYMvILhUKX/z749RJp0EiMZJmniJ0Co5sfR0uAJpFIjI6NwSu7XC5BWi4wc70/RRU1kYZOkORIWQFopNGg9Cpqsr9Y4n9qNSYNdSKXW0x+gvnSoJGYMwvWxmdC/TzRjoKG7vnxNYjlLD1coiCQ31BKRZBy+dcGGvlvnAJo/H4/dAHwzVMhkSXJr86JyZLJB+M93g6Lgoa/ylQieMqARn5Dpa3kBmh2V9sz+aMUNNPT05T9r9PpeNDgPgDvbkJQkHwmjKj4sRQFjU6n4wc9fFVMDoAmkyWy92T3v+Yz+4CBMGPryTQ0nvKIEQQN7jjyy1lYlXRCbL+TAU0KuFl6uBSPxzNbJvNvDmgEESMIGnScxqyXSwOFXgVw8JYVPGhSwE0WNGr/MzI1zb1795heCYc1fPcEjtMEragoMiTSYIfFO1ETBI1Op1O6IKS21bb4/jdE08Tjcdi4RqxgggeNhL2mBFDoJYAd70RNDDSCxG9aIU1nNY1azMvUNIlEYnZ2VhA3PGhAtIKW4VR4Emns4BgnaoKgUTT3zo5p1CJmfn5ePmgSicSdO3d43PCgERvGSqCEuYRDacaJGg8aRYiBp2Q1jVrcAGgYuwhGhPSU1zc8aGDCnNo6CjwLuXbMYjQDGn5zir6qWDoLmnSDZt3mPBKJOByO038eVquVX7B3u91tbW2UiCMmP7H8aDRqtVodDgfjGNbv97f9ffAmWmK1MflZ0LwG0DAy2HansVhMbatt8f3bY/Ykv3vadhDhXzgLGrWYVzqm4WWw7XIWFhbUttoW35/VNBkHqixo1GIeNE3GCXYrX2gbdE/RzD7+maDJbJlE//Uqsw9wcL+Vf+yMq/vZs2eZLZNX/w8d1hugLfyaUAAAAABJRU5ErkJggg==;points=[[0,0.08,0,0,0],[0,0.14,0,0,0],[0,0.2,0,0,0],[0,0.26,0,0,0],[0,0.31,0,0,0],[0,0.37,0,0,0],[0,0.43,0,0,0],[0,0.49,0,0,0],[0,0.54,0,0,0],[0,0.6,0,0,0],[0,0.65,0,0,0],[0,0.71,0,0,0],[0,0.77,0,0,0],[0,0.82,0,0,0],[0,0.88,0,0,0],[1,0.08,0,0,0],[1,0.14,0,0,0],[1,0.2,0,0,0],[1,0.26,0,0,0],[1,0.31,0,0,0],[1,0.37,0,0,0],[1,0.43,0,0,0],[1,0.49,0,0,0],[1,0.54,0,0,0],[1,0.6,0,0,0],[1,0.65,0,0,0],[1,0.71,0,0,0],[1,0.77,0,0,0],[1,0.82,0,0,0],[1,0.89,0,0,0]];" vertex="1" parent="1">
                    <mxGeometry x="331" y="600" width="188" height="472" as="geometry"/>
                </mxCell>
                <mxCell id="138" style="edgeStyle=none;html=1;exitX=0.16;exitY=1;exitDx=0;exitDy=0;exitPerimeter=0;entryX=0;entryY=0.5;entryDx=0;entryDy=0;entryPerimeter=0;fillColor=#d80073;strokeColor=#A50040;endArrow=none;endFill=0;strokeWidth=3;" edge="1" parent="1" source="132" target="136">
                    <mxGeometry relative="1" as="geometry">
                        <Array as="points">
                            <mxPoint x="62" y="763"/>
                        </Array>
                    </mxGeometry>
                </mxCell>
                <mxCell id="132" value="" style="shape=image;verticalLabelPosition=bottom;labelBackgroundColor=default;verticalAlign=top;aspect=fixed;imageAspect=0;image=data:image/png,iVBORw0KGgoAAAANSUhEUgAAAIcAAABzCAIAAAA9hoZSAAAgAElEQVR4Ae2d608c25bY5w+5n24mURRFURRF0Uh53EhRlKvMyUyS/2DyJYkyGulqpGjuueccm6a7Hl2PLvppMGBssI197OtjbGMbPzAY86ZpmreBpnnjpqnuqup6V3dldi8oF83D2AcbnMPWVrtoN0X1/tXaa+2111r1J5KsnvezNgJ/ctYu6KOup6BokqwKUgG6WJChC1JBLMgFRZNVHT7zUac99Q9/3VQkWYWh3z/6DqFTH+JPuICvm4puWpphKpohq/r+7vxXQdG+Lon5uqksLq3MvJ1PJCcGh+M9vf1O7+7p7R8cSiQnpmZmt3MCUPmKwHwdVHKCxOfFgqIpmmEW7fXNzMhoom9gcGQ0MTu3sPFua2ubB10Cc1qWz6+srU/PzsUTY739A/2DQ/Opxe2cIKu6VbIVzRAL8idMLF/sV74OKoJU0E1L0Yy1jXe9/QOjY8n51GKWzztzFOh8R8MrmqFohm5aZtEWC/Laxrt4Yqynt396do7Pi7KqZ/n8FxviT/hDXwcVWdUlWR0cjg8MjWxmsjlBKihaTpAUzSgomliQc4IkSAVJVh3tAu8DTsMq6abF58XRsWTX656VtXXNMD9hsL7Yr3wdVNY23nW97pl5O6+bltsIhvlKM0zDKjlD5mgRUCSCVMgJEtAyrNLWNt8/ODQ6lnQ+fwYPzi4VGFyzaE/PzvUNDGay23C/g8nrHsoKDIDKedP9SUEqgNysrK2PjCYcVeT+zFk4PrtUxIKsaMb07NzY+CSMlDMpVehqB8CBB+5RVjQDRM2wSunl1eTEVEHRzqCOObtUZFV/O59KTkyZRVuSVVDgkqweLSv7wVRQyQlSTpA0w7RK9tv51OhYks+L7s+cheOzSyW9vDo4HNdNS1Z1R5n/TCpgICiaAWAUzUillyenZ84CCfc1nC0qsqqDQbW+menp7QcNUTFfua9+v2Qc/53tsg2gGebQyOh8atEq2YJUAGPP/SdO5fjMUQHrdmBoJL28Cjf1ESN1fAb7PwkLl4Ki8Xnx9Zu+rW1eN60zsv4/c1RAw4MelmQVjNrDbtj9Y338dxzJKNp2Kr08NDIqq7ogFc4CmLNFhc+LglToGxjc2uZhfMFq+hxUHKdyTpDMoj0wNLK28c4s2udUKjfcDKs0n1qcnJ5RNAOUymE84P3jS8b+T7oNB1nV1zczieSEZpjnVCqpSLI6MppYXd84pkdk/1gf/50K3gVF6xsYBAdzxX99+R/P1gyWyW4PDsdhoXecsTg+g/2fdJ8fNs2mZmYnp2eOMC7cv/JZj88KFZg3xsYnp2fnDKt0KrKyvpmJJ8bOqaD9XfCjwEbvwNDI0sqaZphHrFHcN+l+Cfi0d+DPiQX59Zu+szCJnb6sOFRygjQwNLK1zR//bv00Bvt/C0jLqj4ymljfzMBi1o3/Cx+fPhXYqpJkdePdVv/gEHz/YxpC+8f3k9+RZFUzzKmZ2VR6WTNM2K35wjCcP3eGqCytrPUNDMIy4pji8skMKn4RhkMzzNm5henZOdjFccboyx+cPhX4zrKqr6yt9w0MGlYJVt0VA/fBHxVZc/oHP1zxAbgVdNNaWEyPjU+eU0EKHxz1bioVo3acHx0kiowsiI/qsP3lpnJMc+MzidHpy8qZpXJM3fY5wHwdVGCVd/Ttf1KykkhO6Kbl2CCfY9A/eM6vg4qiGRDxxedFUSw4XZJkV5ecJhakgqLwQl7WVFlTC4qS5XlBEsWCZBaLvJAXJBRd5nT3DDY6loQ17DEtjg8O8Sd84OugUlA0wyqJBdmwSkXLhm6ZJcOwdN3c7brTgIRhWZqha4YOkMSCxAt5+HE7n3OQFBTNTSWeGDuncixtDxuUb+dTk9Mz8/Op+fnUwsLiwsJiKpVOpdLpxWXUXe3twvzs/NzS6ophWTlR0E1jcyszNTP9dmE+lU6DxHyQCvitP+FO//m/8nXISk6QbrTeJikmErvEspzTGTrwvjPvG+EnKZbxM3RycsKwrMXlpVA0QgdYP0NzweDgyLCio+nLGb4DZeWcCgphOcIy5vNi9FItSTEkxbzHQAdoikV9X2MYJhgMUhTV19dn23ZycoKkKEBF+MmnzzoMy3KQONGwYBk7M9g5lQ9Q2c4JH0vFU279/f1msTg6lsBJggsGKZZxU3G2I89lpXKn6zjrlY+lQhAEyyIZWl5etm27u6eHpCiKZSqoOOJyTuVLUKFpmmGYzs5OXdfnUwtcMIiThBfHzqlUjr5zY1bEAR8mK+7PG4bV3Hw9FIyAIkGqpdxAJgKBAEVRHMdhGMayLEVRfoaOJ0Zt2x4dS1BMgGICJMVQTMCHkz9UeXp6+4v2nqgJ8K8YVimVXh4ZTUCCyy9uveK2So9DRdOMVCodCNT4vDhNsQ4V0OqBQADDMBzHaZrGMCwUCo1PTRZtO5FMshxC4nTCT929dx+89G4b7JwKkqGPpZLPibZtx+OJixc9JEkhMOUWCARIkmQYJhqN1tXVNTQ03L17d2FhwbCsofgIThI4SThIKCbQ2HQty+chStZ9DedUPoWKJMmiWLDM0ovnnRhGOFRwHMcw7KeffuJ5Pp/P8zyvqmoul9vO55qvt1AsUyEri0sr4COAdCQHzDmVT6EiF1S5oEqSLBfUBw8ekciiohiGoWna6/X29vYUi6bsalvbfNO1FtAlfprFSb8PJ8fGJx0MFQfnVD6dCrB5t7nFcUGSJEGReL3evr43pZLlgiK7qXi82Hc/XHzwqL1CPtxgzqn8XCqCILXevE0QRCAQOFxWsk3N12CN4sUInPSPjiWP2A44p/JzqRQt+1brj2ABMwzj8/kOkpX3VAg/FagJOtGqbhFxjO9zKohKRRcLsqzqSytrvf0DumnlBKkcBCyJhZ0uy3I+nzcMo1QqSZJ09epVWLqTJIlhWH9/v2EYe2ewbMuN69WYj6SoQA2Hk8TA0JBm6ODhh1f3NZxTqUQCUdhHU7FMS9M0URSLxeLq6mo0GvV6vbBm9Hg8b968sW3bTWV1fe3S5TqcJMAj6cWxG62thmWZxaJm6AVFKfPeKcUD3jBJVn/pq0j3fXocKjzPi6KoaVoul7t16xZFUQRBgKBUVVX19PSoquqmssVnmq9f8+JekiYJPzLZCD85MhqXNdUsFmGb0nFNnlM5QFCOQ0WSJJjBnj59Cqt3ZBpTlNfrDQaDExMTbiSyLJsl83nn8+8ufEexlI/Ag5Gwj8B9BD42MY6s6/KG8TmVg2E4EvNBvZLNZovFYm9vL0VRHo+HIAiv1wuyMjIyopsGL+QdJSQW0MJGLEj3H7R5cayq2hOo4bw4RvjJmnBodX0tJwq8kM+hvfv3k9j5DFYJ6QgqML6yLMfjcZqmYTGP4zj4WkZGRpC+KUiyprqpGJZVUBRJlltuXP/D99+TFMVyAWBT39hQDqVQIK/MAXNO5aOpTE9PBwLITwwaHgRleHjYMAxJkjRDz4mCm4qsqdtlYVB07frNmzhJ0AGW5QIsF7joqbp5+5ZYQFn3jri491d+uT5jZ+6CgyNkBeyllpYWkiRh14RlWRzHX7x4oWlaPp9Hji9R2M7n3FR001B0TZBEyy5tbe+sXfwMTfhJL475CLzrdTekwoKsnFOpFJTDtL3jb1/beEf5GaeTJFVXWw+LwQq6rh9lSd7pRdseHBmuxnzBSJjlAn6G9hH43Xv3FF2D6VGQRKiyoBnmfGrxx7t/3Hi3Jas6VCRznfOAK/9M/3v6MS5HU5FVvYIKjpP19Y0fqrz2noqsqcnJCYplQLu4qciaKslyBZVX3a+7Xvds5wR7787YZwJw4Gm/PireaqzpyjXDKoEL4MBv5QiKJMuGZcUTozhJBGq4ClkBcSmDQTVdIcYlkZzIZLefveg8ThLzIX/950rV2aICmRK7HhdUhBDq5znTF+Vnqqqqr11tsUo2lPw4ZFzey4pYkKZmpgM1nI/A3VQ0QwcqjqwomvF2PtU3MGiV7M6ubqcSwyF/4ucO/RGnPXNUoJ7K1jYPtypETU5MTI0nJ2dn5uLxxMTE1OrqekHRIDfe7W10HSsFZafLmprl+VQ6PT41mZycSE5OjE9Nbm5l8vm8pmmqqubzO2sXhwqUtnz0+OlpFak6W1R6evutEqoUyeeRBgYDCVV2Kai6btq2bRiWXFAVGZUF1QzzcOf8DhLQ55Isy5qq6Jpm6IZl6aZh2SVd10VRzJcbWBaaYb6dTw0Oxw2rlOXz7U86ftFUYKZaWlnret0D1cAgUQEEwrBKckHNZnm5oMLQqsr76sVl+XgvGY6IOAegz3khn+X5ctC3AosbrdwMw7DKVRMhL/LtfAoyJQqK9qTjmUPFHXpxxMxzUv91+rICXnRFM9LLqy86uxCDcsloQSosLKZ7evvbn3SkF5dBSgRBgj18p1LC0VRA7YsFSZBEyJSw7BKsMScmJp48efLmzZt8Pu+WlfGpad20dNN6+uw5UPnyuSynTwXKDGmGubi0cqmuPouWCai24dj4JM1yFz3VXoyg/Mzo6JhcUPntvGFYiqyhJb2mZbNZtSw/4HME+QBFAtYXL+TX1tZ0XVcURZZltdwURXnw4IHH4/F6vRRFRaNRqFEiq/rQyOjK2jpEGN+9dx/U2y+RCpTB1QwzlV7+8e4fp2ZmZVXfzgmR2CWc9NMsVxOK+Lx4NHopnxMFQRIESdOMpaWl5ubmaDTa1NQUT4yWY+zfq3fLLm1uZZ4+67h0ua6uru7Vq1cOEtu2JyYmcBwPBoPgJvB4PA8etdu2PZ9ahJQi3bRW1zeuNl8HKl++PNWZkBUZ6XJrcWml63XP4tLK9OxcenmVYgJcMExB5COJ4iGnp2dLRVuRtbW1jfr6egzDaJq+ePHiRc+F0WS8oBagyxry1d9/0Eb4SbTxRRA+n+/x48fg7VdV9eXLl16vNxAIsCwLr03XWuZTi+NT01D5MCdI8cTYsxedjqx84TjKM0EFtPri0srrN326ac2nFh89fgpSQvgpyI4I1oRnZ+bkgloq2r29/RBNAdtf1Vj1zds33VTSK8vBSJgLBv0MHY1GcRwPh8Orq6uyLEuS9PLlS/A9Q4Qfx3FcMDw4HBcLsmaYmmH2DQzOzi2MjCZ+uVTc2r67p9cs2rppxRNjfpr10yxJMYSfwsqqZX4+BTbY4/anOI5TFEXTdDmsgqyvr+P5rKYpsiwapjY1M01SFB1gCT/yaUYiEYqi5ufnhbK10NHRgSSovJsJTs+GhityQbVtW9fN0bHk9OycJKuv3/SBFfDlF/mnLyuwKJFVPb282vbw0ca7raKNatpeqquPxC4FaoIUgxK6SJJaXlpVZM227fZHT7xeLwRUOFTyeV430E5xsWi6qZAkmsVIkoSsiVKp9OLFC5j9YAbjOK65+boia1tb2729/ak0Sq5YXd9wypGelL17/POcPhW3d7J/cGhsfHJ0LBlPjMVqL0cv1UZil0KRWDgUjcVqOzu75t4uZLP8vT/e93q9EDvpUBGEnGXpmqaUSpabCkEQwGBiYiKVSk1MTDQ3N1MUFQ6HI7ut6cq1VCo9MDD0bnMLHlsBxePAWXD80TypT54tKj29/XZZUNqfdBB+iuVqIrFLdfWNDQ1X6mrrBwaG5udTw0Pxmzdu4eXmnsHm5mZX15aXl9Obm+tuKiidiGWDwWBHR0cymVxbW+vo6GAYJuZq4VB0YmIqxwuqgh6TsLi0kpyYOsVqh2eCCkzcWT4/OBwHe2zm7TzEPNaEIsFwNBQKRSKRTCZjmZZt20+ePAkEAtFoNBgMhsNhjuOuXbs24mo9PT2hUKi2tpbjuLq6ulgsFgqFVldXS6WSbdu9vb2xWIxlWY7jGIahKCpWe5nPi0XbNouoXms8MQYbcSAr+19PSiYOO89ZoQI7g51d3Vk+r2hGPDFGs5yfZlmuhqSYUCgUCASGhoZyuZyiKJ2dnbW1tZFIJBaL1dXVRaPR1tZWJ9le1/VUKnX5cnmpUlcHB2CD8Ty/ubl57949kiTZcgMqtZcbZFVXNGM+tRhPjIHj4Ajv52GjeVLvnyEq8CCB7p7elbX1qZlZNxWSJDmO6+7ujsfjk5OTra2tgUCggorianNzc7FYLFpuLMvGYjGCIF6VWzwev337thPSD1TqG69ABnNyYkosyIJUgFgLEOJftKzAjcbnxcnpmScdz7wYQfgpmMFg7FZWVkqlUiaTaW1thWUgDC5JkpcvX+5xtY6ODgBJEARN0z6fz+v1ptNpUUTZSX+fL/n73/8ebGKIK2O5mr6BwZW1dXDBQRHlc1nZ2UGCaodWyU5OTNEUi/Ibyxn1YNqm02lJkkRRbGtrIwgCliywEmxsbFxbW8uXmyzLo6OjEJ1E0zQsa0iSXFhYKJVKqqp2dnaCB8z53+ilWihH4ojFYVICHzipmeqw85yhGQwGIpPdLija5PQM8IBXn89H0/T4+Dio67a2NrCMKYpyqORyOVAtpVJpYWEB3oc1DUDd3Nw0DIPn+adP0SKUdrWmay3wwBxnB8HBc+DBYaN5Uu+fLSowKEXbnpyecg0aut8Jgnj69OnIyMjc3Fxraytebm4qmUwGPF26rieTSRzHAQnMdT6fr7Ozc2RkJJlM3r59+w9/+IP7/NFLtVvbfJbPH76NhiqMOP2kRv+w85wyFXC3OBcnq7pt22JBarlx3T1qJEnW1dVB8mMmk7l546azigTV0tjY2NnZOVBu8Xi8ra3N4/GEw2EMwyiKCgZRblg8Hud53jKtgYGBixcvwvlhKeqn2b6BQefpBc7oH3bgXPBnOjgDVCRZkTVZlgVBKBaLCwsLTU1NHo8H5AMiVymKam1tVVXVMIxisfjw4UOgAtLAcdzly5c3NzffvXu3traWzWaTySTMWpCEHwgEqqqqFhYWIKEinU5jGBYIBJx5DLxt7U86QLHBgywq7hg3oc8EwzntKVNBD+ZEW1ho7tF1fXx8PBwOg0ogy41hGJZlL1y4MDk5aRhGLpezbfvBgwcEQTjWLU3T165dU1UVdrcs05qengazDaBCgPLy8jLayJRlURTv3Lnz7bffsixLljNfgQpJMVeuNi+trNm2DfGuzjBVKH/3+5/j+JSpoHpD5V2sjY2Ne/fucRzHsixBYgxD0bSfpv2RSOiHH767c+eOKIqqqoqiKElSS0sLWLTwimEYfAASKlRVTafToVAIiMKCkSTJoaEhXdczmYyu6xsbGwzDcBwHmsmHkzWhCM1yhJ8KhqNDI6P7nzDyC5IVFMOgGa9edUciEZqmd2p/1LCkHyf9eChUc+HC95cv10KmhCRJiqLMzs4icuX6OSAxVVVVDx48kGVZURRRFHVdX1tbi0ajLIuKJfh8vkAgQBBEc3Mz2qIXBE3TFEUZHR0FnzFyKvspnPSTFMNyNYSfuuipvn7zViq97JaD//+ooM1BCB+FDXaIKoKqzlebmjFsJ3HL5/PhOE6QGE37gxxL4r7G+johxxeLxXwelZwUBOHHH3+kaZokSSgUAovB4eFh19JeMQyjo6MDwzBYRYL6oWl6YGDAMq3NzU2Yyvr7+2ESAz8CuhHKbPw0S/gpigl0PH+RyW5DpUR3dLmb1uc4/jIzGIpkLCgo5EeQxHKuCXo2cNvDR36axTCCZTmSJIPB4K5uJ7kalvaTd3+8ldvOqnIBJEBV1a6uLkAC3mLYeAfzzE1F1/V0Ok1RVCgUctty4XA4n88rigJVLCRJSiQSaBIr14Pzl/fZYKsNjr0YcamufnJ6SiygfAy4scp4Pu/Dpb8cFfhiio6SgF51vw6Go+AVJkkKhdnX1QGS8rRDYZj35fNnJcu0DE0ScqIolkql5eVlt/aGRTuGYd3d3aVSyU1F0zTLtO7cueNGAq6XtrY2FBZTbrIs27adSqUisUseL0b4KZrlQG6AE8vV+HCyGvO13Li+/m5TNw2ILvsc8uE+55ejAoFY8cRow5XGah/uw0mc9EdilzCMCNaEoaQBJNjV19clkwlTV/P8tlIQ83wOIupu3rhJEATHcTDW8CuNjY2CIPA876YCGmhjY6OCClNuyWRS0zTIgBVFES3482Lbw0cUE7joqYZJDNgEaoI0i7L3cJKoxnxdr7u3trOagfZgPms/eSq7T5WFmQrVFTaLRdu2FxZTt+/86CNwVIfI1XAch9wtmJra2tqy2axlWupuWrCiKEULhWNX+3Bw7Ptplma5YDhK+KmhkVEomOPWxoqiABjwmDlJYhBtBFs1qqoK5YaWQeXQwMnpmfrGKx4vFqgJQv6Rn6GdTlIUThKhaOR558vtnGAWbXggCDzbEJJd3Nfwc45PmApaf5Sfbg6xijlRMCxrbWPjYXs7ywWcKqkuKBRMSj6fr7m5eWhoyDAMTUNBeBBXhyKENeQWgyUFy9XgpB/Y/FDlaXv4CJBU+K8ggNgyrXfv3kWjUZqmQ6EQjuMMw8Disa2tDZxmwG87J8iqDg/Ae9LxjGY5qKDgIIEDEmkgxKbhSlM8MWYWUUg0LDwrFjQ/B0lB0U6YCjyDM8vneSGPIqxNo7unJ1DDXfRUeXGsJhwKRsKoMoGrVVVVRSKR3t7eXC4HJSYURXELysbGRsOVJjBecdKPAveCYZJiYrWXt3MCVIR2V85Bu5m6DvH2lmkNDw9jGAbWBNgIsFKZnZ2FiVGSpIKi6aYFz0iCp4TfaG0NRsIVVBw2Xozw4eT9Bw/h2Z+QKmaVUH2+E+knT8VE05Uta+rM3Nva+st0gEVTVrm6MLyisgRQS6rM5uHDh6urq4ZhgHCIoqgoiiAIcrlpmtbe3l7tw6FKIey4sFwNy9VMzczC3epGAoPC88iYBre/JEmNjY0+nw8UEmwM+3y+WCy2tbUF7gCI35RkdTsnQFSYrKmDI8MHUikXRQ5zwXBVtTcUib3o7NrMZG3brpjE3IrnY1GdABXYvBOkAtwykAf0sL0dYJQro1J+BgkI4UeVIoAKhmENDQ1zc3Mw+vtfYRJLJBIEQfh3bVZYSVT78KfPnrv9uxUTiPtslmmlUikIqHBkBTTN3bt3VVUtlVCtd5iL4FuUl1MoW3z93eazFy/8DO3xemvCIZYLgMSDqQavJMVcbb4OmceGVdra5uEZ1FA3C14/ltAJUHGqNGuGaVilzq7umlDEi2Oojl25WC3FUhSLpmNItaqq9kSj0ZGREVmWLXNPXS/3aIL7JBaLoeqee6nU1TdCVONh96D7PLqul0qlgYEB8EXCgh+cMQzDTE5OaprmPMjLSSnOiUJOFKDCyOZW5v6DNqhuEajh6ACyNZwOJeFYrqb19p3NTBbmMRTM736ygstmO+ya3e+fDBVZ1YvIyko3XGmC4OBQNBKo4dxUAjXcD1UXAzVc+9Mn4FFHTsBczj2CjoYH90l7e/uFCxfC4XAFlamZ2f0zhvtb7cmLNAyoAXPr1i0HBvguMQxrbm4WBAEe7QHiAvFpkFwB6eEFRVF0bWEx1XLjenl3lHGQ0CxHMYFATZCkmO8vVEVil/oGBiH/33nABTo4FSo5QXr+8hUXDFf78GofjsCwTE045KbixbF7bfcXFlMo/6rsOwG3x2FU5ubmYAc3EAi4qbzo7AJj1I2h4thNBWKLFUVJp9MVVMAfMzAwoGiGIy67CUQ7mZWOowVy+OOJ0eilmJsK4afAPQPrYprlrt+8ubmVOR0qUHugaNvpleXm6y1Q9glKQICSBFnxM3RVtScSi86nFra2s7ppCBLy+zrNoQLLQPhRkiTYcIQVhp9mYUHXfP1GBYBDfnyf/eUm9Kq7C0qzoyjk8pY+RGJkeZQauctj/wpxhxAIzXY+9+jxU4oJAAzKz7As8j17PB56t4VCoenpaV3XdyyOLyYrgoTC2t4uzEdiUacSFxQbAKOe5QI+Avcz9KvurpwoQM4uFFxxkFSIC4DRNG1+ft7Z4mUYFABOMQGWq5l5O38IhgqT9GAqm1uZK9euVlV7WA7VH3HAxBNjR1aW3qECgAuKUrTtqZnZlhs3UcoASbEscjdAgAfIH9BJJpO6rvM8yrx1+nGu/9P1iqypiWQS4t79DB2MhOHYndZ+8/atpdUV3TQ0Q0cJ1GXvJKpJ5GogHPAKVEql0k8//fTtt99yHPJaorFjAt9fqGp/0gELvQ9+MVFVnO6WFci9p1gGJ4my82UHzNXm65B1J6sHelP2UJFkGR6+Xq4tnuS4YFVVtVOZv1yJyUuQaGeapulnz56h+n+7hTLKXtqKG+iAHz+dynxqgQ6wUHke6m5WY75QNALFuBquNA6ODEPNJ5APRdccn6sLSnkbcpcM2F08zzc0NMCOJNx0hB8Fna5vZj7IAz7gIBFVVPnI6aAkWm5cD9SgWFYHDM1yq+sboPOdm9p18P4McCqxIJtFO8vnNcPkt/O3b9+BsliwOKZpP+lHGTPBYNDj8YyOjjoXUM4RPABDxff6aCplB4O0uZVhuQAU12a5AOEnQZegws4s297enuX5YjkuwtGWzpdEIbyHNF3XDcNIpVIQBbH7JWmSYl50dhXLG7fOeSrWKHu/2PsZzEkmhtpUiq4lkslqzLcLBf3rw8me3n54pCoYx/Dq/lvuY/ffUpBLyEgkErFYDCKkuBqWopCIO21lZQUKASqoCsBJU4FHbJrF4rMXL2D9AWxIigpGwjhJ1NZfjsfjtm1LspzleQdJuZLa+7lVPqQpimKZ1tu3b30+n8spQ3kxYj61aJXQ+vmw0dn7bQ+mIhYkRddS6TToFQeMDydfv+n7NCqqootioVQq8TwPTgTSj6P9IVe7deuWruv5fF5G+0wnTUWSUULURuZdKBpxU8FJws/QTc3XFhZTtm2rKnrsHGRSO2Dco3kIFFSItVgsJpNJiG18D4YJzM4twALNfZ7Dv+GhVDRD39rORi+hxamzogQqUB72E2TFMkuCgKrxyLL8008/0bS/LC5Ir0AjSXJ8fLxYLGrah5F8tHcSsmn7BvpBpTszmMfrbb7eksluIdMqYaEAAAWKSURBVNux7EUHXeIgOaaswP78yMhIBRWc9K+ub+yvc/SxVARJVHRt/d1mXUO9gwRmsO6e3k+jUrTsHI+2BCB6Rpblly+f//DDd6DtgQqGYR0dHcVi8eNnsMko/6s/3d7T/1Z8b9IhjQee+fanT7w4yt91WjgchtR3JKTlmvY7/h9kc7yfuNy3+YHHUHhodCyJNgZplBcJnaSYpZU18EW6f/EwKpLc9bv73/x6t38zseNtg0CZTCZTW1sLm2bwFXw46VBxn/+wY1SyZLfvfF8ZNXCtKkqhufkqWI9gfHtx7ObtW2ihhkyPDw+IS9sjKm4Mqvg3f7r92+gumKOoNDQ0gPtdFEU3lR02x7gOuFbw146OJX3lVHv/p1HZav3z+9/8bnHHcJLLhAAMjBpQcUIs0M4xTna97nEKXH9w4BwkKL4Q7kIXFVWV799HKTKAHNWS3aWC5oy5pb/67fBv9vTxK3N7UB1FRdrD6SgqV69efe9ndMnKaVBJhV988+cTc44xioYrc+Ob+2T77r1cQQVmsK7XPYZVqrAmDsNzHCrOcvIgKnPP3Xfqq7nf/HbPOydDpaWlBVwLyL14ulS2Wr+573/oWqOUb+KdFyTKsgxUYG6BWpY+nHzV/frUqMibF3+7R1yOooJmsL95vHu/HCUr1640a4oui7IiqdDdbHbPsEdID3zzBGawtP/XL1on3Shcx24qYOCBvxIn/VBuySl/dfR6xS0rO8e7Zo6qqpqmtbW1wSoY/DpejLh560eoOVqewfZIhvRq7jfYpntAKqjs0fZ8cNr10Q9TUSTVAXNMKmP+P/sTaP/jJ3ChawaqQ/DpemUvlfZ+R+f/dTiDtLEjK+445i9OpUKvDP9VS9411GoFlV1tX7bHcg/ddzeiIkiiYVn7bbCrTc2oZtfu44TcSD7WBvu5VA6ewbp+dx9Rgf1NmMEcWUHxFbuyArezs2Rxj5T72G37uWVFLpdV+mhZQfr/mDPYw7/d/tV/ESYdMHuoVGMo+QoaRVFNV65BaL2Ido5Q6Tt3d3+fo48/OIM5JTzgPO7R2T0+SNsjM2wPFdjihKh+lmW9GPGq+7VZtH8+FQjK2T+D3Wi9DVvpB8xgSK8MX3zlDPVhslK2EMAyllxDLEly0bIfP37s5BWCznRTgZ3Ro+flw9hAXYi+gcGKGeyip3rm7TzEoOyO/uGL5LJl7DLD5kIvvvn1/b8OZdCNVVCUjcy7SAyFI8FCj2GYah/+qvs1FFc87Nrc7x92DTAJK7rW+uPtCr3ScuMmPLL9ECrHlBUE5nHuV0jhOze+QwWyfkBWSJJsbGySC6ooFqDWHSp3V45PcH+TYx7/fdWhv/v2Dx4v5t9drPhptqraS7PcEUm9FcMkyUBiV6n0d4GhDJ5K8BjBJjF8BY8X6+zqPhEqaPNsHxWc9F9tvr4TOYbmqz3afqZl/Df/a2nGZSu79IrrXfcIOkjgAGSlgkrDlSaIqTimDeM+v/vYsEqT0zPf/MV/dSPx06wPJ//yv/13KJBQAeDAHwVFdrqzcIGaoLKmgqy4V5EOFffFHHEsqprTKy7gQCp+mm1suiZIBbR/c8Aqcg8kSXbPYGeAilWyB4ZG/s2/+/f7PS7/4T/+p4XF9DHFxUEiKGjWcndnBvuSVGiWq2+8Aol9R8B2/utkZMU9gzkGTEVeofMnjziwSnb/4NA//if/9P/+3bcQOEJSTKAm+D//9//5l//qz9LLq8eMTzyMilhAcc+bW5noJVTHZcdcoenPLSuwXjmyWPl7VX9isnJSVNBjbRNj/+Af/qP//M1ffPvd9xBK8u133//rf/ubf/bP/8X6Zgae6lwxaez/8TAq4B/cT6Xah4NeOeKOcf+XM32JaqXRceAMtmcVecic5D7//wNRgDsfr0QWUgAAAABJRU5ErkJggg==;points=[[0,0,0,0,0],[0,0.25,0,0,0],[0,0.5,0,0,0],[0,0.75,0,0,0],[0,1,0,0,0],[0.16,1,0,0,0],[0.25,0,0,0,0],[0.39,1,0,0,0],[0.5,0,0,0,0],[0.63,1,0,0,0],[0.75,0,0,0,0],[0.87,1,0,0,0],[1,0,0,0,0],[1,0.25,0,0,0],[1,0.5,0,0,0],[1,0.75,0,0,0]];" vertex="1" parent="1">
                    <mxGeometry x="40" y="470" width="135" height="115" as="geometry"/>
                </mxCell>
                <mxCell id="157" style="edgeStyle=none;html=1;exitX=0;exitY=0.36;exitDx=0;exitDy=0;exitPerimeter=0;entryX=1;entryY=0.26;entryDx=0;entryDy=0;entryPerimeter=0;strokeColor=#A50040;strokeWidth=3;fontColor=#000000;endArrow=none;endFill=0;fillColor=#d80073;" edge="1" parent="1" source="135" target="130">
                    <mxGeometry relative="1" as="geometry">
                        <Array as="points">
                            <mxPoint x="610" y="-50"/>
                            <mxPoint x="610" y="720"/>
                        </Array>
                    </mxGeometry>
                </mxCell>
                <mxCell id="167" style="edgeStyle=none;html=1;exitX=0;exitY=0.5;exitDx=0;exitDy=0;exitPerimeter=0;entryX=0;entryY=0.31;entryDx=0;entryDy=0;entryPerimeter=0;strokeColor=#56517e;strokeWidth=3;fontColor=#000000;endArrow=none;endFill=0;fillColor=#d0cee2;" edge="1" parent="1" source="135" target="130">
                    <mxGeometry relative="1" as="geometry">
                        <Array as="points">
                            <mxPoint x="250" y="-31"/>
                            <mxPoint x="250" y="746"/>
                        </Array>
                    </mxGeometry>
                </mxCell>
                <mxCell id="135" value="" style="shape=image;verticalLabelPosition=bottom;labelBackgroundColor=default;verticalAlign=top;aspect=fixed;imageAspect=0;image=data:image/png,iVBORw0KGgoAAAANSUhEUgAAAN8AAACJCAIAAAAjTHqRAAAgAElEQVR4Ae2d70sb2b/H9y/po32yD5IlEoUwXmiEgfhgLo07eRAXLmZRt4KyilkVzOViJFdt1EgW4kpDHihd4oONfKUg1hIp20C2Utj10jxRoaVf2sVdSlXK7nZp5zZ9u5+ePfMjkx8mJiqDnDlzZjJz5jWfz+d8zuec81E6vX25XdbAOayBR7ncRxar5XK7rIFzWAPp9PYlnZcf5zmtgUs6z+mLOYeSrPq3dEnnJZ3ntwYalk67w2FrsgmtgsVqEUVR9sh2hwNfv63JJkmS7JFtTbbqy4PLXzRfA41Jp72lGWjKHhmAcjgSuOZr6rJk9WugAem0NdncHW5Xu4uVmsh0d7gv5WX1ISv5FxuNTle7S/bI2JxtTrvDcb2vbzwQGBwaGvb7Q1M3RkbHvJ1eZ5vT+qm15Fq7PJFqwPqp1dnmlD1yd29P/8DA4NBQ/8BAd28PaS0qWUKioeh0tjkhHW1Ntu7enkg0FonG5iML8XgiHk/MRxawhWfnwrNzk6Gp7t4eMkZLqLsLfoq9pbnL55sIBlGfmv/HAwFvp9fe0lxaXTUUnZIkiaJ4ze1GlcXjieXlldjiUiq1lnn/l05vr6/fjscTbFXmGS21+kqr9Ho/y9Zk6/L5pmfCVI3xeCKVWtvauptOb29t3U2l1mKLS3R0MjTl7fSWoKwajc7J0BQqZT6ykE5vHx4evn37VlH9HR2f7DzYoRqcCAadbc56h6Y69y+0CuOBACo5triUyWRevHypquB8xuHhYTq9PR9ZQOGR0bFiNVXd0ym0CqIo2h0Oe0vzRDAIYbm+fvvo+ESzytjMN2/e7DzYQfVNz4TRkKrOO67TX3G2Oen73753//Vfr9n61Ez//sefW1t3AehEMAgXisnHr2864ciUPbK30xuauhGenYstLu3tH2hWk17mry9+g66fngmLomiy4i5gMaFVoEr+97PnevWpmb+3fxCJxsKzcxPBoHkJmqdzeXml/G0iGKzyC7M7HORRHw8EIDWLRRNV+erVKwA6GZoyX3dVft7a/hxUE75/PVWuySVlPv/lOQAdDwRM+vXydNL55STS6e2zrj708aAFI7QKskd2d7gtVou7wx2enYvHE6Whiac+Oj6BGTrs95/1g9Tj9a/39YVn5+YjC4eHhyVz8vjpE6j4Lp/PTCXUDZ2QlK52F312UOtCqwBLaH39dsm1hhP39g9Qd5Ikmam7i1PG2eZEzew8/KnMSs5kMriUGQP0A52Hh4fTM+Fit1RqDbd7prITklLdrJYkaWR0DF7MV69elVlxiqKkUmvh2bnxQODikGfmSfsHBsKzc8vLK5oOkKKq/fVfr6Gjrvf1FfzpD3Tu7R8425zFbuOBwFnTaWuyyR6ZlWfONie+PFuTLba4FI8n0untoupIr/DzX57jy1Z/CQWrslEL2FuaUSflGE5she88/Ck8Ozc9EyY1qFd1dUCnxWqBWkeDmg04crY55yMLy8srv774jX3+ctJoHpk0jPSqtZHyZY+MxtCbN2/KqVg69/c//oQXj5U4mjWmTaer3SXp/LnaXaIokoitguzEfVMziI3kQMXF4wl68vIT2/fuh2fnRkbHNOvrAmZCrZdv1rOvJplcDc/Odff2GNcnT6er3XXN7S64SZIEQKtAp72lGe10agbRIw37/bHFpcpWHNpG0zNh+pULnkDPUPntIZZOtI0Kukf+QackSQW5pAIA9KzppJgjSZK4qGFRFMOzc5FoLJPJsE9eZvrXF7/BzLrsfMdnif70x0+flFmx7OmPcjl45o2//A90JpOrRJ7JhCRJZ0qns80JKKlhBEARvil75NPP+sEO++Rlpo+OT07p/DuW3rgGG/4oauPZs2dlVix7OhTUZGjKuPZO6fz9jz+9nV6TULLFBoeG8KsV8ShxjTiIZ1uTDXYwjrKkDvv94dm5bDbLPnmZ6Us6OWJAZ2VlZ3F0bmxsssyZT3f5fJWiE+HrtiYbooYtVgs1zsgJL7QKtiYbBmZYrJbBoaHw7Fyl3El4EHIqcZ8K984uzi46OyrlTkIlw6lU0K98KjsnQ1PmiWRLyh4ZgSqaslNoFeLxxKNcTlGUx0+fZLNZ+CmH/X5FUdiueeS4O9yyR2YrYm//IB5P4Cz4lVhzsMvnC8/OJZOrZcpL9vSfd3fNmEQXh86R0bHw7FxljXtELQ0ODRlX4ymd1/v6WOaKSsMiUdPpanc9fvrk8dMn85GF7t6eYb8/mVzF3UwEg4qiHB2fUHcWcjA2TVGUjY3N7t6e7t6eZHL16Phkb//A2+lVDwaQJAmdv5VyxeGnw7NzBSvOuFob6Wh3b0/FRQCcyt5Or3FF5el8/svzvf0D4219/bYeshCNajof5XKPcjnij72PiWDw6Pjk8dMnGxubyAedQqtgdzgURYnHE1QexkMyuapWtRXvxnjz5g3iaGSPTDdwwROudhdMz4r0FSuKQl6Rgh1yeTqfmfgzMEx/3t1VFIWjs7u3R1EUPXcrWIQ2R5nJ0JSiKOgNUhRleXnlVJu/H1OxsbH5+OkTTUpgelZKuUOth2fnWPtB83cvTqb1UytMz0opd6h11q7Tq8yzonM+sqAoCv2qt9MLTY34c9D5rt2TzWaBHXKguyE70beOCE7uanRZtJwq1ah8/ddraBwzAQrsPTR8GvZ9JBorX3y+ePkS3ZhmtFMF6NTU7BxP5I+YjyxYrBai09XuAovIQW+QoijzkQU4OyHD4vHE0fGJHgQw2+PxhJmBBGwDiEun09uITtC0RvR+/SLk21uaKxKm+PbtW/RhTgSDajtNXZN5On998Vs2m92+d99gi8cTenanZqsIWpsze4EdS6fQKiAGj2iWJElRlEg0xt5r9v0fm8OmnW1O9Gesr98uOcQLvRfh2bnL+A+2bimNEO/w7NxOGX0f+P7fuahNDuHK06koyvRMWA8+43zZI6O9zNmdQqtwdHxCjR48pJpOqObnvzwH4harRWgVYHdSvcCENTZTEA4Snp3b2NgsAdC9/QOom2G/v4SBrXSrdZ0oKMwQDpIHtKQYZIo71muNqGvvlM6trbvGFOodNfDGQ1lns9lhvx9GJ9E5PRNWFIVG8FB3KOaWURRlff02eZTg5VHfOpcD2wi+D/Pm0du3b7PZLCzX8UDgYjaG7C3N8DRTrwdXt9i1NdnQOReendvaumvejvr9jz/X12+jkvsHBsx//6d0/v7Hn10+nx6CBvnQ4Oo2O56nu7cnm81i8O7R8Uk2m+3u7RFFEXpc9sjwKdiabGgPwt9Jg31xSsFIFqpKAjQSje082ClYfY+fPlleXkGt5UdbX9Q5F9wdbkRFclHeVLGUsDXZ4CShgVzGmurNmzePcjmaN+B6X595NC1WyymdGLRgQKHmITNRIJipkB6PHUjJRsS9A1QURVe7q0xEJEmC/Y6A2a2tu3v7B6woff3X6+e/PM9ms8QlAg0L6jV6hEZKCK0CAmfxUPaWZtkjGw+btn5q9XZ68UmD0Uwm8+9nz1lZ8E7YPX76ZPvefeJyeiZsppHO1e0HOvf2D0wGd4JUMxF0iNigp6UIYroJBMiVSSRdjaq4u7eHnUcF/UmxxSV42qlmEWVMt8ddp+F3IR0wIxp9nHpDuLjaEFoFEqJUn5FoLB5PqCu5f2CArDjuOsa7/6DT2eY0Cair3VUw+hgPzM7yyk5ZiNviQjaN77Woo3aHw9vphbOJqo8SE8Fgd2+PcV+F3eH45PPPhNCoevth98fDOv/79cVvL16+xEP8+uK3bx/m2Me8emeadj/5/DM9dSy0Cl0+H01cQ9WLxHgg0OXzleOe4+kEcxQcpB6+YXLkBqu18TnSXVZ5olcEPeGrwzRgZkT1J59/dmXzpuZ29c70v589r/ft8PDw+S8fnuLw8PDqnWnN572yefPj76MFvuSWZlEUEb0OpWqmkguKGw06C4pPvGNj2UlaAyIdu0if/4lehdCo3nu6snnzq+y8cUxCXRxFgM7jp09wt4+fPvkqO2/w1Fc2b37y+WcFeapsAZ5O84M3jO1O2NenZuX7IHNWZHL2aGUfqcyrcVLz6p3pbx/m/u/xPr1OLvF/j/fNb4iMUf//eXeX23Ye/qS5/bD7I207D3Z2Huygq4L+G3SpoAwVwOnYTae3KYFltW5t/uvW5r9Ygfrx91EyT8usZJOn/4NO82iiYeRqd5GrkvPGYwIZGLL5FQXeT+Tu7nDTiEqKIDZ5o1Ur9vH3URIh3z7MseqPtDkHKHbNiEw1l8jh0GR3NRh9D6UmmtlsFjOVqv/nyz/8if6DRVzEeJW3W5v/ogqpsvj8QGdscUnTbWScSSM3MpkMF3+JmYgtVgtJzfMsMkG/3eGgN/Htw5wBjuWw+CiXY/lj08WyaIAjycjte/czmczOgx3kIJ3NZiEvdx7sZDIZAnRr6656I0CF0GjVxMQHf+erV69KG1fk7fQilgJ0wp0LixgsQkYSoOdWZKLSSa1fvTPNCkgzLO7tHxQrGjVYhHj7WzqSvqaEWigih2WRTQM7nE4Ibt+7v/Ngh3YxYbEayq2tuxsbm9i+uPUNmkc1oDObzRrLSIOjmIcjnd6mBj48uvAWiaIotAqRaAxtqWo+Wwm/RXR++zBXkMhiWfx5d1cDx79BVFuQJuUiy+L2vfssc+n0diaTgeyEsASC6fQ2u0tcEovqBMTnx99HS6jVkk851ewGIUgGXF5z54cBoRMynd5GSwiTHFG/reyRESZna7JV2aYuoVKIzh92f+To1GOx+mqaxZFjkdvNZDIUfYYE0ZnJZFjRqMZxY2Nzff02u9VGdiLqtn9gwGDr7u1RYyp75MGhIUzFsX3vPiKMqA1ETiXZI7ORyCVAU7VTiM7KsHg2appDkN0lKYgFBt4NM6QcyFESpWo0WRA107Wh85mJP82RG6BzY2OTjQJxtbuoYX7N7cYyNoqiuNpd2KqGWgk/RHT+vLsLQNkmC5eulJoGMVDKqdQaFq+ZCAbHA4GR0bGR0bHxQACriMQWl5LJVZBnYCyCSIhYVijSicjURFAzM5VaS6XW6ozOa253/8AARycttUbhS1wIuvnwvhLwKvMUonPn4U9lsliU1ZhKrc1HFkZGx4b9/oIbumeBKYlGtSyEsCQ619dvq5W1Jovr67eBI/e/bujE2l7X+/q6fD4Et2cyGSIDgUjUdQm7k46e5wTR+cPuj5USjayZyKahkZPJ1YlgsCCRmgWwxgjxxybAIoxLILi1dXf73n1NHDkK9Xbrhs7rfX3X+/rghILs3HmwAxzhTsKkHQCxHumEm5r+k0OHEnqeHVLTLIhIswYi1vUKTd3QxK6ozIlgMJVaw8U5+EAkDm3fuw/ZqQdfwfza0Pnq1at0ehvr9un9Hw8EqFUke+Rhvx9oeju9GGgCfyf5NVkBWY90bt+7TyAioYejmkJNFjk0l5dXTOpxM6ROz4STyVVNxb2xsQmlr6ev9aBMJle5rTZ0Koqy8/Angs9MYnBoCNuw34/Y3nR6mx1FydJpsVrMx7dzJ1Z5lzQ7fIRqIvVYVDsaORxZAzESjZlhzmQZzJyPMDbITgKuKGHJsajerRmdr/96bTxyA4bmsN/fPzCAeNUun6/L58OQNLbNXmWeKvtzajr1cOTg43ZZFtn0xsZmeHbOJHZmik2GptjwSkyhv7GxmUqtra/fTqe3kSZeKaGGr2DOF7e++eLWN1x/dWXrn7vah3524/k7YWh2+XxY5Vj2yBCx1DBXR4Fwv1QXuyydLJccfOpdFkF1mtorlZWa44HAfGQBjifyQEWiMayjCkCBY0HyzBSgJdeqNqj6A517+wd6MUreTu/g0BB6hqDQIUElSYpEY3AYNRidav7YHDV/bA6xyCXi8YQZcWiyDNBUS2I05M3QZlyGWFQn3gW9Y0bB9fXbscUl48DkcqTSP+iE4ahpd0JYDg4Ndfl8aBVh5ENo6kZD0kmO64JOb7WjkYMStmAyuWoSO/PFJkNTkJ04ZWR0DKOpxgOBeDxhDJ/6qJpCvZya0elsc5LW5jAlCSpJEgabmxmTWc6nU/1zSbOzspBLc/Bxu5xPh3ZLdmqqYR0PBMYDAeRjWVVq/kPLD/v9WDhUjSDl6JFnJr9mdIqiSORp0unt9GLKLuORG9UHqyK/SHTCEVNQLmo6cYhISsQWl9SQlZYDeTkfWZieCaOfE3M/EaB0WUw8ARzNMGeyTDyeGBkdq41md7W7vJ1ezN7B0XnN7b7e1zfs9w8ODSFGztnmNIiNrwguVb4ISycnFLFLwBVMUOs4lVojUUfolJaYCAY5KIf9fnRsqmXzyOiYSeCMi8XjCW6rDZ003q3L5xv2+zV9TKzeF0WxUeksqlcapLI4sukKCs7Q1I2JYHBkdGwyNAVMQTkpdA56LG5pDB93lANRc7cGdKbT26ywxFzabMA8HJxsmWtudyPR6Wp3/ddX/wOvXlGikWVRnS5fcJKhORmaCk3dmJ4JT4amoMr1uCRqOfi4XU34CmbWgM5hv58j73pfH5Q4AuE0pamBN767twdTe74Ln8tmsxarhZ2K22K1PMrl2Fk5aZLEKmtzi9Vi/dRq/dQ6HgjoQalmzmTO8vIKJ8+K3WUNTXiRqHee/J0G14xEYyyRBckzU6C7twfT+EuSZDwxWJmv8tSj9PjpEw5NeDfhewemrBylwnozJGK8UTK5ijYWJpXd2NgkHDEToqIoNMfno1wOEJf5SOZPd3e4J0NT8Xhiff32zsOfJoJBotMkfFwxahFTokz3u9rQnAgG5yMLoakboakbrDtJD9DQ1A0zwBUsE1tciia++3omMhEMXnO7zVdyOSVP6Uyl1gg4NoH4Yvje2Xw2bWbuY9wi5kzEzKIQukfHJwAXsCJdzvMUda6aTo62grtEoV5C3VjRw0gzX9PQHA8EJkNTMEA1z2Iz4fssCB9XILa4pN5q1s8eicZY4Ng0ZDibw6W56GPwgR5OjjYEK2Ge2Hg8gdgfzEALWE1OiVsUggaFi6VTD0GDfLWjh0WnYLpYQ1Pzghx56l01iJo5taETkxSrb5rNMRjtjvUu1D2ZyMd6RRSJ/PjpE6xa9CiXm48szEcWoOvj8YTeqhoGeJV5yJhOA+ZMHirN6IRoRFuqBENTDSj7HpHWhK9gZm3ofGbib2//gBOZtKtHp8Vq8XZ6cZQWLkomV5GGxQmR6e30PsrlaK2tMpkzfzpH53ggYBI7g2JsE6QEOtEGwpSOsAqKNTQ16SxInpkCjUYnQAGCUOgwPbGaFo5ium5FUaofA1o+nRyL7G4yuVqQTs4fhFg4GAOAkiSoeUNTk87l5RUz/BmUiURjdUknxhWpNTsrw2jGeJierGvpUS6H9WJI+7Mnnmm6WDpZ+AqmMbpSzQrlIGp4MjSFHHXMESZxLt9dGltcSqXWDMjTPKQeJVGXdGKJX45OfPpwJ8GRRC0esEhraMTjCXKInimL6ovbW5qFVsHZ5sSk4FjJk9XaBRE0KAAgiEXNBGQn8acXc1Rm02o+soBPRZNCZKpZVOfUhs7Xf71Op7cNplrAITI0uQSWBOboHPb7WVc8OTUtVgssUYIVep9r3atJqkKOt9P735PT0cR30cR3BtiZOZRMrmIQsCaUbCbnUedijjCYnS1fQjo8O5dKrXHKXQ1fwZza0KkoyuHhobvDzWFnZlf2yFh1gaOzCjCdxU9QFIgZBKmMulEMR+l8ZMEYJshOVmTSVOJlykv2dxGslEqtFeTPuAD6eLFqyllUvvqaH6KP0Qdghki2zPW+voaMPiby1Ak1i+qcVGotmVw1nkABIMLuZEUmm89CVnJ6PrKwvLwCS8OYP5NHvZ1ezCWIubH0ZpVX01Zszgc6dx7ssNiZSTdw9DGr3NXwGecAheXlFYOeRs5zxIlMri1fMpcIQ56PLMTjCZieJvlTF4NzGv/fRVzUIL5TFEUzUFKZBo6giya+M0bQ4CjoxHRIWHcC4V30v39gYDwQ6O7twSjCiWCwf2Cgu7cHzSMqVpHEsN8/H1lAs315eUWNnWYOy6I6/W4ATw3oROtVb+wbQXnN7cak8Q0cfVwCndQiRpMotriECHaMJmD/Dw4N9Q8MUE7/wMC7mDSwSJmVSkBIg85kcrUEFs8RnRiPgdU9aLZYNmFyRZhiLYxzUp5aRQaikQ4RjlyCpXM+soB4M5a2/oEBTKaCzO7eHozBYMtUJN3l84Etjk41cEXl1Ex2mllQiwRnA8tOQpASHIIGuxydg0NDGInVPzDQ5fN5O71dPt/I6BgmovJ2euGwY3MqgiauDOwi0Rg11IoCkQqzK2XVhs6i7E6s+9lIsfEWq4VkpwF8BQ9xdI6MjkF3Q0ACyut9fazPyNvpxZitSnGJ6/QPDAAvkp1Em3GCZVGdrgGdP+/uspalmXQDt4oKImhQADNrolU0H1lAICZwAZTQ9V0+H03lh9HYrDFaEUzRJKJWEZxcai7V/Bnn1IDO0vydl7KTxRTLmGK0MTxKscWleDzBmp7UBmL5QyabU37a1e5CfzJ5lIhOY/gKHs37Ox0Oe0sztjP3dxoEyBkL0Ub1xrPM6aXV7V/MwIGOItAJMjAdGgGHYb60OzI6BtuUciqSsLc0IxKPvPHsot8FEVQXQF+Rt9N7dlPTcI3jU2/88vKKMYV6R2m9ogbryYxEY2oo1TiyOZjUHX1LaILgCvlm+5e9I6NjLHOsNGXzK5gWRZGUOEzheDyhZs5kzvRM+OPvo7VZEUY9IFMPR3X+0fGJeoZEjLdEJyfi5RAIgoGXyGf/cx9NrXapVcRiZz4NQIHC1tZdBF7MRxYwhflkaKpgqE2lCoiiSO4kxCihJ9Mki5hfZHomzG41o1NzYgU1iJo5iIjjZKeiKBsbm4igmwgGEa8EJ99EMDgRDGI0EtLVjzvWo79MOiFxk8lVTFhHDaPJ0JS9pRkPWyn+DK5zva/P1mRD9BM1iRAFokcnS6FeujZ0Hh4eGizPg0N6gzavud0/7+6qZSeFGxMH2Wz26PiEQoxrOHqdbkmdKJnO2OISidh4PIEJmKgVEltc8nZ6hVYBvUQGYJV/aHBoyN7S7GxzklpHz2oqtUZo6vFnnF8bOk0MK3qmuV4RRKlJOmGhkphsJDrRGILFGYnGoEmxbgFa8cvLKxPBoK3J5mxzls+f8RUw/cHg0BDohB8e8Z3G8Okdxdj50NSNRqbTYrWwAvUc0ono469nIl/PREgQ6iVIMsXjCYquAKBQppgBFFgAWXAjSZIxXuUclT0yvgH29uBDiERjevxx+YQjZsWho3VJp2ZsPAsiKVA28zzQyY3cuN7Xp8ci8KJXzu7G4wmodcIUxbBKy9bWXYSDIJoOAZHujvwqZBXfgKatyYYRS3QboJMg4xJ6LKqL1YbOd4Hx+eVvmcVu1WkDl9OLly/N2J0YoUELvZ0HOrlRb4NDQ0QngahOYGYiNICguMEltYGAIybAWV+/TY7P+chCl88HQF3trsraoNfcblzZ2+mleyaLMx5PEG1mcGTLULo2dCqKUvIaw3r+TlZMYnVXjL0kOXo+6aT3apyggPn5yAJgJVcisTsfWYBrCa4cuqAkScBIaBUqJT6dbU5cUxRF8sCjb50EJ6emCdbpmTDxZ5yAzYOVq+g9nmni1Btfcl9R95e9miM3FEVhp/h6/PTJ0fEJO/atrukkYYlWcGxxaXl5BdFMsEEpH3DAmwNAp2fCoigCJluTjWaqKoFU9DDRpZxtTkz9hR9ivw2WRfM46sGKLgPZI1dpDjpFUdjV3DT9mpqZev3scNErinJ0fPIol3vnZCFfEr62c0gnRfSQnGMTAC4SjYVn52BowtlO+TBA5yMLyMF/QoS8S5hBjgXU1mSjKBCTjL6Lw+jy+djBPc42JwKNcc+k05PJVT3ISs5/FwpY7dj4Ypd7u+Z213uMEmd3snSyhFEaHdaxxSXkQGSCVw5K9hQSn6wBGp6dI0uRhB86eIwB7e7tQdufzrI12VztLlZqEpoYtVwyhXon1oDOvf2DouI7Xe2ueo8+VtNJVOklWCIhRKHT9QIspmfCrP3HAooeTlb+scDZHQ4aoSCKot3hYI9S2t7SzPZYUsAHPonY4pIeYeXk14ZODNug2eM1VTkGFSH0+OLQCQHJikwSloiRwy5n3tEuhkSCGFbFz0cWJkNT7o7T5jYxZzJxze2mGDlOocPPWg6C6nMn/3cGWy3pxOANjCXiAIUVTGjWO53U3sTM3N29PZoik5rhdBStIs1QCSKSS7DaNplcJScoqJoIBhE0aYZLe0uz7JGpGx1XiERjZONWCk3CkUvUjM6CghO80tAivVYRvfg6SgitwlX5S3j1CEROXoI58iJxCBrshqZusIBidDnAov/h2TkMzkT1ktJHr4EkSVgLhXxGdCIrm0tGk0PQYLc2dJoZK0zSFDXYSHSy44rCs3Pwt2PU7/RMGA4jyEsEbhr3DbKakajlMNJklJgzk2DjnWE5xOMJ9qf10gbwFTxUAzqN1xgmKNlEA88FQi5M+C+x/iS5OeF7J+Y4DyKbz6YBCoVlUFueZukwgyPKoI+KVeW4WiQaOwscOV5lj1wdlXjqjf/9jz81l9RgWdRMDw4NaXrjq3P3FfwVNIopgg5tcLS4WUAhNcOzcywELIJsmi3DprHIFUsn0piQlvymHKxofi0vr6ihhDZn74rjqSK7sHmEVsHe0lzBmje41CmdW1t3NeErmNnl8zUAneizEUURdF69k58nkTgDFvTuKZ9LsPyZSXPtGDWsJnMww0dF+DO+SM362UNTNwqCqFlAb70i9K1jrQL0GGEtIs0uIi4Tcco0wafBt1X+IVuTDRdRy0506pBO57S5Gf7MlEEDyySIXDEIdWOkSj8ampr851YzOq/39WnCZybz2bNn6hglV7sLfZiYqgUDqy1WCwciyGAzk8lVrke+fAT1riCKouyRqYtVaBWu+b66snnzyuZNzKNEPl3gImgAAAY8SURBVCM0k83QVloZMiE4/jR30YOaX4/wbwdkBRL/BJHjEru1ofPVq1fUMuW0Fe2OjI7pkaq5mhb6YdVYsCDSUcrEmgcUP08FzigBOmWPbHc48BNX5S+v3pm+snkzPDuHRjrX4ikNvqLOwpcAAxf3wLoIKgAimDaBI8do9enMZDIfVXzkBhfKybJFIKozEYxXzSm64dZ2tbsI0E8+/+zqnemrd6YhNdFAKYqtEgpXDDgDUVo8ixyak6Gp6tOZbxVVnE5NBIGj5iFkIsqO9CyL79ml3R1u9I3lAW1p5lpFYLQE4AxOqRcWa0in3eFwtjmFVqECdKo1uyaCBemExYmFCc8IR6FVYA1Ni9XibHO6O/JrkkqSJHtk8ihFE99VKoSifnHkAK2O7IQqw+vIZrPlyk51qwiLZNIgDRY1TXAp86ztTjI0JUmC0w6+JPQZ5rvK/m4VlSw1G4ZFDs3qaHahVUBMjMVqsTscOw92Pvr9jz/j8QTm79P73z8woNkq0vQoCa3C0fGJ5nLWBKIestywd7ZY+Wlbk41mypU9MkKAJUkSRdFitdiabESnycZQA7NYTTqFVgEWHb0LvOt8q0hRlIp749EwepTLTQSD3b09nEcJc4TgP+dmgitKk+xy6Pzg13wf4AOzxt3hlj0yVAkuTppdj84LhSMH6BlpdtQ/6HS1uyRJohddbk8mlLja34klXLHKm6IotPQgZCc7g5Kr3cUJVFyzgn4lW5MN+sLZ5rQ7HLA+oc1J18OpxNF5kVnk0DwjzY538UF2OByyR6Y57rbv3c/LTgxS09TdBpn1EgUCOmWPTDaNq91FaXtLM5mhROfXM5EzQbMSnh01N9XJOYu13lztLq5T0NnmxJuSJClvd4LOvf2DBo6gQxuQtAZ45eqFjaD74tY3laGznnFkof96JnIWdIqiCJ8JafP8vLXvR62Ioniq2RVF2ds/MLOkAURp3UUf5yNr3msNNIDQJOS8SyydV+9Ml0Jno7DIcon0F7e+OQs68VJIlXOKnqeThhZR25ZL1NeKMLYmG9YPxqfJ+jsRcE4WD9cqurJ5s7Byb1wWOTohOM+CTricocrRSGW7Y7TpBKNm/p/z2Hh8Wmw8IppBUPQcmqzsRCwID+iFwZGl8+uZyMffR1EhZc59zAkLVpuL7/+4N9LIdJ562t9HeOTn3/871MPZ5qRmEFUQEvaWZrwG+v/FrW/yjF5ULqHQqTaE0ChXY0XtqoUFZCcHJV3zA52/vvgNsTBF/ccUxpoeJfqNGiagLGSPjE3dDFLfmxAapZfBJuDt+/j76NU705hRqMH+0wMiwT47pf+j/T/VNWYmB7MfULQNCQsE4lBjgLvUBzrRci/5PzczN/czVduF7sAUPxh9C8e7rcnGWdx6t+Rsc9LL0ExcvTO9vn678TbNh2UzSxacaPrYHQ5NYSG0CoVlZ8lc4sRzQid0h9AqqC1LCvjQ45LyyevJvhs2vfPwp0bbHuywD6hOC6FRPYao3jQTEAoYKIeZb4GjGWGRl51FqXK9whXs2tF8SDOZ9pZmOM9gcbISFLCyzSPjC9odjk8+/0xvE0Kjdbpd832l3q7KX6qfFG1irJpV5npZaImS3Y+aNyMs8nQav6dze1RTI+D7RtQmGIUHXrPwuX20BrgxLANHD8KqMsTiIKCWCmgm6pVOljzuwWDlINPd4XZ3uLmvlit/uVvxGkBgB+kuxH+5O9yYWRcjIs3YCfVKJ3X2qJt7oFNoFczojoq/mMsLwmGHJikARZ1AoKjfl0GN1TGd+ATVvZEWqwXfbl5qVmteAIMqvmiH0MuNWUVJWKISEBdmvkLqm06L1aK2uBHKakZxmK+my5IFa4AMTcRospN2l2z01z2dNCQIOAJWtq+2YLVeFii/BlhDE64iCgc7dXaWpMQagU60Ad0dbtTRpTYvn7airqA2NCmYAU31koVFI9CJJiHbQiyqci8Ll1kDmoYmxWiWY2I1CJ35JnxLczkVUeYbusinV9DQ5KqxcejkHuxy90xrQGgVsNYCufYqYmhy93xJp4WrkcvdgjUAsxJhXwhrr5Shyf30JZ2XdBauAUwfCXTQBld7SCpiaF7SWfhlcHV0wXfZPh54i9hxamfqJ0mnt/8f6UBwkmKDk7EAAAAASUVORK5CYII=;points=[[0,0.23,0,0,0],[0,0.36,0,0,0],[0,0.5,0,0,0],[0,0.65,0,0,0],[0,0.8,0,0,0],[0.25,0,0,0,0],[0.25,1,0,0,0],[0.5,0,0,0,0],[0.5,1,0,0,0],[0.75,0,0,0,0],[0.75,1,0,0,0],[1,0,0,0,0],[1,0.25,0,0,0],[1,0.5,0,0,0],[1,0.75,0,0,0],[1,1,0,0,0]];" vertex="1" parent="1">
                    <mxGeometry x="650" y="-100" width="223" height="137" as="geometry"/>
                </mxCell>
                <mxCell id="137" style="edgeStyle=none;html=1;exitX=1;exitY=0.5;exitDx=0;exitDy=0;exitPerimeter=0;entryX=0;entryY=0.37;entryDx=0;entryDy=0;entryPerimeter=0;fillColor=#d80073;strokeColor=#A50040;endArrow=none;endFill=0;strokeWidth=3;" edge="1" parent="1" source="136" target="130">
                    <mxGeometry relative="1" as="geometry">
                        <Array as="points"/>
                    </mxGeometry>
                </mxCell>
                <mxCell id="136" value="&lt;font color=&quot;#000000&quot;&gt;120&lt;/font&gt;" style="pointerEvents=1;verticalLabelPosition=bottom;shadow=0;dashed=0;align=center;html=1;verticalAlign=top;shape=mxgraph.electrical.resistors.resistor_2;direction=east;fillColor=#d80073;fontColor=#ffffff;strokeColor=#A50040;strokeWidth=3;" vertex="1" parent="1">
                    <mxGeometry x="160" y="753" width="100" height="20" as="geometry"/>
                </mxCell>
                <mxCell id="140" style="edgeStyle=none;html=1;exitX=1;exitY=0.5;exitDx=0;exitDy=0;exitPerimeter=0;entryX=0;entryY=0.49;entryDx=0;entryDy=0;entryPerimeter=0;endArrow=none;endFill=0;fillColor=#60a917;strokeColor=#2D7600;strokeWidth=3;" edge="1" parent="1" source="139" target="130">
                    <mxGeometry relative="1" as="geometry"/>
                </mxCell>
                <mxCell id="141" style="edgeStyle=none;html=1;exitX=0;exitY=0.5;exitDx=0;exitDy=0;exitPerimeter=0;entryX=0.63;entryY=1;entryDx=0;entryDy=0;entryPerimeter=0;endArrow=none;endFill=0;fillColor=#60a917;strokeColor=#2D7600;strokeWidth=3;" edge="1" parent="1" source="139" target="132">
                    <mxGeometry relative="1" as="geometry">
                        <Array as="points">
                            <mxPoint x="125" y="810"/>
                        </Array>
                    </mxGeometry>
                </mxCell>
                <mxCell id="139" value="&lt;font color=&quot;#000000&quot;&gt;100&lt;/font&gt;" style="pointerEvents=1;verticalLabelPosition=bottom;shadow=0;dashed=0;align=center;html=1;verticalAlign=top;shape=mxgraph.electrical.resistors.resistor_2;fillColor=#60a917;fontColor=#ffffff;strokeColor=#2D7600;strokeWidth=3;" vertex="1" parent="1">
                    <mxGeometry x="160" y="800" width="100" height="20" as="geometry"/>
                </mxCell>
                <mxCell id="143" style="edgeStyle=none;html=1;exitX=1;exitY=0.5;exitDx=0;exitDy=0;exitPerimeter=0;entryX=0;entryY=0.54;entryDx=0;entryDy=0;entryPerimeter=0;strokeWidth=3;endArrow=none;endFill=0;fillColor=#0050ef;strokeColor=#001DBC;" edge="1" parent="1" source="142" target="130">
                    <mxGeometry relative="1" as="geometry"/>
                </mxCell>
                <mxCell id="145" style="edgeStyle=none;html=1;exitX=0;exitY=0.5;exitDx=0;exitDy=0;exitPerimeter=0;entryX=0.87;entryY=1;entryDx=0;entryDy=0;entryPerimeter=0;strokeWidth=3;endArrow=none;endFill=0;fillColor=#0050ef;strokeColor=#001DBC;" edge="1" parent="1" source="142" target="132">
                    <mxGeometry relative="1" as="geometry">
                        <Array as="points"/>
                    </mxGeometry>
                </mxCell>
                <mxCell id="142" value="&lt;font color=&quot;#000000&quot;&gt;100&lt;/font&gt;" style="pointerEvents=1;verticalLabelPosition=bottom;shadow=0;dashed=0;align=center;html=1;verticalAlign=top;shape=mxgraph.electrical.resistors.resistor_2;strokeWidth=3;fillColor=#0050ef;fontColor=#ffffff;strokeColor=#001DBC;" vertex="1" parent="1">
                    <mxGeometry x="160" y="845" width="100" height="20" as="geometry"/>
                </mxCell>
                <mxCell id="162" style="edgeStyle=none;html=1;exitX=1;exitY=0.63;exitDx=0;exitDy=0;exitPerimeter=0;entryX=1;entryY=0.49;entryDx=0;entryDy=0;entryPerimeter=0;strokeColor=#d6b656;strokeWidth=3;fontColor=#000000;endArrow=none;endFill=0;fillColor=#fff2cc;gradientColor=#ffd966;" edge="1" parent="1" source="148" target="130">
                    <mxGeometry relative="1" as="geometry">
                        <Array as="points">
                            <mxPoint x="730" y="333"/>
                            <mxPoint x="730" y="831"/>
                        </Array>
                    </mxGeometry>
                </mxCell>
                <mxCell id="163" style="edgeStyle=none;html=1;exitX=1;exitY=0.54;exitDx=0;exitDy=0;exitPerimeter=0;entryX=1;entryY=0.43;entryDx=0;entryDy=0;entryPerimeter=0;strokeColor=#0e8088;strokeWidth=3;fontColor=#000000;endArrow=none;endFill=0;fillColor=#b0e3e6;" edge="1" parent="1" source="148" target="130">
                    <mxGeometry relative="1" as="geometry">
                        <Array as="points">
                            <mxPoint x="700" y="307"/>
                            <mxPoint x="700" y="803"/>
                        </Array>
                    </mxGeometry>
                </mxCell>
                <mxCell id="148" value="" style="shape=image;verticalLabelPosition=bottom;labelBackgroundColor=default;verticalAlign=top;aspect=fixed;imageAspect=0;image=data:image/png,iVBORw0KGgoAAAANSUhEUgAAASMAAAEjCAIAAAD2QvB6AAAgAElEQVR4Ae2dC1RTV77/7cydmds7965Zt+v/nzt33bXsfzqWduxMJ2B910dta2sfXGvH6thqnbZjW3QEosSqU99YFUim4eUTVFDD6+QBeeeEJLzfiooVERREBeWlCITnv3Bw55CchCBwzgZ+rL3szsnJ3ie7v0+++/z2b//OJJ6YcF3eOyrfFqc+o9TrDaSzcjpFJzinWnxE5ropeBdGYMyNgKeY8D4mF5xTHUzSRMq1Z5T6OLXhmEIXQmh2xqs/iVZMDx2EIJ6YWBqjm+Tim795WCaUapzR5XhcZyD3J6oXRgJvgw+9i2GHtzAZgUWR0t0JqiSNwdHU6UdUOsP3Us2KKIWLy3ZKmlco8W2cSqt3KmL0nuzqar1h0zml52BS6eKy4C0YAW5HYG6EdGe8SjNE+4+Ua987yswbM2lzwqWRcq0dP0N9KZRqZoTBTzuMwNgbgZVRimTdIDrmDAedgdwep3KUGQbSFkVKJSpXt2TO+nA8fipFNzdCOuiP03N+gf/98QYoMAKjNwJTA6MGtUPqhI1nlDrn/ghHI2c8EirVzBwoM/akzQwjYl16PhjbdXHwqFw7LZQZtiXRmlWS1FWS1Fe3B0/9dD0UGIHRGwHviATK2OZEMs/uKMy+jVe5MOYhvRWj1M0Ks1n+ANI8xYRY5pb/w0AajakmA2l0p+/ABDXjz0nCxfKevr8EpVrw3UEoMAKjNwLllVWUsa2ONzFaI09MfBWT4o49u39OmEyLppEDSNt4Rum6lfyCwurbt1taWrq7u3t6erq7u5ubH1VV3crJyXX9wbWnkh2/HpA2eoYFLduNwKCkLTuu0OgHvzezpKXl5Obl5uVnZGa5ozTfxqsoy7eRNjtcqtA67SkzK7uhoYH6VWD8t7b2niUt3RlvcWrDNIc1Bzppa7fvhAIjMHoj4Jq0aaGEa99EekbmzcrK1tZWuvF3dnbW1NQWFBY5M3vquPdx+YD1tH9InM5Qz18o7uzspPfBWLda23Ny85z1+vczSjtZQ6Qt3yd6xvtjKDACozcCitwiymgZZ48bYl3N5ioqblCTOEaz7+npuX+/zoXMHFFobaTNCpeqnUhnYdF5193Qu+/o6MjMymaEjdDo0ZyVQo5D0v7v0tW/WfYpFAxH4L8+WDMavLkgbVa4VKZldraTRlN9vaupHDJ+q9WalZ3DaPl6A7kyStE/e1xzMpnxJEtaWntHB2rOnUpzczNpTGVs7X+P9cooKhySxg/656Y9gVAwHIHd/wydunbDiMPmgrR1p5kdIQbSWFdX747NU+dYrVZnyiaWafpJO5jE7HKsvn3b/Z7QmVevljKStk3Sf3fIuaZtOxQyCf6wHIG33nt/vu9WNkn7XsocpHGtrAyZtJuVuro6RstX68nlsX1xj3ImX4jZkub+vJF+Ka2trYz9nVbqkaDxxASHmgakYUlZ70WxTNr0UELFFA5iMlvc8U3QzZ6qFxYxO0g2JeonzQ6XMoJRcuWKY0NuHsnJZfD7K3UkkIatiWNyYSyT9ucTCkbjLy295qap251We+8eY4P/VBgmLT4iY3yvuvpJpo5Ux1d++IGxTXqICmgaJsaN1WWwTNoXp5k9FPX1Q7hDo8PW1dXFuM52LEU/yRnWdXV19CaGVK+ouMFI2puHbU4RIA0rE8fkYlgmzd9JtEbHEB2BdDqyshnc72fV5KSVUcwCWvekWPf09Ny4wUzakqNAGiYmjellsEzaTqZARwNppJMz1Hp+QaGjzMh1hknvHJU7vqE3kHfv3h1qH+j80tJrjG3ODbdtEgVNw9TYOb0slkljDNgYJml5+QWOxk9oyUnzIpg9IqXXhuzlRKQxhqho9Ab64jWQxqlJY9o5y6RtdBId0tbWhox5qJX0jExH0mLU5CRPMcG4tzQzK3uofVDnd3Z2Mi5ex6vAy4+pfeNzWSyTtvYUs0ekprb2yYzfam13xExvII8oDb15RMJlzIt3boai2F3TzcpKxs72Jw7YPgOaho9943MlLJPmfYz51unipct2Vu3my1u3bjEa/yG5vpc0nxjmCMuc3NyhLl63d3SYLWmMnX0cPWDvDJCGj33jcyUsk/bj7Qxj0CNpTLWL3HeHtO7ubmdxv+vj+mJEFkYyL6npDeS1Id6tnb9QzIiZSmewS9YFpOFj3/hcCcuk8cREYKKa0WLPXyh2hy76OZVVVYxNyTSGZVQ0Fk9MOIv+0hvIioob9Oac1bu7uy+XXGHsSW8g9zrsvAbS8LFvfK6EfdJWOVnl0hvImzcrnVm74/GmpiZG94TeQAYmqm07Qd86InORqKT44iWr1erYOjrS0tLCuIxAgZeiM8xzSN0DpOFj3/hcCfukeYqJ0yk6ZwrhJmyNjY0ms4WxEZ2BfPOw3EZan4wyR/RTnzemmkpLrz148BDRRSU4aGxsLLlyxRnN1GcF5wZE8UMsPz6WjduVsE8aT0yscC5regN5objYhdO/q6urvKLChf0HJmpsO0Ep058TLo1TO01wgHhNNZmzc3Lz8vKzsnOMqSZ03FnlZLJuOi1JEAoyBk3DzcpxuB5OSOOJiQiXCU5JY+qly5fv3bvX3t5OKU1XV1djU1NZ2XVLGrP/j8JBqSMX9KX0HqBpPDHx9hF5MtMOGmcUDXqc0OipnhBgqAKk4WDZuF0DV6TNj5AOmhWcsnbSmOqOwFAnrznZ72+3J40nJlZFuZUkaFDG9AYyRWeg0pUguugVIA03K8fhergijScm3j8md5bjwx1rdzxni8SWO4eBNJ6Y+OC4nHGRwbEtF0fiVfolLh89A6ThYNm4XQOHpPHExOroZPUQc/E7QyAwUU2PPWQmjScmXouU/Zjr21krgx4/KtfSg4npUobqQBpuVo7D9XBLGk9MeB+XExrmBD6Dmj11gs5A+p61qRll8E5J44kJr9DerK5D7TVepf/sVDKdZoSWXQVIw8GycbsGzknjiYmFkbIjCub4xEFhS1TrVzI93skVaRQYM8Ok/LNKFwsOiOMTydr1sSmOGVTtAEMvsSLtp0/969M/+S8oLI/AL556xg51HEijTHRVlOL0UJ5RodAa/M8oGd3s9l5+xABj5bVI2YZYZWCiJlSqOZWiS1DrTybrvpdp9yaov4pJmRdh23jG+HHHg1iR9sxP//inpwVQWB6BKb/4GFvSeGLCU0ysik4+kKRmTGlFaYxWT0bItT6xKXPCbc+7cLT2wTXN8TMjdQRIY9msMewOc9KQqXuFEsuOy784ncw/q9wVr96XqN4iUX4Vk7IqWjHbJWCoBSCt/ycVNI0TDscKaQiYJ64AaUAal3NmIM2W0/uJIR70gzB75ERGsOp04pD2zomU3p2gnBQgDSuj5+RigDQ22APSODFurDoF0oA0Lu9esIJhVC8GSAPSgDQ2RgBIA9LYsLNRlYsx0TiQBqQBaWyMAJAGpLFhZ2NCdkb1IoE0IA1IY2MEgDQgjQ07G1W5GBONA2lAGpDGxggAaUAaG3Y2JmRnVC8SSAPSgDQ2RgBIA9LYsLNRlYsx0TiQBqQBaWyMAJAGpLFhZ2NCdkb1IoE0IA1IY2MEgDQgjQ07G1W5GBONA2lAGpDGxggAaUAaG3Y2JmRnVC8SSAPSgDQ2RgBIA9LYsLNRlYsx0TiQBqQBaWyMAJAGpLFhZ2NCdkb1IoE0IA1IY2MEgDQgjQ07G1W5GBONA2lAGpDGxggAaUAaG3Y2JmRnVC8SSAPSgDQ2RgBIA9LYsLNRlYsx0TiQBqQBaWyMAJDGNmn/9pLX0y/+aVTLrxa++4z3x1TZdijE7qGv8KRCTjRwYpG2JFozpPJ2tGZEngJFf9bMUz//hZ3pj/jLX3rOBtI4wclFpxOLtJ4h/j1q7wDSXFgPvOX+CABpruAD0ty3JDjT9QgAaUAaG/4A11Y4Ed4F0oA0II2NEQDSgDQ27GwiqJbr7wikAWlAGhsjAKQBaWzYmevf+4nwLpAGpAFpbIwAkAaksWFnE0G1XH9HIA1IA9LYGIGJS1pXV9vditOuS2XZSb+Tm4Zf1BkiqqPAw3/9xdM/G/HwK7sGn50x1WvF61TZE/yd3bsQ9+hafEbp3YlLWoe1PlvxHPvlV//xUzvTH/GXc+b/evXnv6NKiGiHXftA2iix5LpZII1t2IA01xY5Xt8F0oA0Nu5Sxis/7n8vIA1IA9LYGAEgDUhjw87c/+0fr2cCaUAakMbGCABpQBobdjZelcr97wWkAWlAGhsjAKQBaWzYmfu//eP1TCANSAPS2BiBiUtazZ3rK97/Ffvl5z9/yi5oY8RfQowIhsI4cUkrK70w4iaOSYNAGpDW09OzOt40IpndhtrIOydSJtHj9oE0DM1xHF/SGNI0D0nQExQEJJDWr7gQYcwJz/iQ9kqYbGmM3keW8WGsYUa4DBFCVZwx5hUftEga8oY0ZE5S8O/jmFGkWgDSgDQ2PB/OMMaEtG3avPuPWnt6ehpbrV3d3Y2t1t1kIR02D0nQZK0vKs/pfN9K53+Zx+cX2opvAf+jLP7LpB86bbLWl0KUJyaANCBtopP2tSy9pb1zn7FodqScJyamh8sE6pz6lrYAVQ6CDZHmIQl6jQjelyoUWUSMRWgRrVGGvNA31QTSfgf705yJDMvHcdC03KrafcYiBBVV8ZFllNU1oYOItMWy4BCzU8wQe+u1whf6ZBA0DXaCcilliGccSKtraXvzhIonJlaeM66TplF0TQuTPmrvmP74ho0i7Y+kX7B5gJTtSA8JKNjPLwgUZBw4NJDAj5VC0DTQNCww+9PTAhxIu9fc+kYfaUGW4oSL5RRpcyIVXd3dr4T1u0Yo0tbk8JFq7TeLBFX/EDwQfHPpG+947wXHFrx1aslmcj86IcQsnGqA+zTIbvA0FrDhQJqhrPrM+bIDpvOGsmpE2g59fkltA3326EX68Qv7STtoFm2p3RrQFLAiecWUXVNQeX738/7avQg27ww+zB5h9gik9T+O80tpesbNu1Q5aL7AExPTwqQJF8sF6gEeEe8Mf0Qa/0Kg4IFgY+5GxBiqvPydV/DjaaRPPpAGmgaaJh7Cg289JEFrcnod+iKLSGgRCeq3CB4I5h+djwCjV/ja/jkkv5DvmRDsIQkCL78tUAxWrpGXgs0KDrPHlB8qS2oaHEvmzRr67HFd3+qZyCLqvUN7IBA8ELz03Ut0wFD9M2IbNYHkF/LnJAFpNsp6a0Aam4ChvnAg7dMEk488g172GYuqmx7dedhCJ+3z3H5NO2QWBTT1kuYV4oXoolfWKXYi0mYCaQNBA9K4uW3DgTSEE09MLI5SxxVfb7Z2xBRde/14r+ufKh6SoL9k95Mmsoh8ru0QPBB8KP2QDlh/fbfHDjIEkTa1L0QLZo823EDTkM6wWcGHtEXHlDFF1x5a28+dL6OW1xBmPDHhIQl63WLziGxOFQY0CQ5VH+IF8+xgWxzzJfI9rs0Fjwh4RMAj8livFhxNicq/+qCtPeFi+VtRajpgqN7rrNf7+RbY1tO+zjgY0CTYf3P/GyffQLAtOvXpfpMtgmSh2R+8/ODl52a6aCeYOGha8Z36np6e4jv1mtIqekm8WEEnbbLWd0m6jTSRRbTZGLzuwh6f6q3byw7+LWPXOt3BQ7QIkp1G4W91fkAakAak9d+DbdXkBVmKHcteoy2cn4oR+a3OT6C3SRY1SxRaREIaYNTBQ2bRnKRgiMaCaCwsMMMkGgsJl4sKijD+Q1zQZgfY0I0ZVTlgFi2UhlAfAU0DTcMCNhxmj9LLN4pu33cspvI7iD1E2mSt77Na3zfT+BsLbDvT6LvUVmbxX9TbdrIBaUAakNY/eyypaTiW+8NuspBegi3F9x+1MZJGbfR8Tuc71+y3LJP/SQ5/TQ5/ZTZ/cZr/SwO3gcLsEWaPWGCGyezxwp26tQlmBBVVWRylvvPgETpISdOT/Us1Anuu+5fUYD3NzivIzkscZo+m8jtbNLkIKqqyJt50uabe7uBwXgJpQBqX+oYDaYfMF3KqaqeFSRFIXqFS9dUqyYXr6MjwK0AakDbRSZt7WHHpbn1WZY1fStYHsXrf5ExDWXV106O3ozXDBwy1AKQBaROdNJ6YmBUhT7pU0dLe2dPT09HVZSq/TQ96RLQMpwKkAWlAWr8T0itUOv9IsleobRo5HLTsPgukAWlAWj9pdmyM7EsgDUgD0twi7clc/NSGa9g1048Z7ARlx6fv2AsOvkd3tIsRsxckQbOTghfLQt6RhyyUhvwxrnd7NWMB0oA0LgUNk5VrR9LmHlZs1+UrSm6it+jRWJO1vs/rfd9N91/vEJC1Kps/zQjZwuf/evXnv6MK5DB2lBdOjmClabMj5QJ1DllWbe3sqmpsjsgucSTNQxK0WBp8wCF4nx5k/DeNkHoaBkRjQTQWx1KGqMaBtBnhMt/kLPXVqpb2zqrG5qj8qyvPGT0f7xOlYEOa9p48ROgkIz8dNn+d8MW43odmUJNJmD3C7JFj5HAg7fztOmtn16mCUkfA7DTtT6QfPSm/0CLalhG8+cL+TRf3bs7eT99tLbKIPlVBtvDPQdM4BgwrTTtgOl9e96Cx1Zp0qeIraTo9LMuOtM9ybXuu95pFm6u3BzQF8Av4S84smR0++7Vjr/kbbAmMhRbRH0jQNMgjAnlEaPNDTzGx/CwZlX+1uukRI3IekqDpqbaMPfvNwoC+bOHLkpahJCJUZYNqF5pGfgDZwsEjglSF2woOs0ckXDwx4SkmVsenxhZdu9fceqPhIXrLQxLknWHLQud3YZ/ggcAn08cOsym7pvzhO17Q42zh6wsgNxZoGmgaTdMoohYeS/mLxPjGCZWnmPAKla6OT6WT9iktW3hAXW+28HlH5jmSNmXXFL7Gli3cC7KF25whfTXYn8aJuGGiaX4pWTcaHvY8/rvzsGWrJg9hRuV7pGULF7rOFv5XKWQLh/U0PKQMUY0DaV9K09s6Or/PuLQkWuMVKn39uGqvsbCx1bpFbdse6iEJ+sIhW/g00TRGTfsyuf9WjV/In5EIefkHihpoGrJ+Nis4kJZbVRuYyvD03Yr6AfdpK7Js92nrS3cKHgg+UnzEQNru53cb+zPV8Qv4U/tCtGA9zUYbkMYmYKgvHEira2lb7JC62CtU2trROYP29N1FZpvvUdCXLTz4brCjrL135mvke1yTAx4R8IjgMY3EgbTqpkcfnSXpd2U8MTH3sMLa2YX2qnlIgp7X+W6kZQv3MR/a1Cg4cOvAO2feeX7381N2TXl+9/NLznx2kBaoNR+yhYOXH6kKtxUcSIsvLqcnBqeQ+/G2LaeyFuFHRWMtTvNHeiWyiLYZhX/LD/yy/Nvt10K+zty33nAohIbZdlL4LERjAWncAoZ6x4G0t6LUO/T5MyPk1HN3eX0u/u3avA9i9XakPav15evss4XT2UP1g2bRTMgWvhqisfCYOuKza2ZpjN5QVn2vubWnp6eupc1ccWf5wPkkijCeGhfkOxhs+03CV5MgW3ifox80DakKtxUcNG1ZrL6to1NTWuWXkrXynNFHnhFfXN7W0bkm3mSnaVT24me1vgvM/j4Om9OonOHLsvgeOsgWDutp2KgZRTgOpJnKbx/P+wFBRVV2k4WX7toyqyJNo2CbrPX9rc5vlsn//Qz+iiz+X7L5yzL5i8z+L9Ay8lNnwq4ZyMuPRTg/DqTdfdjy7kn71I4zwmWP2jteCZNR4DHmLHDzINUCZOzpX1KD9TROppE4kHavufX9U1o7TZseLuvo6kKk2b37BC+BNCCNS3HDgTTN1apIWiIDiqJ/6PJLahqegChnHwHSgLSJTtqKc2R0QSnl5ac48QqVRmaXfCVNd4bNExwH0oC0iU7aE2DzBB8B0oA0IM2tzKpPQBf9I0AakAakAWn9FIzMf+ZAvkfMFtMwiRGZES57/biK7ma0S0FHSZObPn3H06iPg6aBpk10TYvMLrle92B63waZhcdScqpq2zu7zt+ue4/m+nfkx0MSNDUueAER/L48ZKkiZLEshEpkwHgm7E+zqSWsp03Y9bTLNfWblNmU8sQXl5feb/KRZcQVX8+7dQ/daNnFiLyo9/0gk7/RISDr01z+LJM/iiOBzKqQ75FLHaMjjcN6Wv3jnaCeYqLmYQu/j7qFx1LaO20r14g0D0nQu/KQQ7TdMSh+H1XWa4VT43ofhQGkAWlAms0LUlH/4C/njDwxsfyMoau7e+5hBU9MzIlUdHR1oSyriLQPFCGIKBcVgaEXNiANSAPSbKRFZpeU1DYEWYqv1DYof6ikZoxb1Ll2+R4na329jH70pPzBZtHW7EObLu3ZdGUPP3f/nsdpHikCP1dDtnDYn4aNExKH2eMrYTJx5qXiO3X6a7cWHkuhSNtlKPBNzqTfpz2r9f2cli18j0UkqNkW0BSwIXvDohOLpommvRr56nqtLYGx0CJ6mfSjHCTgEQGPCMfihgNpFE5vnFBtVGR+ZzrPV2YvibYP7feQBM2gZQsPNAsFdd8ENAW8e+5du/RYX6XsQLPKD7MgYw9k7MFD1nAgzVNMnMi72t7Zdf9RW0ltQ83Dls6u7nPny9BNGpVZ9YNMWxY6v0t7BA8E6yzr7DCbsmvK1MCXDz2eRm4o4L/Q95RQ0DTQNNA0Yp+xqLa59YskC5orrjxnLL3fZPekwrWPM6sKzSJBQ2+28LmRcx1Jm7Jriq96HyVr/EK+V3yvExJIA9KANKL4Tj39lozi7cNYw52HLYg9D0mQY7bwqfunMpIG2cLh6bscc0VfSaPqOMweG1utrx9XIqioiqeYaOvoRFtpPCRBnz3WtENmkaBJIHggeOWfrzCS9nXKHqRpMxJB02x61luDGBFHDFg4ggNpZXVNnyWa7Uh7K0rdbO1AAZAekqCP6NnCr+4SPBCsTFnpSNrzu1/ca+rPVOffmy0cSAPSMHCK4EDa4ZwrWZU1KF0x9RQ1WckN1dX+tTXKI7KQli18m0kU0CQQ1ghnhs60g21pnB/yPa6GbOGQhY4FvXKnCxxImxUhXxqjRyn4qcyqP2aAfPVwMhI6D0nQ73S+f6dlC/e1BG1q2BJ0J2hp4tIX9704ZdcUj90e3gkbkeNRZBHNNcN6Gnj5MRA0THbNSC/fKLp937GYyu/QSZus9V1kGZAtfEeqcF3O/i9Ld269KvLJPLjREEyPINkK2cIhh7E7asPOOThoWklNQ3RB6W6y0K5s09oeVkjFPT6r9f271q1s4ftNwlcSIO4RorHwEDRMNK2kpuGvDh4RpGZUBUUY/z4u+OvBYNuTKprV94BCiDCGCGNc3P2YaJr7pFF7z+aa/anlNSpDOPrXr4DvncGfovNDW9Qg7hFyGGMB2xglbbLW91mtrxfp91a6/7Is/p+zegF71ew/hZaRH7KF/w7u09i5B3OnFxxI+zTBNP+Izc1oN29Es0fGtAXuHKRagDwi/ctqsHLtDhgjfg4OpDGiNeIHgTQgjctpJJA2MIBiXLyCLHQjrkjDbxBIGxdsDfwSQNrwwRjxFnAg7aOzZGR2yay+p+/yxMSyWP0esvAvkt7MIiNYYPbYjyPcp404Re40iANpqquVCRfLKai+lqV3dXdXNTa3tHfu0OcDaQPVyr1XoGnumD7L5+BAWkX9w9XxqRRUWZU1kgvXeWLia1n6veZWIM09tgaeBaSxTJE73eFAWn1LG7U/bUa43NrZubIvI920MGlHVxfan0aF87vj03c8h8IVZo/9OMLs0R0wRvwcHEgrqL7/bd9E8Vt9fn1LG7V95p2TmraOTvr+NEeE/hgXtFgW8mFyyEcpIe/LQ2YmBTueQx2B7AY21QPSRpwidxrEgbTPEs3N1o4bDQ+7e3p26gsoCTp7vizjxl00e0Rxj1Tkx0uk70dZfH+HbOF/y+PPM/s/q/WFaKzeABGIEXGHAXbOwYE0nph4O0r9D13+F0kWJGILjqbMjpQ7kuYhCfpAERLsMls4Xy/8Y1yvvkGEMUQYc7laTWcYB9I2KDK3a/Mcy2ZVjiNpK1Lcyha+jRS+BNnCQdPots5tHQfSSmoaKuoflNQ00Evpvcb7j9rsSJueOiBb+CGzUJBzIODq7oCynf4Fe3aYglFeA5FF9JUWsoXD/jTYn0Zblb5cU/9JXL+XH6G16Jjy/iObl99DEvSs1nddHh+xtNsiEtR9I64Tf2H6Ym7k3JcPvjzj+xnrVNvQCSKLyMsI2Q0guwEesOGgaVmVNT7yDMQYVfkgVn+97gE66CEJmmXy4xf2k7bXLBQ0CMR14jdPvWmXsedz+VYE23LIFg4Ze7idNKLecSAtvrg8Kv8qgoqqfGc6n1YxII/IMnq28Mu92cI/T/3cDrMpu6b8ft9LBx9nC98I2cKBNGTr3FZwIG35WfKhtR09FpQnJtZJ05qtHfTExh6SoLU5/Xn5Qx5nVp0VNsuRtCm7pmxU2bKFT0vodULCehqsp3HshMSBtF60iLQHbe21za0Ft+7dfdjS1d2NFtYoiYNs4TZUBq1BNBa38sXYOw6kUVH8C46mbNflh2Ze3mcsoj9LHpFGyxYu3NzYmy18xvczGDXNZ0C2cNC0gWhCjAgjCaN9EAfSiu/UZ96s2WUoWHC0/zGFdvdsVNAjPVv4hiu992mfaD5xJM1jz9R9qf2Z6vwK+L/vW8KG2aONNiBttKFibB8H0t6O1hw0X7hS29DZ1Z1Wcedbff48h7QiHpKg+Wab73GbUbipUSC6J3J8sNPyxADke/w4G55UCF5+8PLTltR4YmK7Ns9UfmefsSi7sqa1o9NUfmeLOheJm4ck6Dmd73patvDNJqF/3TfCWuGK5BUvH3y59xmF+6cuIzbTA7VmmWA9DUgD0hxIU5TcpNBaHW8qq2tyjBFZYB6QLXyPSfR15oF1l3f/7fLO9RnBfmQQUjORRRRggBgRiBHBAzNMchhTdG3X5mVV1kRkl5Teb7J2dhrKqul+fxTL/+VgCYwp2PamCr0SgiHCGJJi2GkAAAz8SURBVCKMOXbuo3s2HO7Tlp8lj+b+UNnY3N7ZlXr99lZN3tzDCjRvpCqItBckQZ+pBgky3mEUTYds4bBrBlk5DhUcSLtwp85ScWe7Lp/+GCdnpFEbz2ak+lFOf5QnnKr8vYC/JJ3/HC2TMewEhWzhWMgaDqTNCLftQ7MDDL1Emoa2eE7W+r5M+i2y+Htn9KYKfzvdf5bJ/zlaRn7qTCANSAPShpZkzlnmgkGPU7hCHpH+JTVYT+NkMomDpiHhGtWKPWk3Ki7/z29+xn75yVO2ReRRqkE0Ficsue504pLWYa3PVjzHfvnVf/x0lABDzQJpro2ek3eBNLZhA9I4MXTOOwXSgDQsHAackzDaFwCkAWlAGhsjAKQBaWzY2WgrBv7tA2lAGpDGxggAaUAaG3aGv+aM9hUCaUAakMbGCABpQBobdjbaioF/+0AakAaksTECE5e0zvamy+kfuS7Factj418ffjHrvKmOks69+u+//BcUzDFKlT/NnfzuGh5VDgh32/UCcY+cCODEJa3Hjb9H7R0jEouZcLGc6m35PtFTP/+FnemP+Mtfes5+xvtjqmw7FGLXPpAGpI2IVTtrxD7C2A3QeoA0ToxyXHYKmuaKOCBtXBo9J18KSAPS2PAHcGLcWHUKpAFpQBobIzBxSFsao5vkiiqm92D2iJUsjOmLAdKYCHt8DEgb08aN1cUDaY+pYvovkIaVsY7piwHSmAh7fAxIG9PGjdXFA2mPqWL6L5CGlbGO6YuZWKStTTAPqayJNzlbCB/ScYgRGdOQjMjFTyzShoTHCJ5MJ+2nv/rPnzz9y1Et//7KPIjGGhE8RrARIG1o6V2fDD86aYgBdioQ9ziCtAynKSANSGNj3XY4Njo+PgukAWlAGhsjAKQBaWzY2fjQpeF8CyANSAPS2BgBIA1IY8POhqMG4+OzQBqQBqSxMQJAGpDGhp2ND10azrcA0oA0II2NEQDSgDQ27Gw4ajA+PgukAWlAGhsjAKQBaWzY2fjQpeF8CyANSAPS2BgBIA1IY8POhqMG4+OzQBqQBqSxMQJAGpDGhp2ND10azrcA0oA0II2NEQDSgDQ27Gw4ajA+PgukAWlAGhsjAKQBaWzY2fjQpeF8CyANSAPS2BgBIA1IY8POhqMG4+OzQBqQBqSxMQJAGpDGhp2ND10azrcA0oA0II2NEQDSgDQ27Gw4ajA+PgukAWlAGhsjAKQBaWzY2fjQpeF8CyANSAPS2BgBIA1IY8POhqMG4+OzQBqQBqSxMQJAGpDGhp2ND10azrcA0oA0II2NEQDSGEh7/bDM90zKgSR1uFwbo9QlaQynU3Rhcs3+RLVPjHJBpGyozyuEJxUORw3Gx2fHCmleocSy4/IvTifzzyp3xav3Jaq3SJRfxaSsilbMDpe6Y/lLY3STXJ83M0zKP6s8rdTrDaSLojOQJ5J162OVr4QyUMrYBZA2PmgZzrfAnDRPMbEqOvlAklquNTgzfq2ejJBrfWJT5rhEzhVpXqHE1zEphMZpH4x9x6v0n51K9hQPzhtWpP3bT37z3z9bAIXlEfg//+I5aeDfW++9P99364g/hFmRW9TT97c63sT4u+94cFWUYlCBoSOg0Br8zyinhzFLnFPSXjssO52iozc0pPpRufZVl4jzxARWpA383w2vOBsBHEhbGCk7otAOyeDRyYlq/coohSO3zKR9eFwuG6KUoZ5QJUGtf+eo3LFLdARI48ycMe6Yc9K8j8sJzSD3SsjIGSs6A+l7VonsnKowkLYqOlmrd3VLxtg640GVnvzfY05hA9IwNnjOLo1b0lZHJ6tHyPgDE9X0eyh70pYckaXohnZjxsgYOkhoDAsjmGeuQBpn5oxxxxyS9v4xuVo/ksa/RWJTtgGkzY2QxqsG182MzKyi8+eLL14sLDqfnp6BoHJWiU7RMd4mAmkYGzxnl8YVafMjpEnu3TGRxlRjqsmZtdsdX3MymWH2GJiosTuP/tKSllZx40ZbWxvlw0H/trS0lJVdTzWZ6Sfb1becU9lNW8Ejwpkt490xV6RFyF25QEhj6qXLl+/du9fe3k5ZfldXV2NTU1nZdUtamp21018qdSS11GzTtLePyHXOV8yuXPmhs7MT0eVYsVqt589foPdBryt15LwI+6Vt0DS8bZ6bq+OEtBVRCrq52tUvFBc7CgxCoKurq7yigjSm2n0KvQxM1PDEhI2076VOma6quoXadV25erUUdWBX2ZugtpM1II0bW8a7V/ZJ8xQTLha0bt6sdG3z1LuNjY0ms8XO5qmXOgP55mF5P2kLI6SMJ+kN5PXycnd6QucUX7zE2JRKZ5g+MHwESMPb5rm5OvZJW+Vc0NzEjDL+pqYmZ8oWmKjuJ80nNoURj9y8vO7ubkSRO5WOjg5nM9dPoges6AFp3Ngy3r2yT1pgoprR+M9fKHbH4OnnVFZVMTYl0xiWxfbFPYY7uR1saGigN+Rm3Vl/3/VNWNEcEkjD2+a5uTqWSftxyUumZfC3k8bU1tZWNw0endbd3Z2Zlc0I2/o43SRPMaFhWq3Lys5BTQyp0tnZySij8Wo9wgx8j9wYMva9skya9zE5IxgXL10eks2jk2/dusXY4CG5ftI8Jzdp166Voc8PtVJYWOTYn0ZvoK+ag6Zhb/YcXCDLpK09lexoqHoDWVNbO1Sbp863WtsZGzyiNEx69ygz1nfv3n2yznp6ekpLrzH2Nzfc5usH0jgwZOy7ZJm0jbFKRkN14dYfFIr0jEzHNmPU5KSV0cxY19XXD9qosxNu3Ljh2JneQC6hxRwDadibPQcXyDJp/5CoHA3VQBqdGbY7x/PyCxzbJLTkpD+fYF62q6urc6ddxnMqKphJe/OwLeAYSOPAkLHvkmXSdsaPPGn5BYWOpMl1hkmLj8gc39AbyOrq24wUuXPwyg8/MLY5M8y2QxRIw97sObhAlknzP8M8e+zo6HDHzhnPycpmcD+eVZOTZoUxL1uXlFxhbMidgzk5uY6kKXUk+B45MN4x1SXLpH1xmvnWqf5Jb526uroMpNHR+I+l6HvziDCmSTBb0oa6bE1B2NLa6tiT3kCeVoKXf0xZPRcXyzJpzm6dSkuvuaMojufU3rvHaPz/VBh6STuYxBzF/2QTSGfRj9skAyL6YfbIhSXj3ifLpE0PJVRMGzJNZovrkHpHxqgjhUUM61t6A7kpsU/T1pxk1lCzJQ1tE3DWtN3x5uZmxmVrvcF+/zWQhrvVc3F9LJPGExPOYuuvlQ15Pbmuro5R0NR6cjkVjTUzTMpItt5AFhYVuT+H7OjocBaNkqQZsGzNbYzIHnHE2+97Q8FwBPy3bJ3lE8Bmbqx1p5mDfg2ksa5uCAtdVqvVkpbOSJpYprHtmtkWxxxnqTeQ5y9ccEdJrVZrTm4eY096A7kh1rbTm/KLcKhpL6zxmbdxKxQMR2A0MHvG+2MXWehmhUsZQx/1BpI0murr3Qr9tVqtWdk5zox/ZZTCRtrscKnCefrIzKws113W1NSaLcz7c/QGUqLSTxu4ZYZbTRvxn0xoEPMRcEEaT0xscBIpQpFTUXHD9bTu/v06Z2qmN5BHFNoBO0F5YmKjk7UFRGp+QUF1dfWjlhaq4+7u7ubm5srKqmwmnz76lN5Arn2cTYHRyx8uSZr/pS8UGIHRG4HyyirKocCYWXVaKCFxmUEnPSPzZmWlXXR/Z2dnTU1tAVOIL934vY/3RmvYNO1HX7+nmPhe5nTnNf3DBtJIGlMZ1w3op1H1fYn2u63tZo8JSrXgu4NQYARGbwRck8YTE8uOKzRuJMaypKXl5Obl5uVnZGa5Y//fxvf72weQxhMTs8KlsYOl4HdkycWRo3LttNBBstABaaNnYdAyNQKDksYTE1/FMLtGXJi367fCZFq0ecWeNJ6YWBQpda2krlunv3syRTfXSbJHnpjYrMo5XVh6urD072FR7/p9AwVGYPRGIESdRhnbkuje/DnOyrdMYZB0k3a/HqPUzaLl6GcgjScm5oRLI53swna/pxBCY5c4xNnX+38bdv96+RdQYARGbwSm7j3uzPzsjm88o3SRJM5N+w+Vaughvvb3afQuvUKJb+NUT5Y2XK038M8qkW7Sm2Ws/+FgzNR9x6HACIzeCLwsjGe0PcaDK6MUyUyBI+5gpjOQ2+NUjsbPrGmo+zcOy4RS5kAtxl51BjIwUb1w6E8tRD1CBUYAhxGYGyHdGa9izPrBaPnUwUi59r2jA9JSoe8yCGnUee8elW+TqM6qXD3k6VSKLuCccvER25Zq1AdUYATG6AgsipTuTlANmkVcpTN8L9WsYHqYE/ribpGGzn7zsGzNyeT1scptcaq9Cepvzql8YlM+OZn8GoiY85tsNHpQGaMj4CkmvI/JBedUB5M0kXLtGaU+Tm04ptCFEJqd8epPohXu+CN6SdtlKIACIwAjMKojEJ51+f8DAncqwZoYuqAAAAAASUVORK5CYII=;points=[[0,0,0,0,0],[0,0.25,0,0,0],[0,0.75,0,0,0],[0,1,0,0,0],[0.25,0,0,0,0],[0.25,1,0,0,0],[0.5,0,0,0,0],[0.5,1,0,0,0],[0.75,0,0,0,0],[0.75,1,0,0,0],[1,0,0,0,0],[1,0.35,0,0,0],[1,0.45,0,0,0],[1,0.54,0,0,0],[1,0.63,0,0,0],[1,1,0,0,0]];" vertex="1" parent="1">
                    <mxGeometry x="280" y="150" width="291" height="291" as="geometry"/>
                </mxCell>
                <mxCell id="149" value="" style="shape=image;verticalLabelPosition=bottom;labelBackgroundColor=default;verticalAlign=top;aspect=fixed;imageAspect=0;image=data:image/png,iVBORw0KGgoAAAANSUhEUgAAAE4AAABNCAYAAAAIPlKzAAAACXBIWXMAABJ0AAASdAHeZh94AAAAIGNIUk0AAHolAACAgwAA+f8AAIDpAAB1MAAA6mAAADqYAAAXb5JfxUYAAAdoSURBVHja7JzPa9tWHMCF16Q9Zf/ADm1OGyww71h0EDn4EGg7bXRVoovTlJEMFXqYqMJKYVTTQbC0YyA0pYcNYuRDWgQygx0k0MbSGEWFgWD2cCszb3NGoPGSQ7OR1DvMCvKzoh+2HNuyD19k+8m23kffH3rv+30Pqtfr0EjCS0//vLa3P1kolq6qWv5eJpsTGZbfYFi+SFL0HyRF1zCcqJMUXWu8/5Vh+Q1OELOSrNzTDfNqdXtncljATRSKpTlJVtYYlq9iOFGHEbQ+lZwOLTCC1pFUuk5SdJUTxDXdMOeq2zsTcQKXqG7vzEiysk5S9Mt2QQUBieHES4blH+mGOVPb208MKrixQrGU5gSxgOGEb6dtQVJpV7Hb7PP8fo+k6IIkK+na3v7YoIBLFIql6wzLWyd10A9SWPECieGEpWr561FroNNRd3Ss1+tQdXsnyQniJpJKdx1WWIgkRW/qhpnstJ/20dnpTuSsJCsrGE4cnuTET1vcAMIIesiw/IpVrpztpL+RgLPKlQsMy+vghfYKWBCAGE7oqpa/0DNwumFeISl6F7ywfgDmBxBJpXcz2dyVUwenavlboGn2i5YFhQcj6CEniDescuV0wKla/jPwEaPfoXkAfMWw/Kdh4LUFTtXyFAhtUIB5aR/D8lRQeKHB6Ya5hOHEq0GHdpLmcYK4FAReKHC6YV4CfdogQ3OD1/B5lyIDZ5UrF0iKrsUN2gnwapKsTEYBbpwTxK24QnODh+HElm6Y44HAffL9z65y8/7DL4A7Ektw4DCRpOiVk5g0gXt79Qc3Sb6B3jgcBmgu8A7fuft10o1LEzj1l99ASdy8//BJ3E3Uy2SRVHrzq0ffJUA2nj5ON8wF5x0YBmhuJsuw/EKY4HCGYXlrmEz0JHhIKm3phnkmEDjdMNOAyg6dOPvPsHw6CLgEw/LFYdY2UOtgBC3ohpnwBFcolmaG1bd5aR0niDOu4FQtD+mGCXGCuD5skTSI1mE4sW6PY5vAcYIIZbK5CQwnDkbQXM31QNXyEy3gYASFMJyYHfag4BMkZlvATSWnoank9Gqcg4IzN9umua4WiiVXcM/iBs4r5xq0j47zn6tavgXc+TgFhTClFn4Anb+VyebOg+CuxXRmtyUZ7lZG4Vd+4fBz18DgQMfBTF3SgC3APCYxfc2VpGi6CRxJ0WK/gDshCx96gB4UUBB4jgAhguCe9GPZQhh4Xq7GD46fm3K0PQHBlXrt3zp15F7nhNEqr+/DCPoMBLfbS3BhomCACcjIwTnadpvAYTjxby/BtVPG6gWunRvhBd/R9g+ocfU4gLPbwpbCBgUHI2gd1Li/BxmcF4QoNM5xfovG/R4nU+1icNgFwRV6+TgSZXDoRlR1tLVE1Y1eP44Egdet5zg/jXV8dwME900/jBy84IWsAenWyOHbJnBIKr3cT2NV59qHMNfj5Qv9xqpeN8cBbhmcHXk/LrMjQYNJUGjO80iK/mA0Hxewv0C267zbDPDzuBYNdjIL7Dj/uSQrrlPnD+Oac2jXZwIzI605BxhBIRhBZ0c5VU//NmuVK83gGJaHOEGcQFLpUV7VHdxBJptrzatKsgKpWh4iKXp9VDfiaqaPCsVSaybfTu+rWn5mlJR2NdMZz6Ibq1xJkBQ9qlZqHmYVJVlJ+NbHZbK5+WEPEkAV+nygwkKrXBnDcGJUkfl/38uZbG4s8DoHSVYWhlXrAG1rWV3YBO7Pn36ErHLFeUyQFL05jFrn6POmJCsJq1yBCsUSZB+bwS1/3CLandvJqeT00K5zoBcW33Xj0gTur9UvXYVeWFwZFpMF5uXua3duuzJxfY6zypVjadQEj2M4sRV3rQOgbUmyMm7zALkEXj2oavlJJJWuxRmew6pqDMtPRrZeVZKVyzCCxtLfOf0aSdGX7aFVZCukOUFcGtR1+EFmizGcWNINsztr8hmWX44LPADachBoHe0CwbD8vUGGB84MYzhxV9Xyp7PvCCeIt2AEPRq0RxUA2iGGEx8F1bTIdrrhBPE9GEH3BkX7gHzDPknRV8JCi2xvJUlW3sRwwuznbYJcCqVNhuXf8ouekYMrFEvHY7fGMs1zJEU/AE23D2uJjzCceJDJ5s51fTcvq1yBVC3vhARlsjkok81BkqxA9l2zyhUok81dxHDiaa/2jvMpvn5KUvTFdkyzLXCFYgmSZOV4uJHJ5iBVy0OFYglStfxxm2ORcIJh+UUYQa1OVrO0m/5z+c8yhhOLkqy81imwtsE5Xzvb3HyFbphjDMvPwwha8NsbM2JQx4tzMZyYl2RlLOxuXZGC0w0T0g2zCZT93uvCdMNMcII4g+HEYxhBD4Jk1sENR52f+8gBkko/Jil6xp5HixJYW+Bsv2abamPwDwV9cGz4ygmSoudgBF2DEbQa0Va2VRhB1zCcmOME8fUofFhkUdWOok5xfh42IpMUDZEUDWE4MYnhxIcYTtAYTmRhBN2AEdSCEfTFVHL6qKFpR1PJ6ReNzzcwnMhiOPF543uT9m9xgth1YK7gRhJO/hsAglPpnHqKmjYAAAAASUVORK5CYII=;direction=south;points=[[0,0,0,0,0],[0,0.26,0,0,0],[0,0.76,0,0,0],[0,1,0,0,0],[0.04,0.5,0,0,0],[0.23,1,0,0,0],[0.26,0,0,0,0],[0.5,0.08,0,0,0],[0.51,0.96,0,0,0],[0.74,0,0,0,0],[0.74,1,0,0,0],[0.96,0.5,0,0,0],[1,0,0,0,0],[1,0.24,0,0,0],[1,0.76,0,0,0],[1,1,0,0,0]];" vertex="1" parent="1">
                    <mxGeometry x="387" y="488.5" width="77" height="78" as="geometry"/>
                </mxCell>
                <mxCell id="152" style="edgeStyle=none;html=1;exitX=0;exitY=0.5;exitDx=0;exitDy=0;exitPerimeter=0;entryX=1;entryY=0.54;entryDx=0;entryDy=0;entryPerimeter=0;strokeColor=#3700CC;strokeWidth=3;fontColor=#000000;endArrow=none;endFill=0;fillColor=#6a00ff;" edge="1" parent="1" source="150" target="130">
                    <mxGeometry relative="1" as="geometry"/>
                </mxCell>
                <mxCell id="155" style="edgeStyle=none;html=1;exitX=1;exitY=0.5;exitDx=0;exitDy=0;exitPerimeter=0;entryX=0.96;entryY=0.5;entryDx=0;entryDy=0;entryPerimeter=0;strokeColor=#3700CC;strokeWidth=3;fontColor=#000000;endArrow=none;endFill=0;fillColor=#6a00ff;" edge="1" parent="1" source="150" target="149">
                    <mxGeometry relative="1" as="geometry">
                        <Array as="points">
                            <mxPoint x="650" y="855"/>
                            <mxPoint x="650" y="563"/>
                        </Array>
                    </mxGeometry>
                </mxCell>
                <mxCell id="150" value="&lt;font color=&quot;#000000&quot;&gt;220&lt;/font&gt;" style="pointerEvents=1;verticalLabelPosition=bottom;shadow=0;dashed=0;align=center;html=1;verticalAlign=top;shape=mxgraph.electrical.resistors.resistor_2;labelBackgroundColor=none;strokeWidth=3;fontColor=#ffffff;fillColor=#6a00ff;strokeColor=#3700CC;" vertex="1" parent="1">
                    <mxGeometry x="530" y="845" width="100" height="20" as="geometry"/>
                </mxCell>
                <mxCell id="164" style="edgeStyle=none;html=1;strokeColor=#d6b656;strokeWidth=3;fontColor=#000000;endArrow=none;endFill=0;fillColor=#fff2cc;gradientColor=#ffd966;exitX=0;exitY=0.8;exitDx=0;exitDy=0;exitPerimeter=0;entryX=0;entryY=0.65;entryDx=0;entryDy=0;entryPerimeter=0;" edge="1" parent="1" source="135" target="130">
                    <mxGeometry relative="1" as="geometry">
                        <mxPoint x="740" y="280" as="sourcePoint"/>
                        <mxPoint x="290" y="940" as="targetPoint"/>
                        <Array as="points">
                            <mxPoint x="30" y="10"/>
                            <mxPoint x="30" y="980"/>
                            <mxPoint x="310" y="980"/>
                            <mxPoint x="310" y="907"/>
                        </Array>
                    </mxGeometry>
                </mxCell>
                <mxCell id="165" style="edgeStyle=none;html=1;exitX=0;exitY=0.65;exitDx=0;exitDy=0;exitPerimeter=0;entryX=0;entryY=0.6;entryDx=0;entryDy=0;entryPerimeter=0;strokeColor=#0e8088;strokeWidth=3;fontColor=#000000;endArrow=none;endFill=0;fillColor=#b0e3e6;" edge="1" parent="1" source="135" target="130">
                    <mxGeometry relative="1" as="geometry">
                        <mxPoint x="581" y="317.1399999999999" as="sourcePoint"/>
                        <mxPoint x="529" y="812.96" as="targetPoint"/>
                        <Array as="points">
                            <mxPoint y="-11"/>
                            <mxPoint y="950"/>
                            <mxPoint x="280" y="950"/>
                            <mxPoint x="280" y="883"/>
                        </Array>
                    </mxGeometry>
                </mxCell>
            </root>
        </mxGraphModel>
    </diagram>
</mxfile>